<svg width="101" height="100" viewBox="0 0 101 100" fill="none" xmlns="http://www.w3.org/2000/svg">
<g clip-path="url(#clip0_212_970)">
<path d="M22.8444 47.6222L22.8889 44.8L9.03331 30.8889L5.88887 30.8556L1.08887 25.9889L73.9667 4.08889L78.4111 8.53333L78.3667 13.3778L91.7111 26.7778L95.1111 26.8222L99.9111 31.6889L29.0555 53.8333L22.8444 47.6222Z" fill="white"/>
<path d="M73.9334 4.25556L78.2334 8.55556V13.3778V13.4889L78.3111 13.5667L91.6111 26.8778L91.6889 26.9556H91.8H94.9778L99.6445 31.6222L29.0889 53.6778L23.0112 47.6V44.8V44.6889L22.9334 44.6111L9.13338 30.8L9.0556 30.7111H8.94449H6.01115L1.3556 26.0556L73.9334 4.25556ZM74.0112 3.93333L0.822266 25.9222L5.88893 30.9889H8.93338L22.7445 44.8V47.7111L29.0223 53.9889L100.178 31.7444L95.1112 26.6778H91.8111L78.5111 13.3778V8.43333L74.0112 3.93333Z" fill="#231F20"/>
<path d="M22.8444 89.6889L22.8889 86.8778L9.03331 72.9667L5.88887 72.9222L1.08887 68.0556L73.9667 46.1667L78.4111 50.6L78.3667 55.4444L91.7111 68.8556L95.1111 68.8889L99.9111 73.7556L29.0555 95.9111L22.8444 89.6889Z" fill="white"/>
<path d="M73.9334 46.3222L78.2334 50.6222V55.4444V55.5556L78.3111 55.6333L91.6111 68.9556L91.6889 69.0333H91.8H94.9778L99.6445 73.7L29.0889 95.7556L23.0112 89.6778V86.8778V86.7667L22.9334 86.6889L9.13338 72.8667L9.0556 72.7889H8.94449H6.01115L1.3556 68.1333L73.9334 46.3222ZM74.0112 46.0111L0.822266 68L5.88893 73.0667H8.93338L22.7445 86.8778V89.7889L29.0223 96.0667L100.178 73.8222L95.1112 68.7556H91.8111L78.5111 55.4444V50.5L74.0112 46.0111Z" fill="#231F20"/>
<path d="M22.8438 89.6892L22.8882 48.0559L28.9215 54.0892L28.8771 95.7337L22.8438 89.6892Z" fill="white"/>
<path d="M23.0219 48.3891L28.7441 54.1113V95.4002L23.0219 89.678V48.3891ZM22.7441 47.7224V89.7891L29.0219 96.0668V53.9891L22.7441 47.7224Z" fill="#231F20"/>
<path d="M29.156 54.089L100.034 31.9445V73.7223L29.156 95.8779V54.089Z" fill="white"/>
<path d="M99.9 32.1333V73.6222L29.3 95.6889V54.2L99.9 32.1333ZM100.178 31.7556L29.0222 53.9889V96.0555L100.178 73.8111V31.7556Z" fill="#231F20"/>
<path d="M0.921875 67.9002L0.966319 26.2557L5.79965 31.0891L5.75521 72.7335L0.921875 67.9002Z" fill="white"/>
<path d="M1.10004 26.5889L5.61115 31.1111V72.4L1.10004 67.8889V26.5889ZM0.822266 25.9222V68L5.88893 73.0667V30.9889L0.822266 25.9222Z" fill="#231F20"/>
<path d="M9.03296 72.9668L9.0774 31.3224L22.6441 44.9002L22.6107 86.5446L9.03296 72.9668Z" fill="white"/>
<path d="M9.21113 31.6667L22.4667 44.9222V86.2111L9.21113 72.9445V31.6667ZM8.93335 30.9889V73.0556L22.7445 86.8667V44.8L8.93335 30.9889Z" fill="#231F20"/>
<path d="M8.79987 31.1334H6.0332V72.9223H8.79987V31.1334Z" fill="white"/>
<path d="M8.65534 31.2668V72.7779H6.16645V31.2668H8.65534ZM8.93312 30.989H5.88867V73.0557H8.93312V30.989Z" fill="#231F20"/>
<path d="M16.0889 29.0113C25.8111 24.8446 33.3778 24.2224 37.0333 24.2224C38.1778 24.2224 38.8111 24.2891 38.8222 24.2891L51.5666 37.078C47.4 41.5891 34.6666 45.5113 33.5444 45.8557L16.0889 29.0113Z" fill="white"/>
<path d="M37.033 24.3556C37.9219 24.3556 38.4997 24.4001 38.7108 24.4112L51.3775 37.0779C47.233 41.4334 35.0997 45.2334 33.5886 45.689L16.333 29.0556C25.9441 24.9779 33.4108 24.3556 37.033 24.3556ZM37.033 24.0779C33.6663 24.0779 25.8552 24.6334 15.833 28.9556L33.5108 46.0001C33.5108 46.0001 47.4552 41.8779 51.7552 37.0668L38.8441 24.1445C38.8441 24.1445 38.2108 24.0779 37.033 24.0779Z" fill="#231F20"/>
<path d="M38.8445 24.1444V44.2" stroke="#231F20" stroke-width="0.25" stroke-miterlimit="10"/>
<path d="M63.6555 33.5556L50.7 20.5333C56.7 14.5667 67.3555 12.4445 68.3222 12.2556L84.9888 28.9222C76.0555 33.3333 66.0444 33.5556 64.1222 33.5556H63.6555Z" fill="white"/>
<path d="M68.2778 12.4111L84.7556 28.8889C75.8889 33.2 66.0333 33.4222 64.1222 33.4222C63.9667 33.4222 63.8556 33.4222 63.7778 33.4222L50.8889 20.5333C56.7556 14.8 66.9556 12.6667 68.2778 12.4111ZM68.3667 12.1111C68.3667 12.1111 56.8333 14.1333 50.5 20.5333L63.6556 33.6889C63.6556 33.6889 63.8222 33.6889 64.1222 33.6889C66.3556 33.6889 76.2889 33.4222 85.2222 28.9556L68.3667 12.1111Z" fill="#231F20"/>
<path d="M68.3672 12.1111V33.4777" stroke="#231F20" stroke-width="0.25" stroke-miterlimit="10"/>
</g>
<defs>
<clipPath id="clip0_212_970">
<rect width="100" height="100" fill="white" transform="translate(0.5)"/>
</clipPath>
</defs>
</svg>
