<svg width="101" height="100" viewBox="0 0 101 100" fill="none" xmlns="http://www.w3.org/2000/svg">
<g clip-path="url(#clip0_212_1043)">
<path d="M6.36621 41.2888L15.0218 37.5777L22.2218 38.2222L38.9107 29.911L38.2995 24.4999L44.7995 21.411L64.8884 38.9888L56.9773 42.7999L51.2107 41.0444L31.6662 50.611V56.711L25.0662 59.9888L6.36621 41.2888Z" fill="white"/>
<path d="M44.7776 21.5774L64.6443 38.9552L57.011 42.6329L51.2443 40.9107L51.1443 40.8774L51.0443 40.9218L31.6776 50.4441L31.5221 50.5218V50.6996V56.6218L25.0887 59.8107L6.61096 41.3329L15.011 37.7218L22.1999 38.3441L22.2776 38.3552L22.3443 38.3218L38.8665 30.0663L39.0443 29.9774L39.0221 29.7885L38.4443 24.5774L44.7776 21.5774ZM44.8221 21.2441L38.1554 24.4218L38.7554 29.8329L22.2332 38.0885L14.9665 37.4552L6.12207 41.2552L25.0332 60.1663L31.7999 56.8107V50.7107L51.1665 41.1885L57.0332 42.9441L65.1332 39.0329L44.8221 21.2441Z" fill="#231F20"/>
<path d="M6.36621 27.7225L15.0218 24.0114L22.2218 24.6558L38.9107 16.3447L38.2995 10.9336L44.7995 7.84473L64.8884 25.4225L56.9773 29.2447L51.2107 27.4781L31.6662 37.0447V43.1447L25.0662 46.4225L6.36621 27.7225Z" fill="white"/>
<path d="M44.7776 8.01107L64.6443 25.3888L57.011 29.0666L51.2443 27.3444L51.1443 27.3111L51.0443 27.3555L31.6887 36.8888L31.5332 36.9666V37.1444V43.0666L25.0998 46.2555L6.61096 27.7666L15.011 24.1555L22.1999 24.7777L22.2776 24.7888L22.3443 24.7555L38.8665 16.5L39.0443 16.4111L39.0221 16.2222L38.4443 11.0111L44.7776 8.01107ZM44.8221 7.67773L38.1554 10.8555L38.7554 16.2666L22.2332 24.5222L14.9665 23.8888L6.12207 27.6888L25.0332 46.6L31.7999 43.2444V37.1444L51.1665 27.6222L57.0332 29.3777L65.1332 25.4666L44.8221 7.67773Z" fill="#231F20"/>
<path d="M7.69922 26.011L16.0437 22.511L22.9881 23.1222L39.1103 15.2777L38.5326 10.1777L44.7992 7.2666L64.1881 23.8333L56.5548 27.4333L50.9881 25.7777L31.6659 35.1888V40.9333L25.7437 43.6444L7.69922 26.011Z" fill="white"/>
<path d="M44.7773 7.42183L63.9329 23.7996L56.5884 27.2552L51.0217 25.6329L50.9217 25.5996L50.8217 25.6441L31.6773 35.0107L31.5217 35.0885V35.2663V40.8441L25.7662 43.4774L7.94397 26.0663L16.0329 22.6774L22.9773 23.2663L23.0551 23.2774L23.1217 23.2441L39.0773 15.4552L39.2551 15.3663L39.2329 15.1663L38.6773 10.2663L44.7773 7.42183ZM44.8217 7.09961L38.3884 10.0996L38.9662 15.1996L23.0106 22.9885L15.9995 22.3885L7.45508 25.9663L25.7217 43.8107L31.8106 41.0218V35.2663L50.9551 25.8996L56.6217 27.5552L64.444 23.8663L44.8217 7.09961Z" fill="#231F20"/>
<path d="M25.1777 46.6783L31.6666 43.4561V56.7116L25.1777 59.9338V46.6783Z" fill="white"/>
<path d="M31.5328 43.6778V56.6223L25.3217 59.7001V46.7667L31.5328 43.6778ZM31.8106 43.2334L25.0439 46.589V60.1556L31.8106 56.8001V43.2334Z" fill="#231F20"/>
<path d="M31.9443 37.2219L51.0332 27.833V41.0886L31.9443 50.4775V37.2219Z" fill="white"/>
<path d="M50.8887 28.0548V40.9992L32.0776 50.2437V37.3104L50.8887 28.0548ZM51.1665 27.6104L31.7998 37.1326V50.6992L51.1665 41.177V27.6104Z" fill="#231F20"/>
<path d="M51.3115 41.0766V27.7988L56.9004 29.4655V42.7433L51.3115 41.0766Z" fill="white"/>
<path d="M51.4448 27.9881L56.7559 29.577V42.5548L51.4448 40.9659V27.9881ZM51.167 27.6104V41.177L57.0337 42.9326V29.3659L51.167 27.6104Z" fill="#231F20"/>
<path d="M57.1777 29.4556L65 25.6778V38.9334L57.1777 42.7112V29.4556Z" fill="white"/>
<path d="M64.8554 25.8996V38.8441L57.311 42.4885V29.5441L64.8554 25.8996ZM65.1332 25.4552L57.0332 29.3663V42.9329L65.1332 39.0218V25.4552Z" fill="#231F20"/>
<path d="M6.22168 41.1441L6.26612 28.0107L24.9439 46.6885L24.8995 59.8219L6.22168 41.1441Z" fill="white"/>
<path d="M6.39985 28.3444L24.7554 46.7V59.4777L6.39985 41.1333V28.3444ZM6.12207 27.6777V41.2444L25.0332 60.1555V46.5888L6.12207 27.6777Z" fill="#231F20"/>
<path d="M41.7324 46.5333L50.388 42.8111L57.588 43.4555L74.2658 35.1444L73.6658 29.7444L80.1657 26.6444L100.255 44.2222L92.3324 48.0444L86.5658 46.2889L67.0324 55.8555V61.9555L60.4213 65.2222L41.7324 46.5333Z" fill="white"/>
<path d="M80.1327 26.8108L99.9994 44.1885L92.3661 47.8663L86.5994 46.1441L86.4994 46.1108L86.3994 46.1552L67.0327 55.6774L66.8772 55.7552V55.933V61.8552L60.4438 65.0441L41.9772 46.5774L50.3772 42.9663L57.5661 43.5885L57.6438 43.5997L57.7105 43.5663L74.2327 35.3108L74.4105 35.2219L74.3883 35.033L73.8105 29.8219L80.1327 26.8108ZM80.1883 26.4774L73.5216 29.6552L74.1216 35.0663L57.5994 43.3219L50.3327 42.6885L41.4883 46.4885L60.3994 65.3997L67.1661 62.033V55.933L86.5327 46.4108L92.3994 48.1663L100.499 44.2552L80.1883 26.4774Z" fill="#231F20"/>
<path d="M41.7217 32.9549L51.2328 28.3549L56.9883 30.166L74.2661 21.5771L73.6661 16.1771L80.1661 13.0771L100.255 30.6549L92.3328 34.4771L86.5661 32.7216L67.0328 42.2883V48.3883L60.4217 51.6549L41.7217 32.9549Z" fill="white"/>
<path d="M80.1327 13.2441L99.9994 30.6219L92.3661 34.2997L86.5994 32.5774L86.4994 32.5441L86.3994 32.5885L67.0327 42.1108L66.8772 42.1885V42.3663V48.2885L60.4438 51.4774L41.955 32.9997L51.1883 28.533L56.9549 30.2997L57.0661 30.333L57.1661 30.2885L74.2549 21.7552L74.4327 21.6663L74.4105 21.4774L73.8327 16.2663L80.1327 13.2441ZM80.1883 12.9219L73.5216 16.0997L74.1216 21.5108L57.0327 30.0441L51.1661 28.2441L41.4883 32.9219L60.3994 51.833L67.1661 48.4663V42.3663L86.5327 32.8441L92.3994 34.5996L100.499 30.6885L80.1883 12.9219Z" fill="#231F20"/>
<path d="M60.5439 51.9112L67.0328 48.7001V61.9557L60.5439 65.1668V51.9112Z" fill="white"/>
<path d="M66.8883 48.9224V61.8668L60.6772 64.9446V52.0001L66.8883 48.9224ZM67.1661 48.4668L60.3994 51.8224V65.389L67.1661 62.0335V48.4668Z" fill="#231F20"/>
<path d="M67.3105 42.4559L86.3883 33.0781V46.3337L67.3105 55.7115V42.4559Z" fill="white"/>
<path d="M86.2549 33.2999V46.2444L67.4438 55.4888V42.5444L86.2549 33.2999ZM86.5327 32.8555L67.166 42.3777V55.9444L86.5327 46.4221V32.8555Z" fill="#231F20"/>
<path d="M86.667 46.311V33.0332L92.2559 34.711V47.9776L86.667 46.311Z" fill="white"/>
<path d="M86.811 33.2221L92.1221 34.811V47.7999L86.811 46.211V33.2221ZM86.5332 32.8555V46.4221L92.3999 48.1777V34.5999L86.5332 32.8555Z" fill="#231F20"/>
<path d="M92.5332 34.689L100.367 30.9112V44.1779L92.5332 47.9445V34.689Z" fill="white"/>
<path d="M100.222 31.133V44.0774L92.6772 47.7219V34.7774L100.222 31.133ZM100.499 30.6885L92.3994 34.5997V48.1663L100.499 44.2552V30.6885Z" fill="#231F20"/>
<path d="M41.5879 46.3892L41.6212 33.2559L60.299 51.9225L60.2657 65.0559L41.5879 46.3892Z" fill="white"/>
<path d="M41.7661 33.5889L60.1216 51.9445V64.7222L41.7661 46.3667V33.5889ZM41.4883 32.9111V46.4778L60.3994 65.3889V51.8334L41.4883 32.9111Z" fill="#231F20"/>
<path d="M6.31055 27.6658L7.4661 26.1769L25.5661 43.8547L24.9661 46.3214L6.31055 27.6658Z" fill="white"/>
<path d="M7.47726 26.388L25.4106 43.9103L24.8884 46.0547L6.49948 27.6547L7.47726 26.388ZM7.45503 25.9658L6.13281 27.6769L25.0439 46.588L25.7217 43.8103L7.45503 25.9658Z" fill="#231F20"/>
<path d="M25.833 43.9108L31.6664 41.2441V43.1441L25.2441 46.333L25.833 43.9108Z" fill="white"/>
<path d="M31.5328 41.4548V43.0548L25.4551 46.0659L25.9551 43.9993L31.5328 41.4548ZM31.8106 41.0215L25.7217 43.8104L25.0439 46.5882L31.8106 43.2326V41.0215Z" fill="#231F20"/>
<path d="M31.9443 35.3558L50.8332 26.1113L51.0221 27.5336L31.9443 36.9113V35.3558Z" fill="white"/>
<path d="M50.7217 26.3222L50.8661 27.4445L32.0883 36.6778V35.4445L50.7217 26.3222ZM50.955 25.9111L31.8105 35.2778V37.1445L51.1772 27.6222L50.955 25.9111Z" fill="#231F20"/>
<path d="M51.2992 27.4996L51.1104 26.0996L56.4992 27.6663L56.8437 29.1663L51.2992 27.4996Z" fill="white"/>
<path d="M51.2773 26.2889L56.3773 27.7778L56.6551 28.9556L51.4217 27.3889L51.2773 26.2889ZM50.9551 25.9111L51.1773 27.6222L57.044 29.3778L56.6106 27.5556L50.9551 25.9111Z" fill="#231F20"/>
<path d="M56.7783 27.6325L64.3672 24.0547L64.9561 25.388L57.1339 29.1658L56.7783 27.6325Z" fill="white"/>
<path d="M64.3002 24.244L64.778 25.3218L57.2336 28.9662L56.9447 27.7218L64.3002 24.244ZM64.4447 23.8662L56.6113 27.5551L57.0336 29.3551L65.1335 25.444L64.4447 23.8662Z" fill="#231F20"/>
<path d="M0.744141 68.8006L9.3997 65.0895L16.5997 65.7229L33.2775 57.4117L32.6775 52.0117L39.1775 48.9229L59.2664 66.5006L51.3441 70.3117L45.5775 68.5562L26.0441 78.1228V84.2229L19.4441 87.5006L0.744141 68.8006Z" fill="white"/>
<path d="M39.1556 49.0781L59.0222 66.4559L51.3889 70.1336L45.6222 68.4114L45.5222 68.3781L45.4222 68.4225L26.0556 77.9559L25.9 78.0336V78.2114V84.1336L19.4667 87.3225L0.988889 68.8447L9.38889 65.2336L16.5778 65.8559L16.6556 65.867L16.7222 65.8336L33.2444 57.5781L33.4222 57.4892L33.4 57.3003L32.8222 52.0892L39.1556 49.0781ZM39.2 48.7559L32.5333 51.9336L33.1333 57.3447L16.6111 65.5892L9.34444 64.9559L0.5 68.7559L19.4111 87.667L26.1778 84.3114V78.2114L45.5444 68.6892L51.4111 70.4447L59.5111 66.5336L39.2 48.7559Z" fill="#231F20"/>
<path d="M0.744141 55.2332L9.3997 51.5221L16.5997 52.1555L33.2775 43.8444L32.6775 38.4444L39.1775 35.3555L59.2664 52.9332L51.3441 56.7444L45.5775 54.9888L26.0441 64.5555V70.6555L19.4441 73.9332L0.744141 55.2332Z" fill="white"/>
<path d="M39.1556 35.5107L59.0222 52.8885L51.3889 56.5663L45.6222 54.844L45.5222 54.8107L45.4222 54.8551L26.0556 64.3885L25.9 64.4663V64.644V70.5663L19.4667 73.7551L0.988889 55.2774L9.38889 51.6774L16.5778 52.2996L16.6556 52.3107L16.7222 52.2774L33.2444 44.0218L33.4222 43.9329L33.4 43.744L32.8222 38.5329L39.1556 35.5107ZM39.2 35.1885L32.5333 38.3663L33.1333 43.7774L16.6111 52.0218L9.34444 51.3885L0.5 55.1885L19.4111 74.0996L26.1778 70.744V64.644L45.5444 55.1218L51.4111 56.8774L59.5111 52.9663L39.2 35.1885Z" fill="#231F20"/>
<path d="M2.06641 53.5226L10.422 50.0226L17.3664 50.6226L32.722 43.1559L32.5997 37.567L41.2553 33.5781L58.5775 51.3337L50.9331 54.9448L45.3664 53.2781L26.0442 62.6892V68.4448L20.122 71.1559L2.06641 53.5226Z" fill="white"/>
<path d="M41.2334 33.7445L58.3445 51.2889L50.9667 54.7667L45.4 53.1445L45.3 53.1111L45.2 53.1556L26.0556 62.5334L25.9 62.6111V62.7889V68.3667L20.1445 71L2.32227 53.5667L10.4112 50.1778L17.3556 50.7667L17.4334 50.7778L17.5 50.7445L32.7112 43.3222L32.8667 43.2445V43.0667L32.7445 37.6556L41.2334 33.7445ZM41.2889 33.4111L32.4556 37.4778L32.5778 43.0667L17.3667 50.4889L10.3667 49.8889L1.82227 53.4667L20.0889 71.3111L26.1778 68.5222V62.7778L45.3223 53.4111L50.9889 55.0667L58.8112 51.3778L41.2889 33.4111Z" fill="#231F20"/>
<path d="M19.5557 74.189L26.0446 70.9668V84.2224L19.5557 87.4446V74.189Z" fill="white"/>
<path d="M25.9 71.1886V84.133L19.6889 87.2108V74.2664L25.9 71.1886ZM26.1778 70.7441L19.4111 74.0997V87.6664L26.1778 84.3108V70.7441Z" fill="#231F20"/>
<path d="M26.3223 64.7338L45.4 55.3449V68.6005L26.3223 77.9893V64.7338Z" fill="white"/>
<path d="M45.2666 55.5667V68.5111L26.4555 77.7556V64.8111L45.2666 55.5667ZM45.5444 55.1222L26.1777 64.6445V78.2111L45.5444 68.6889V55.1222Z" fill="#231F20"/>
<path d="M45.6787 68.5772V55.3105L51.2676 56.9772V70.255L45.6787 68.5772Z" fill="white"/>
<path d="M45.8227 55.4887L51.1338 57.0776V70.0665L45.8227 68.4776V55.4887ZM45.5449 55.1221V68.6887L51.4116 70.4443V56.8776L45.5449 55.1221Z" fill="#231F20"/>
<path d="M51.5449 56.956L59.3783 53.1893V66.4449L51.5449 70.2227V56.956Z" fill="white"/>
<path d="M59.2334 53.4111V66.3556L51.6889 70V57.0445L59.2334 53.4111ZM59.5111 52.9667L51.4111 56.8778V70.4445L59.5111 66.5334V52.9667Z" fill="#231F20"/>
<path d="M0.599609 68.6548L0.632943 55.5215L19.3107 74.1993L19.2774 87.3326L0.599609 68.6548Z" fill="white"/>
<path d="M0.777778 55.8551L19.1333 74.2107V86.9885L0.777778 68.6329V55.8551ZM0.5 55.1885V68.7551L19.4111 87.6663V74.0996L0.5 55.1885Z" fill="#231F20"/>
<path d="M36.0996 74.033L44.7663 70.3219L51.9552 70.9664L68.6441 62.6553L68.0441 57.2442L74.5329 54.1553L94.6218 71.733L86.7107 75.5553L80.9441 73.7886L61.3996 83.3553V89.4553L54.7996 92.733L36.0996 74.033Z" fill="white"/>
<path d="M74.511 54.3216L94.3777 71.6994L86.7444 75.3772L80.9777 73.6549L80.8777 73.6216L80.7777 73.6661L61.411 83.1883L61.2555 83.2661V83.4438V89.3661L54.8221 92.555L36.3444 74.0883L44.7444 70.4772L51.9332 71.0994L52.0221 71.1105L52.0888 71.0772L68.611 62.8216L68.7888 62.7327L68.7666 62.5438L68.1888 57.3327L74.511 54.3216ZM74.5555 53.9883L67.8888 57.1661L68.4888 62.5772L51.9666 70.8327L44.6999 70.1994L35.8555 73.9994L54.7666 92.9105L61.5332 89.5549V83.4438L80.8999 73.9216L86.7666 75.6772L94.8666 71.7661L74.5555 53.9883Z" fill="#231F20"/>
<path d="M36.0996 60.4666L45.5996 55.8666L51.3663 57.6666L68.0218 49.5889L68.0329 43.6889L74.5329 40.5889L94.6218 58.1666L86.7107 61.9889L80.9441 60.2222L61.3996 69.7889V75.8889L54.7996 79.1666L36.0996 60.4666Z" fill="white"/>
<path d="M74.5107 40.7552L94.3773 58.133L86.744 61.8108L80.9773 60.0885L80.8773 60.0552L80.7773 60.0997L61.4107 69.6219L61.2551 69.6996V69.8774V75.7997L54.8329 78.9996L36.3329 60.4997L45.5662 56.033L51.3329 57.7997L51.4329 57.833L51.5329 57.7885L68.0107 49.7552L68.1662 49.6774V49.4997V43.7663L74.5107 40.7552ZM74.5551 40.4219L67.8884 43.5997V49.5108L51.4107 57.5441L45.544 55.7441L35.8662 60.4219L54.7773 79.333L61.544 75.9774V69.8774L80.9107 60.3552L86.7773 62.1108L94.8773 58.1997L74.5551 40.4219Z" fill="#231F20"/>
<path d="M54.9111 79.4224L61.4 76.2002V89.4558L54.9111 92.678V79.4224Z" fill="white"/>
<path d="M61.2662 76.422V89.3664L55.0551 92.4442V79.5109L61.2662 76.422ZM61.544 75.9775L54.7773 79.3331V92.8998L61.544 89.5442V75.9775Z" fill="#231F20"/>
<path d="M61.6777 69.967L80.7666 60.5781V73.8337L61.6777 83.2226V69.967Z" fill="white"/>
<path d="M80.6221 60.7999V73.7444L61.8221 82.9999V70.0555L80.6221 60.7999ZM80.8999 60.3555L61.5332 69.8777V83.4444L80.8999 73.9221V60.3555Z" fill="#231F20"/>
<path d="M81.0449 73.8217V60.5439L86.6338 62.2106V75.4884L81.0449 73.8217Z" fill="white"/>
<path d="M81.1782 60.7332L86.4893 62.3221V75.311L81.1782 73.7221V60.7332ZM80.9004 60.3555V73.9221L86.7671 75.6777V62.111L80.9004 60.3555Z" fill="#231F20"/>
<path d="M86.9111 62.1997L94.7334 58.4219V71.6774L86.9111 75.4552V62.1997Z" fill="white"/>
<path d="M94.5996 58.6437V71.5881L87.0551 75.2326V62.2881L94.5996 58.6437ZM94.8773 58.1992L86.7773 62.1103V75.677L94.8773 71.7659V58.1992Z" fill="#231F20"/>
<path d="M35.9551 73.8882L35.9995 60.7549L54.6773 79.4327L54.6329 92.566L35.9551 73.8882Z" fill="white"/>
<path d="M36.144 61.0997L54.4995 79.4552V92.233L36.144 73.8774V61.0997ZM35.8662 60.4219V73.9885L54.7773 92.8997V79.333L35.8662 60.4219Z" fill="#231F20"/>
<path d="M0.688477 55.1774L1.84403 53.6885L19.9329 71.3663L19.3329 73.8218L0.688477 55.1774Z" fill="white"/>
<path d="M1.85556 53.8886L19.7889 71.4109L19.2667 73.5553L0.866667 55.1664L1.85556 53.8886ZM1.82222 53.4775L0.5 55.1886L19.4111 74.0998L20.0889 71.322L1.82222 53.4775Z" fill="#231F20"/>
<path d="M20.211 71.4227L26.0443 68.756V70.656L19.6221 73.8449L20.211 71.4227Z" fill="white"/>
<path d="M25.9 68.9667V70.5667L19.8222 73.5778L20.3222 71.5111L25.9 68.9667ZM26.1778 68.5334L20.0889 71.3222L19.4111 74.1L26.1778 70.7445V68.5334Z" fill="#231F20"/>
<path d="M26.3223 62.8667L45.2112 53.6222L45.3889 55.0445L26.3223 64.4222V62.8667Z" fill="white"/>
<path d="M45.1 53.8334L45.2444 54.9556L26.4666 64.1889V62.9445L45.1 53.8334ZM45.3222 53.4111L26.1777 62.7778V64.6445L45.5444 55.1222L45.3222 53.4111Z" fill="#231F20"/>
<path d="M45.667 55.0113L45.4893 53.6113L50.8781 55.178L51.2226 56.6669L45.667 55.0113Z" fill="white"/>
<path d="M45.6556 53.8L50.7556 55.2889L51.0334 56.4667L45.8 54.9L45.6556 53.8ZM45.3223 53.4111L45.5445 55.1222L51.4112 56.8778L50.9889 55.0778L45.3223 53.4111Z" fill="#231F20"/>
<path d="M51.1445 55.1442L58.7445 51.5664L59.3334 52.8997L51.5001 56.6664L51.1445 55.1442Z" fill="white"/>
<path d="M58.6781 51.7557L59.1559 52.8335L51.6115 56.4779L51.3226 55.2335L58.6781 51.7557ZM58.8115 51.3779L50.9893 55.0668L51.4115 56.8668L59.5115 52.9557L58.8115 51.3779Z" fill="#231F20"/>
</g>
<defs>
<clipPath id="clip0_212_1043">
<rect width="100" height="100" fill="white" transform="translate(0.5)"/>
</clipPath>
</defs>
</svg>
