<svg width="101" height="100" viewBox="0 0 101 100" fill="none" xmlns="http://www.w3.org/2000/svg">
<g clip-path="url(#clip0_212_361)">
<path d="M19.8114 90.3453C15.678 89.0231 3.47803 81.8564 1.12248 70.8009C-1.52197 58.4231 7.05581 38.5453 30.0114 33.4231C34.6669 32.3898 39.1225 31.8564 43.2669 31.8564C56.0447 31.8564 66.2336 36.7009 74.4225 46.6676C79.7225 53.112 80.278 67.1342 76.678 71.5564C71.778 69.7231 66.1114 68.7564 60.2892 68.7564C42.2447 68.7564 25.6225 77.6342 19.8114 90.3453Z" fill="white"/>
<path d="M43.2555 31.7227V32.0004C55.9888 32.0004 66.1444 36.8227 74.311 46.756C79.5444 53.1227 80.1332 66.9227 76.6221 71.4004C71.7332 69.5893 66.0777 68.6338 60.2777 68.6338C42.2444 68.6338 25.6221 77.4893 19.7332 90.1893C14.9888 88.6004 3.44436 81.0893 1.25547 70.7782C-1.37787 58.456 7.16658 38.6671 30.0332 33.556C34.6777 32.5227 39.1221 31.9893 43.2555 31.9893V31.7227ZM43.2555 31.7227C39.2666 31.7227 34.8444 32.2004 29.9666 33.2893C7.46658 38.3115 -1.80009 57.8004 0.977689 70.8338C3.26658 81.5782 15.2666 89.1115 19.8777 90.5227C26.1221 76.7004 43.5777 68.9115 60.2777 68.9115C65.9999 68.9115 71.6443 69.8338 76.711 71.7338C80.5221 67.2338 79.8555 53.0782 74.5221 46.5893C68.7444 39.5449 59.3999 31.7227 43.2555 31.7227Z" fill="#231F20"/>
<path d="M19.8117 50.3893C15.6783 49.0671 3.47833 41.8893 1.12278 30.8449C-1.81056 17.0782 8.71167 6.45601 30.0117 1.70046C34.6672 0.667122 39.1228 0.133789 43.2672 0.133789C56.045 0.133789 66.2339 4.97823 74.4228 14.9449C79.5894 21.2338 80.3894 27.1449 76.6783 31.6005C71.7783 29.7671 66.1117 28.8005 60.2894 28.8005C42.245 28.8005 25.6228 37.6782 19.8117 50.3893Z" fill="white"/>
<path d="M43.2555 0.277778C55.9888 0.277778 66.1444 5.1 74.311 15.0333C79.4777 21.3222 80.2777 26.9889 76.6221 31.4333C71.7221 29.6222 66.0777 28.6556 60.2777 28.6556C42.2444 28.6556 25.6221 37.5111 19.7332 50.2111C14.9888 48.6333 3.45547 41.1222 1.25547 30.8111C-1.66675 17.1333 8.82213 6.57778 30.0332 1.84444C34.6777 0.811111 39.1221 0.277778 43.2555 0.277778ZM43.2555 0C39.2666 0 34.8444 0.477778 29.9666 1.56667C7.46658 6.58889 -1.80009 17.8333 0.977689 30.8778C3.26658 41.6222 15.2666 49.1556 19.8777 50.5667C26.1221 36.7444 43.5777 28.9556 60.2777 28.9556C65.9999 28.9556 71.6443 29.8778 76.711 31.7778C80.5221 27.2778 79.8555 21.3556 74.5221 14.8667C68.7444 7.82222 59.3999 0 43.2555 0Z" fill="#231F20"/>
<path d="M21.1784 37.1445C17.8228 36.189 11.2006 31.4668 10.6673 24.5668C10.045 16.4779 16.6117 10.9779 31.3562 7.23342C35.2228 6.25565 38.9784 5.75565 42.5228 5.75565C51.1339 5.75565 58.8784 8.77787 64.3339 14.2779C67.9339 17.9001 69.1339 20.7334 68.0117 22.9334C65.4673 22.1112 62.345 21.7001 58.7339 21.7001C44.745 21.689 25.9339 28.0223 21.1784 37.1445Z" fill="white"/>
<path d="M42.5336 5.61111V5.88889C51.1003 5.88889 58.8114 8.9 64.2447 14.3667C67.7336 17.8889 68.9558 20.6333 67.9447 22.7556C65.4114 21.9556 62.3114 21.5444 58.7336 21.5444C44.7558 21.5444 25.978 27.8667 21.1114 36.9667C17.7558 35.9556 11.3336 31.3111 10.8114 24.5444C10.1891 16.5444 16.7336 11.0778 31.4003 7.35556C35.2558 6.37778 39.0003 5.87778 42.5336 5.87778V5.61111ZM42.5336 5.61111C39.1225 5.61111 35.3891 6.06667 31.3336 7.08889C16.4558 10.8667 9.91136 16.5333 10.5336 24.5778C11.1003 31.9111 18.2003 36.5 21.2558 37.3111C25.8558 28.2778 44.678 21.8333 58.7336 21.8333C62.2447 21.8333 65.4669 22.2333 68.078 23.1C69.1225 21.2111 68.7669 18.5333 64.4336 14.1778C59.8558 9.55556 52.6114 5.61111 42.5336 5.61111Z" fill="#231F20"/>
<path d="M20.0225 50.5556C20.1225 50.4111 31.5002 29.4333 59.2336 29.4333C64.7114 29.4333 70.5447 30.2556 76.5669 31.8778V71.5333C75.5225 71.1667 70.2336 69.4556 62.7002 69.4556C51.7336 69.4556 35.4558 73.0556 20.0225 90.1667V50.5556Z" fill="white"/>
<path d="M59.2335 29.5667C64.6668 29.5667 70.4557 30.3778 76.4335 31.9778V71.3333C75.0335 70.8667 69.889 69.3111 62.7001 69.3111C51.7668 69.3111 35.5557 72.8778 20.1557 89.8V50.6333C20.8446 49.3889 32.3224 29.5667 59.2335 29.5667ZM59.2335 29.2889C31.089 29.2889 19.8779 50.5556 19.8779 50.5556V90.5111C35.2779 73.2889 51.5335 69.5778 62.7001 69.5778C71.1668 69.5778 76.7113 71.7222 76.7113 71.7222V31.7667C70.2779 30.0222 64.4668 29.2889 59.2335 29.2889Z" fill="#231F20"/>
<path d="M10.9673 85.1664C9.02287 83.5442 3.88954 77.4109 3.83398 77.3442L3.86732 37.8553C4.96732 39.1664 9.35621 44.322 10.9673 45.5664V85.1664Z" fill="white"/>
<path d="M4.00043 38.2331C5.37821 39.8664 9.2671 44.3998 10.8227 45.6331V84.8664C8.87821 83.122 4.57821 78.022 4.00043 77.3331V38.2331ZM3.72266 37.4775V77.4331C3.72266 77.4331 9.32266 84.1331 11.1004 85.4553V45.4998C9.34488 44.1887 3.72266 37.4775 3.72266 37.4775Z" fill="#231F20"/>
<path d="M3.58911 77.0228C2.25577 75.1117 1.13355 70.845 1.11133 70.8006V32.1895C1.85577 34.8561 3.57799 37.5228 3.60022 37.5561L3.58911 77.0228Z" fill="white"/>
<path d="M1.25532 33.089C1.99976 35.2224 3.18865 37.1557 3.44421 37.5557V76.5557C2.29976 74.6335 1.35532 71.1779 1.25532 70.8002V33.089ZM0.977539 30.8779V70.8335C0.977539 70.8335 2.24421 75.689 3.72198 77.4335V37.4779C3.72198 37.4779 1.39976 33.889 0.977539 30.8779Z" fill="#231F20"/>
<path d="M76.8447 31.867C77.7781 31.4892 78.5669 28.0559 78.9781 25.8781V63.1892C79.3892 66.367 77.5447 70.0003 76.8447 71.2225V31.867Z" fill="white"/>
<path d="M78.8335 27.3114V63.2225C79.1891 66.0114 77.778 69.167 76.978 70.6781V32.0003C77.7446 31.6447 78.3891 29.4225 78.8335 27.3114ZM79.1113 24.2559C79.1113 24.2559 77.9335 31.7781 76.7669 31.7781C76.7446 31.7781 76.7224 31.7781 76.7002 31.767V71.7225C76.7002 71.7225 79.6224 67.1336 79.1113 63.1781V24.2559Z" fill="#231F20"/>
<path d="M21.2559 37.3V10.5" stroke="#231F20" stroke-miterlimit="10"/>
<path d="M13.4561 31.7221V15.8555" stroke="#231F20" stroke-miterlimit="10"/>
<path d="M30.4775 28.9449V7.31152" stroke="#231F20" stroke-miterlimit="10"/>
<path d="M42.2109 24.2554V5.62207" stroke="#231F20" stroke-miterlimit="10"/>
<path d="M52.5557 22.1997V7.06641" stroke="#231F20" stroke-miterlimit="10"/>
<path d="M59.9004 21.8444V10.5" stroke="#231F20" stroke-miterlimit="10"/>
<path d="M66.2441 16.167V22.5892" stroke="#231F20" stroke-miterlimit="10"/>
<path d="M92.8337 34.156C93.3004 31.156 92.8226 28.7782 91.4004 27.0893C89.8004 25.2004 86.9782 24.2005 83.2337 24.2005C82.8004 24.2005 82.3559 24.2116 81.9004 24.2449C82.1004 21.6782 87.2893 18.156 92.1448 18.156C94.1226 18.156 95.8559 18.7116 97.2893 19.7893C100.045 21.8782 101.034 25.0893 99.9226 28.3893C98.8004 31.7338 95.9004 34.0782 92.8337 34.156Z" fill="white"/>
<path d="M92.1448 18.3C94.0892 18.3 95.8003 18.8444 97.2003 19.9111C99.9114 21.9667 100.867 25.1222 99.7892 28.3556C98.7114 31.5778 95.9448 33.8556 93.0003 34.0111C93.4336 31.0444 92.9336 28.6889 91.5114 27C89.8892 25.0778 87.0225 24.0667 83.2448 24.0667C82.867 24.0667 82.467 24.0778 82.067 24.1C82.4336 21.6111 87.4448 18.3 92.1448 18.3ZM92.1448 18.0222C87.0114 18.0222 81.7559 21.7667 81.7559 24.4C82.2559 24.3667 82.7559 24.3556 83.2336 24.3556C89.3892 24.3556 93.8892 27.0111 92.667 34.3C99.1225 34.3 103.923 24.6667 97.367 19.6889C95.8114 18.5 93.9892 18.0222 92.1448 18.0222Z" fill="#231F20"/>
<path d="M92.8337 81.2556C93.3004 78.2556 92.8226 75.8778 91.4004 74.1889C89.8004 72.3001 86.9782 71.3001 83.2337 71.3001C82.8004 71.3001 82.3559 71.3112 81.9004 71.3445C82.1004 68.7778 87.2893 65.2556 92.1448 65.2556C94.1226 65.2556 95.8559 65.8112 97.2893 66.8889C100.045 68.9778 101.034 72.189 99.9226 75.489C98.8004 78.8334 95.9004 81.1778 92.8337 81.2556Z" fill="white"/>
<path d="M92.1448 65.3996C94.0892 65.3996 95.8003 65.944 97.2003 67.0107C99.9114 69.0663 100.867 72.2218 99.7892 75.4552C98.7114 78.6774 95.9448 80.9552 93.0003 81.1107C93.4336 78.144 92.9336 75.7885 91.5114 74.0996C89.8892 72.1774 87.0225 71.1663 83.2448 71.1663C82.867 71.1663 82.467 71.1774 82.067 71.1996C82.4336 68.7107 87.4448 65.3996 92.1448 65.3996ZM92.1448 65.1218C87.0114 65.1218 81.7559 68.8663 81.7559 71.4996C82.2559 71.4663 82.7559 71.4552 83.2336 71.4552C89.3892 71.4552 93.8892 74.1107 92.667 81.3996C99.1225 81.3996 103.923 71.7663 97.367 66.7885C95.8114 65.5996 93.9892 65.1218 92.1448 65.1218Z" fill="#231F20"/>
<path d="M92.5341 76.7671C92.1341 75.5004 91.3785 74.2893 90.223 73.0115C88.9563 71.6226 87.123 70.8782 84.9119 70.8782C83.4896 70.8782 82.323 71.1782 81.8896 71.3004V24.5226L82.3563 24.4782C83.1341 24.4004 83.9341 24.3337 84.7785 24.3337C86.2452 24.3337 88.4008 24.5449 90.2674 26.3226C92.9008 28.8449 92.5452 34.2337 92.5341 34.2893V76.7671Z" fill="white"/>
<path d="M84.7781 24.467C86.2225 24.467 88.3447 24.667 90.167 26.4225C92.7559 28.9003 92.4003 34.2225 92.3892 34.3003V76.0003C91.9447 74.9781 91.267 73.967 90.3225 72.9225C89.0336 71.5003 87.1559 70.7448 84.9114 70.7448C83.6336 70.7448 82.567 70.9781 82.0225 71.1225V24.6448L82.3559 24.6114C83.1447 24.5448 83.9336 24.467 84.7781 24.467ZM84.7781 24.1892C83.7003 24.1892 82.6781 24.3114 81.7559 24.3892V71.4892C81.7559 71.4892 83.1448 71.0114 84.9225 71.0114C86.6003 71.0114 88.6225 71.4337 90.1225 73.1003C91.8448 74.9892 92.467 76.5559 92.6781 78.0003V34.3003C92.6781 34.3003 93.0781 28.8225 90.367 26.2225C88.6336 24.567 86.6447 24.1892 84.7781 24.1892ZM92.667 78.0114V81.4003C92.7114 80.267 92.8336 79.167 92.667 78.0114Z" fill="#231F20"/>
<path d="M92.8115 34.4224C93.6337 34.3224 98.1337 33.5557 99.8782 29.3113V75.6446C99.8671 75.6668 98.4115 81.1335 92.8115 81.2557V34.4224Z" fill="white"/>
<path d="M99.7444 29.9448V75.6004C99.6111 76.1004 98.1666 80.9115 92.9444 81.1115V34.5448C93.9777 34.3893 97.9 33.5781 99.7444 29.9448ZM100.022 28.5115C98.4111 33.8337 92.6777 34.3004 92.6777 34.3004V81.4004C98.5777 81.367 100.022 75.6448 100.022 75.6448V28.5115Z" fill="#231F20"/>
<path d="M32.5664 83.7335V74.3224L36.2108 77.9668C38.8997 86.2668 44.7664 87.1668 47.1664 87.1668C47.522 87.1668 47.7664 87.1446 47.8886 87.1335L50.6997 89.9446L50.6553 99.7001L32.5664 83.7335Z" fill="white"/>
<path d="M32.6997 74.656L36.0552 78.0227C38.8108 86.4005 44.733 87.3116 47.1552 87.3116C47.4552 87.3116 47.6885 87.3005 47.8219 87.2894L50.4997 89.9671V99.3894L32.6997 83.6782V74.656ZM32.4219 73.9894V83.8005L50.7885 100V89.8449L47.933 86.9894C47.933 86.9894 47.6441 87.0338 47.1663 87.0338C45.033 87.0338 39.033 86.256 36.3108 77.8782L32.4219 73.9894Z" fill="#231F20"/>
<path d="M72.6338 71.4113V60.3779L76.2782 64.0224C78.9671 72.3224 84.8338 73.2224 87.2338 73.2224C87.5893 73.2224 87.8338 73.2002 87.956 73.189L90.7671 76.0002L90.7227 85.7668L72.6338 71.4113Z" fill="white"/>
<path d="M72.7778 60.7116L76.1333 64.0671C78.8889 72.4449 84.8111 73.356 87.2333 73.356C87.5333 73.356 87.7667 73.3449 87.9 73.3338L90.5778 76.0116V85.4783L72.7778 71.3449V60.7116ZM72.5 60.0449V71.4783L90.8667 86.056V75.9005L88.0111 73.0449C88.0111 73.0449 87.7222 73.0894 87.2444 73.0894C85.1111 73.0894 79.1111 72.3116 76.3889 63.9338L72.5 60.0449Z" fill="#231F20"/>
<path d="M50.9326 89.9448L90.7215 76.1004V85.956L50.9326 99.8004V89.9448Z" fill="white"/>
<path d="M90.5881 76.2893V85.8559L51.0659 99.6115V90.0448L90.5881 76.2893ZM90.8659 75.9004L50.7881 89.8448V100L90.8659 86.0559V75.9004Z" fill="#231F20"/>
<path d="M48.1885 87.0446L87.9663 73.2002L90.6107 75.8446L50.8218 89.678L48.1885 87.0446Z" fill="white"/>
<path d="M87.9326 73.3671L90.3548 75.7894L50.866 89.5227L48.4437 87.1005L87.9326 73.3671ZM88.0104 73.0449L47.9326 86.9894L50.7882 89.8449L90.866 75.9005L88.0104 73.0449Z" fill="#231F20"/>
<path d="M32.6777 74.0446L72.4555 60.2002L76.1222 63.8669L36.3444 77.7113L32.6777 74.0446Z" fill="white"/>
<path d="M72.4219 60.3671L75.8663 63.8116L36.3774 77.5449L32.933 74.1005L72.4219 60.3671ZM72.4997 60.0449L32.4219 73.9894L36.2997 77.8671L76.3774 63.9227L72.4997 60.0449Z" fill="#231F20"/>
<path d="M46.0998 87.0778C43.5775 87.0778 38.9887 85.889 36.4775 77.9556L76.2775 64.1112C76.5553 65.3334 78.722 73.2223 86.9998 73.2223C87.022 73.2223 87.0553 73.2223 87.0775 73.2223L47.8887 86.8556C47.8887 86.8556 47.1775 87.0778 46.0998 87.0778Z" fill="white"/>
<path d="M76.1776 64.2894C76.5776 65.8783 78.7776 72.9338 86.3109 73.3449L47.8554 86.7227C47.8442 86.7227 47.1554 86.9338 46.1109 86.9338C43.6442 86.9338 39.1554 85.7671 36.6554 78.0449L76.1776 64.2894ZM76.3776 63.9227L36.2998 77.8671C38.8331 85.9894 43.5109 87.2116 46.0998 87.2116C47.2109 87.2116 47.9331 86.9894 47.9331 86.9894L88.0109 73.0449C87.6665 73.0671 87.3331 73.0782 87.0109 73.0782C78.0776 73.0782 76.3776 63.9227 76.3776 63.9227Z" fill="#231F20"/>
</g>
<defs>
<clipPath id="clip0_212_361">
<rect width="100" height="100" fill="white" transform="translate(0.5)"/>
</clipPath>
</defs>
</svg>
