<svg width="101" height="100" viewBox="0 0 101 100" fill="none" xmlns="http://www.w3.org/2000/svg">
<g clip-path="url(#clip0_212_744)">
<path d="M0.599609 58.1553L0.632943 27.9887L9.53294 37.3331L11.5774 53.022V69.1331L0.599609 58.1553Z" fill="white"/>
<path d="M0.777778 28.3333L9.37778 37.3556L11.4444 53V68.8L0.777778 58.1333V28.3333ZM0.5 27.6444V58.2556L11.7222 69.4778V53L9.63333 37.2333L0.5 27.6444Z" fill="#231F20"/>
<path d="M77.5889 30.5109L77.6222 0.344238L86.5222 9.68868L88.5667 25.3776V41.4998L77.5889 30.5109Z" fill="white"/>
<path d="M77.767 0.688889L86.367 9.71111L88.4337 25.3444V41.1444L77.767 30.4778V0.688889ZM77.4893 0V30.6111L88.7115 41.8333V25.3556L86.6226 9.6L77.4893 0Z" fill="#231F20"/>
<path d="M0.744141 27.6998L77.4441 0.166504L86.3775 9.53317L9.67747 37.0776L0.744141 27.6998Z" fill="white"/>
<path d="M77.4111 0.322222L86.1333 9.47778L9.71111 36.9111L0.988889 27.7556L77.4111 0.322222ZM77.4889 0L0.5 27.6444L9.63333 37.2444L86.6222 9.6L77.4889 0Z" fill="#231F20"/>
<path d="M9.78906 37.3335L86.5113 9.78906L88.5557 25.2668L11.8335 52.8113L9.78906 37.3335Z" fill="white"/>
<path d="M86.3893 9.97787L88.4005 25.1779L11.9449 52.6223L9.9449 37.4223L86.3893 9.97787ZM86.6227 9.6001L9.63379 37.2334L11.7227 53.0001L88.7116 25.3557L86.6227 9.6001Z" fill="#231F20"/>
<path d="M11.8564 53.1001L88.5676 25.5557V41.7334L11.8564 69.2779V53.1001Z" fill="white"/>
<path d="M88.4227 25.7555V41.6332L11.9893 69.0777V53.1999L88.4227 25.7555ZM88.7004 25.3555L11.7227 52.9999V69.4777L88.7115 41.8333V25.3555H88.7004Z" fill="#231F20"/>
<path d="M35.1553 61.7442L35.1886 39.4776L41.7331 46.3442L43.2442 51.8442L43.2331 69.8331L35.1553 61.7442Z" fill="white"/>
<path d="M35.3334 39.8222L41.589 46.3889L43.1001 51.8444V69.4889L35.3334 61.7222V39.8222ZM35.0557 39.1333V61.8444L43.3779 70.1667V51.8111L41.8334 46.2556L35.0557 39.1333Z" fill="#231F20"/>
<path d="M92.2776 41.2331L92.3109 18.9665L98.8554 25.8331L100.366 31.3665V49.322L92.2776 41.2331Z" fill="white"/>
<path d="M92.4558 19.3111L98.7113 25.8778L100.222 31.3667V48.9889L92.4558 41.2222V19.3111ZM92.178 18.6222V41.3333L100.5 49.6556V31.3222L98.9558 25.7333L92.178 18.6222Z" fill="#231F20"/>
<path d="M35.2998 39.1891L92.1331 18.778L98.7109 25.678L41.8665 46.0891L35.2998 39.1891Z" fill="white"/>
<path d="M92.1001 18.9444L98.4668 25.6222L41.9112 45.9222L35.5446 39.2444L92.1001 18.9444ZM92.1779 18.6222L35.0557 39.1333L41.8334 46.2556L98.9557 25.7444L92.1779 18.6222Z" fill="#231F20"/>
<path d="M42 46.3336L98.8667 25.9225L100.333 31.2447L43.4667 51.6225L42 46.3336Z" fill="white"/>
<path d="M98.7663 26.1002L100.166 31.1558L43.5663 51.4447L42.1663 46.4224L98.7663 26.1002ZM98.9552 25.7336L41.833 46.2447L43.3775 51.8002L100.5 31.3224L98.9552 25.7336Z" fill="#231F20"/>
<path d="M43.5117 51.9002L100.367 31.5224V49.5557L43.5117 69.9669V51.9002Z" fill="white"/>
<path d="M100.222 31.7222V49.4555L43.6557 69.7667V52L100.222 31.7222ZM100.5 31.3222L43.3779 51.8111V70.1667L100.5 49.6556V31.3222Z" fill="#231F20"/>
<path d="M18.4668 83.9V71.3333L32.989 84.0889L47.7112 87.6778V99.7667L18.4668 83.9Z" fill="white"/>
<path d="M18.6 71.6333L32.9 84.1889L32.9556 84.2333L33.0223 84.2444L47.5667 87.7778V99.5222L18.6 83.8222V71.6333ZM18.3223 71.0222V83.9889L47.8445 100V87.5667L33.0889 83.9889L18.3223 71.0222Z" fill="#231F20"/>
<path d="M60.1445 69.411V56.8444L74.6779 69.5999L89.389 73.1888V85.2777L60.1445 69.411Z" fill="white"/>
<path d="M60.2885 57.1444L74.5885 69.7L74.6441 69.7444L74.7107 69.7556L89.2552 73.2889V85.0333L60.2885 69.3333V57.1444ZM60.0107 56.5333V69.5L89.533 85.5111V73.0778L74.7774 69.5L60.0107 56.5333Z" fill="#231F20"/>
<path d="M47.989 87.6667L89.389 73.2778V85.4111L47.989 99.8V87.6667Z" fill="white"/>
<path d="M89.2556 73.4667V85.3111L48.1223 99.6111V87.7667L89.2556 73.4667ZM89.5334 73.0778L47.8445 87.5667V100L89.5334 85.5111V73.0778Z" fill="#231F20"/>
<path d="M18.5996 71.078L59.9774 56.6891L74.4996 69.4447L33.1107 83.8335L18.5996 71.078Z" fill="white"/>
<path d="M59.9445 56.8556L74.2223 69.4L33.1445 83.6667L18.8667 71.1333L59.9445 56.8556ZM60.0112 56.5333L18.3223 71.0222L33.0778 83.9889L74.7667 69.5L60.0112 56.5333Z" fill="#231F20"/>
<path d="M33.5781 83.9666L74.8115 69.6333L89.0448 73.1L47.8337 87.4222L33.5781 83.9666Z" fill="white"/>
<path d="M74.7889 69.7889L88.5555 73.1333L47.8333 87.2778L34.0666 83.9333L74.7889 69.7889ZM74.7666 69.5L33.0889 83.9889L47.8444 87.5667L89.5333 73.0778L74.7666 69.5Z" fill="#231F20"/>
</g>
<defs>
<clipPath id="clip0_212_744">
<rect width="100" height="100" fill="white" transform="translate(0.5)"/>
</clipPath>
</defs>
</svg>
