<svg width="56" height="46" viewBox="0 0 56 46" fill="none" xmlns="http://www.w3.org/2000/svg">
<path fill-rule="evenodd" clip-rule="evenodd" d="M9.24111 46L0 32.4254L20.1976 0H35.8024L56 32.4254L46.7589 46H9.24111ZM11.8419 19.2606L16.9328 27.8151L25.2332 13.3697L20.585 5.27616L11.8419 19.2606ZM15.1621 30.8886L10.0158 22.1804L3.65218 32.3229L9.40711 40.7751L15.1621 30.8886ZM19.1462 30.1203L34.8063 30.069L27.0039 16.4432L19.1462 30.1203ZM38.3478 30.069H50.9644L41.8893 15.5724L29.9921 15.6236L38.3478 30.069ZM52.0158 32.9376H40.0079L45.4862 42.4655L52.0158 32.9376ZM36.4664 32.9889L17.4862 33.0401L11.6759 43.1314H42.2767L36.4664 32.9889ZM28.3873 12.7038L40.1739 12.6526L34.087 2.86859H22.7431L28.3873 12.7038Z" fill="white"/>
<path fill-rule="evenodd" clip-rule="evenodd" d="M42.0187 15.5362L51.1125 30.0986H38.4145L30.097 15.5875L42.0187 15.5362Z" fill="#F37021"/>
</svg>
