<svg width="165" height="83" viewBox="0 0 165 83" fill="none" xmlns="http://www.w3.org/2000/svg">
<path fill-rule="evenodd" clip-rule="evenodd" d="M9.18883 61.7952H11.6583L20.56 82.4885H18.3202L15.3913 75.4391H5.16872L2.23977 82.4885H0L9.18883 61.7952ZM10.28 63.785L6.0876 73.4494H14.5298L10.28 63.785ZM44.9678 68.1624C44.9678 69.1288 44.7956 69.9816 44.5084 70.7775C44.2213 71.5734 43.7618 72.2556 43.1875 72.8241C42.6132 73.3926 41.924 73.7905 41.12 74.1316C40.316 74.4158 39.4545 74.5864 38.5357 74.5864L44.5658 82.4885H42.0963L34.9176 73.0515C36.3533 73.0515 37.6168 72.9378 38.6505 72.7672C39.6843 72.5967 40.5457 72.2556 41.1775 71.8576C41.8092 71.4597 42.3261 70.948 42.6132 70.3227C42.9578 69.6973 43.0727 68.9014 43.1301 67.9919C43.1301 66.9686 42.8429 66.1158 42.2112 65.4905C41.5795 64.8083 40.7754 64.3535 39.7417 64.0692C38.708 63.785 37.5594 63.6144 36.2959 63.6144H32.7352V82.4885H30.7252V61.7952H35.8364C37.5593 61.7952 38.9951 61.9658 40.1437 62.3069C41.3497 62.648 42.2686 63.1028 42.9578 63.7281C43.6469 64.2966 44.1638 64.9788 44.5084 65.7747C44.7956 66.5706 44.9678 67.3665 44.9678 68.1624ZM58.7511 82.4316V63.5007H53.8695V61.7384H65.6427V63.5007H60.7611V82.4316H58.7511Z" fill="white"/>
<path fill-rule="evenodd" clip-rule="evenodd" d="M81.3814 61.795C83.2192 61.795 84.655 62.2498 85.7461 63.2163C86.8373 64.1259 87.4116 65.3766 87.5265 66.9684C87.5265 67.7642 87.4116 68.4464 87.1819 69.0149C86.9522 69.5834 86.6076 70.0951 86.2056 70.493C85.8036 70.891 85.2867 71.2321 84.7124 71.5732C85.2867 71.6869 85.8036 71.8574 86.263 72.1417C86.7225 72.4259 87.1819 72.767 87.5265 73.2218C87.8711 73.6766 88.1582 74.1314 88.3879 74.6999C88.6176 75.2684 88.6751 75.8369 88.6751 76.4622C88.6751 77.2013 88.5602 77.9403 88.2156 78.6225C87.9285 79.3047 87.5265 79.9869 86.9522 80.5554C86.3779 81.1239 85.6887 81.6355 84.8847 81.9766C84.0232 82.3177 83.1618 82.4883 82.128 82.4883H75.4087V61.795H81.3814ZM77.4762 63.7848V70.6067H81.0369C82.3578 70.6067 83.3915 70.3225 84.1955 69.8108C84.9995 69.2992 85.459 68.3327 85.5738 66.9684C85.5738 65.7177 85.2293 64.9218 84.4827 64.467C83.7935 64.0122 82.7598 63.7848 81.4389 63.7848H77.4762ZM77.4762 72.5965V80.5554H82.4152C83.1043 80.5554 83.7935 80.3849 84.4827 80.1006C85.1144 79.8164 85.6887 79.3616 86.0907 78.7931C86.4927 78.1677 86.7225 77.4287 86.7225 76.5191C86.7225 75.6663 86.4927 74.9273 86.0333 74.3588C85.5738 73.7903 84.9421 73.3355 84.1381 73.0513C83.3341 72.767 82.3578 72.5965 81.324 72.5965H77.4762ZM113.715 68.1622C113.715 69.1286 113.542 69.9814 113.255 70.7773C112.968 71.5732 112.509 72.2554 111.934 72.8239C111.36 73.3924 110.671 73.7903 109.867 74.1314C109.063 74.4156 108.201 74.5862 107.282 74.5862L113.313 82.4883H110.843L103.664 73.0513C105.1 73.0513 106.364 72.9376 107.397 72.767C108.431 72.5965 109.293 72.2554 109.924 71.8574C110.556 71.4595 111.073 70.9478 111.36 70.3225C111.705 69.6971 111.819 68.9013 111.877 67.9917C111.877 66.9684 111.59 66.1156 110.958 65.4903C110.326 64.8081 109.522 64.3533 108.489 64.069C107.455 63.7848 106.306 63.6142 105.043 63.6142H101.482V82.4883H99.472V61.795H104.583C106.306 61.795 107.742 61.9656 108.891 62.3067C110.097 62.6478 111.015 63.1026 111.705 63.7279C112.394 64.2964 112.911 64.9786 113.255 65.7745C113.542 66.5704 113.715 67.3663 113.715 68.1622ZM124.569 75.8937V61.795H126.809V75.8369C126.809 76.8033 127.038 77.6561 127.498 78.452C127.957 79.2479 128.532 79.8732 129.278 80.2711C130.025 80.7259 130.771 80.9534 131.518 81.0102C132.379 81.0102 133.183 80.7828 133.988 80.3849C134.792 79.9869 135.423 79.3616 135.883 78.6225C136.342 77.8835 136.629 76.9739 136.629 76.0074V61.795H138.869V76.0643C138.869 77.4287 138.525 78.6794 137.835 79.7027C137.146 80.7828 136.285 81.5787 135.136 82.1472C134.045 82.7157 132.839 82.9999 131.633 82.9999C130.484 82.9999 129.393 82.7157 128.359 82.204C127.326 81.6924 126.522 80.8965 125.832 79.8164C125.086 78.7931 124.684 77.4855 124.569 75.8937ZM150.757 82.4883V61.795H152.767V73.4492L162.301 61.795H164.77L156.902 71.5732L165 82.4314H162.301L155.409 73.165L152.71 76.4622V82.4314H150.757V82.4883Z" fill="white"/>
<path fill-rule="evenodd" clip-rule="evenodd" d="M63.0086 51.0509L53.4177 35.9857L74.3798 0H90.5751L111.537 35.9857L101.946 51.0509H63.0086ZM65.7078 21.3754L70.9914 30.8693L79.6059 14.8377L74.7818 5.85549L65.7078 21.3754ZM69.1536 34.2803L63.8126 24.6158L57.2081 35.8721L63.1809 45.2522L69.1536 34.2803ZM73.2886 33.4275L89.5413 33.3707L81.4437 18.2487L73.2886 33.4275ZM93.2169 33.3707H106.311L96.8924 17.2823L84.5449 17.3391L93.2169 33.3707ZM107.402 36.5542H94.9398L100.625 47.1283L107.402 36.5542ZM91.2642 36.6111L71.5657 36.6679L65.5355 47.8673H97.2944L91.2642 36.6111ZM82.8794 14.0987L95.1121 14.0418L88.7947 3.18357H77.0215L82.8794 14.0987Z" fill="white"/>
<path fill-rule="evenodd" clip-rule="evenodd" d="M96.9378 17.2251L106.356 33.3704H93.2049L84.5903 17.282L96.9378 17.2251Z" fill="#F37021"/>
</svg>
