<svg width="101" height="100" viewBox="0 0 101 100" fill="none" xmlns="http://www.w3.org/2000/svg">
<g clip-path="url(#clip0_212_1217)">
<path d="M72.0891 49.522C69.8224 48.7664 64.3113 45.1775 63.2669 40.2553C62.0113 34.3664 66.0891 24.9109 77.0113 22.4775C79.2336 21.9775 81.3558 21.7331 83.3336 21.7331C89.4113 21.7331 94.2669 24.0442 98.1669 28.7886C100.667 31.8331 100.945 38.4109 99.278 40.5553C96.9335 39.6887 94.2447 39.2331 91.4669 39.2331C84.178 39.222 75.378 42.4109 72.0891 49.522Z" fill="white"/>
<path d="M83.3336 21.8775C89.367 21.8775 94.1892 24.1664 98.0558 28.8775C100.489 31.8442 100.8 38.2109 99.2225 40.3886C96.8892 39.5442 94.2114 39.0886 91.467 39.0886C84.167 39.0886 75.367 42.2664 72.0114 49.3553C69.7003 48.5331 64.4225 45.022 63.4003 40.2331C62.1558 34.3998 66.2114 25.0442 77.0447 22.622C79.2558 22.1331 81.367 21.8775 83.3336 21.8775ZM83.3336 21.5998C81.4225 21.5998 79.3114 21.8331 76.9892 22.3442C66.2336 24.7442 61.8114 34.0553 63.1336 40.2886C64.2336 45.422 69.967 49.022 72.167 49.6998C75.1558 43.0886 83.5003 39.3664 91.467 39.3664C94.2003 39.3664 96.9003 39.7998 99.3225 40.7109C101.145 38.5553 100.823 31.7998 98.2781 28.6886C95.5114 25.3331 91.0447 21.5998 83.3336 21.5998Z" fill="#231F20"/>
<path d="M72.0893 30.4331C69.8226 29.6775 64.3115 26.0887 63.267 21.1664C61.8781 14.6331 66.8893 9.58866 77.0115 7.32199C79.2337 6.82199 81.3559 6.57755 83.3337 6.57755C89.4115 6.57755 94.267 8.88866 98.167 13.6331C100.634 16.6331 101.011 19.3331 99.2781 21.4553C96.9337 20.5887 94.2448 20.1331 91.467 20.1331C84.1781 20.1331 75.3781 23.3109 72.0893 30.4331Z" fill="white"/>
<path d="M83.3336 6.43311V6.71088C89.367 6.71088 94.1892 8.99977 98.0558 13.7109C100.445 16.6109 100.845 19.2331 99.2225 21.2887C96.8892 20.4442 94.2114 19.9887 91.4558 19.9887C84.1558 19.9887 75.3558 23.1664 72.0003 30.2553C69.6892 29.4331 64.4114 25.922 63.3892 21.1331C62.0114 14.6887 66.9892 9.69977 77.0336 7.45533C79.2447 6.96644 81.3558 6.71088 83.3225 6.71088L83.3336 6.43311ZM83.3336 6.43311C81.4225 6.43311 79.3114 6.66644 76.9892 7.17755C66.2336 9.57755 61.8114 14.9553 63.1336 21.1776C64.2336 26.3109 69.967 29.9109 72.167 30.5887C75.1558 23.9776 83.5003 20.2553 91.467 20.2553C94.2003 20.2553 96.9003 20.6887 99.3225 21.5998C101.145 19.4442 100.823 16.622 98.2781 13.522C95.5114 10.1776 91.0447 6.43311 83.3336 6.43311Z" fill="#231F20"/>
<path d="M72.7452 24.0998C71.1341 23.6109 68.0786 21.3998 67.8341 18.1664C67.5341 14.3442 70.6564 11.7331 77.6675 9.95531C79.5119 9.48864 81.3008 9.25531 82.9897 9.25531C88.2341 9.25531 91.523 11.4553 93.3564 13.3109C95.023 14.9886 95.6008 16.2998 95.123 17.3109C93.9119 16.9331 92.4341 16.7331 90.723 16.7331C84.0564 16.7331 75.0786 19.7442 72.7452 24.0998Z" fill="white"/>
<path d="M82.9892 9.39979C88.1892 9.39979 91.4448 11.5776 93.267 13.4109C94.8226 14.9776 95.4114 16.1998 95.0559 17.1442C93.8559 16.7776 92.4003 16.5998 90.7337 16.5998C84.067 16.5998 75.1226 19.5998 72.6892 23.9442C71.0892 23.4109 68.2226 21.2665 67.9781 18.1665C67.6892 14.422 70.7781 11.8665 77.7114 10.0998C79.5337 9.63312 81.3114 9.39979 82.9892 9.39979ZM82.9892 9.12201C81.3559 9.12201 79.5781 9.33312 77.6337 9.83312C70.5226 11.6331 67.4003 14.3442 67.7003 18.1887C67.9781 21.6998 71.367 23.8887 72.8226 24.2665C75.0226 19.9553 84.0115 16.8665 90.7337 16.8665C92.4115 16.8665 93.9448 17.0553 95.2003 17.4776C95.7003 16.5776 95.5226 15.2998 93.4559 13.2109C91.267 11.0109 87.8003 9.12201 82.9892 9.12201Z" fill="#231F20"/>
<path d="M72.3008 30.5998C72.3341 30.5664 77.7674 20.5775 90.9674 20.5775C93.5674 20.5775 96.323 20.9664 99.1786 21.722V40.5109C98.5008 40.2775 96.0452 39.5442 92.623 39.5442C87.4008 39.5442 79.6563 41.2553 72.3008 49.322V30.5998Z" fill="white"/>
<path d="M90.9674 20.7109C93.5229 20.7109 96.234 21.0887 99.0451 21.8331V40.322C98.1674 40.0442 95.8451 39.4109 92.634 39.4109C87.434 39.4109 79.7674 41.0887 72.4451 48.9776V30.6664C72.9118 29.8553 78.3785 20.7109 90.9674 20.7109ZM90.9674 20.4331C77.5118 20.4331 72.1562 30.5998 72.1562 30.5998V49.6998C79.5118 41.4664 87.2896 39.6998 92.6229 39.6998C96.6674 39.6998 99.3118 40.722 99.3118 40.722V21.622C96.2451 20.7887 93.4674 20.4331 90.9674 20.4331Z" fill="#231F20"/>
<path d="M67.8332 46.9776C66.8332 46.0776 64.5776 43.3776 64.5554 43.3553L64.5888 24.7331C65.2554 25.522 67.0887 27.6665 67.8332 28.2553V46.9776Z" fill="white"/>
<path d="M64.7221 25.0998C65.4999 26.0109 66.9888 27.722 67.6888 28.3109V46.6553C66.7332 45.722 65.0666 43.7553 64.7221 43.3331V25.0998ZM64.4443 24.3442V43.4442C64.4443 43.4442 67.1221 46.6442 67.9666 47.2776V28.1776C67.1221 27.5554 64.4443 24.3442 64.4443 24.3442Z" fill="#231F20"/>
<path d="M64.3007 42.9999C63.734 42.0332 63.2673 40.2776 63.2673 40.2554V22.2888C63.6562 23.3888 64.2896 24.3665 64.3229 24.4221L64.3007 42.9999Z" fill="white"/>
<path d="M63.4113 22.9998C63.7113 23.6775 64.0447 24.2331 64.1669 24.422V42.422C63.7669 41.5553 63.4669 40.4553 63.4113 40.2442V22.9998ZM63.1335 21.1887V40.2887C63.1335 40.2887 63.7335 42.6109 64.4447 43.4442V24.3442C64.4447 24.3442 63.3335 22.6331 63.1335 21.1887Z" fill="#231F20"/>
<path d="M99.4558 21.6998C99.8225 21.4553 100.122 20.4776 100.334 19.5331V36.6331C100.5 37.9664 99.8447 39.4553 99.4558 40.1887V21.6998Z" fill="white"/>
<path d="M100.189 20.6664V36.6664C100.322 37.6776 99.9446 38.7998 99.5891 39.5887V21.822C99.7557 21.6998 99.9668 21.3998 100.189 20.6664ZM100.467 18.0331C100.467 18.0331 99.9002 21.622 99.3446 21.622C99.3335 21.622 99.3224 21.622 99.3113 21.622V40.722C99.3113 40.722 100.711 38.5331 100.467 36.6331V18.0331Z" fill="#231F20"/>
<path d="M72.8225 24.2664V11.4553" stroke="#231F20" stroke-width="0.25" stroke-miterlimit="10"/>
<path d="M69.0889 21.5996V14.0107" stroke="#231F20" stroke-width="0.25" stroke-miterlimit="10"/>
<path d="M77.2336 20.2664V9.93311" stroke="#231F20" stroke-width="0.25" stroke-miterlimit="10"/>
<path d="M82.834 18.0332V9.12207" stroke="#231F20" stroke-width="0.25" stroke-miterlimit="10"/>
<path d="M87.7783 17.0444V9.81104" stroke="#231F20" stroke-width="0.25" stroke-miterlimit="10"/>
<path d="M91.2891 16.8775V11.4553" stroke="#231F20" stroke-width="0.25" stroke-miterlimit="10"/>
<path d="M94.3225 14.1664V17.2331" stroke="#231F20" stroke-width="0.25" stroke-miterlimit="10"/>
<path d="M20.9 35.1333L20.9444 33.6889L13.6 26.2889L11.9 26.2444L9.47778 23.7667L47.8667 12.2333L50.1889 14.5556L50.1444 17.0667L57.2222 24.2L59.0556 24.2444L61.4778 26.7222L24.1556 38.3889L20.9 35.1333Z" fill="white"/>
<path d="M47.8223 12.3889L50.0001 14.5667V17.0667V17.1778L50.0778 17.2556L57.1112 24.2889L57.189 24.3667H57.3001H58.9223L61.2001 26.6445L24.2001 38.2222L21.089 35.1111V33.6889V33.5778L21.0112 33.5L13.7112 26.2L13.6334 26.1222H13.5223H12.0334L9.76674 23.8556L47.8223 12.3889ZM47.9001 12.0778L9.21118 23.7L11.889 26.3778H13.5001L20.8001 33.6778V35.2222L24.1112 38.5333L61.7223 26.7778L59.0445 24.1H57.3001L50.2667 17.0667V14.4556L47.9001 12.0778Z" fill="#231F20"/>
<path d="M20.9 57.3667L20.9444 55.9222L13.6 48.5222L11.9 48.4889L9.47778 46.0111L47.8667 34.4778L50.1889 36.8L50.1444 39.3111L57.2222 46.4444L59.0556 46.4889L61.4778 48.9556L24.1556 60.6222L20.9 57.3667Z" fill="white"/>
<path d="M47.8223 34.6333L50.0001 36.8111V39.3111V39.4222L50.0778 39.5L57.1112 46.5333L57.189 46.6111H57.3001H58.9223L61.2001 48.8889L24.2001 60.4667L21.089 57.3556V55.9333V55.8222L21.0112 55.7445L13.7112 48.4445L13.6334 48.3667H13.5223H12.0334L9.76674 46.1L47.8223 34.6333ZM47.9001 34.3222L9.21118 45.9445L11.889 48.6222H13.5001L20.8001 55.9222V57.4667L24.1112 60.7778L61.7223 49.0222L59.0445 46.3445H57.3001L50.2667 39.3111V36.7L47.9001 34.3222Z" fill="#231F20"/>
<path d="M20.8997 57.3668L20.9441 35.5557L24.0219 38.6446L23.9885 60.4446L20.8997 57.3668Z" fill="white"/>
<path d="M21.0886 35.9001L23.8441 38.6557V60.1112L21.0886 57.3556V35.9001ZM20.8108 35.2223V57.4668L24.1219 60.7779V38.5445L20.8108 35.2223Z" fill="#231F20"/>
<path d="M24.2561 38.6445L61.6005 26.9779V48.9223L24.2561 60.6001V38.6445Z" fill="white"/>
<path d="M61.4556 27.1667V48.8222L24.4001 60.4V38.7445L61.4556 27.1667ZM61.7334 26.7889L24.1223 38.5445V60.7889L61.7334 49.0334V26.7889Z" fill="#231F20"/>
<path d="M9.31079 45.8446L9.35524 24.0335L11.7997 26.478L11.7552 48.2891L9.31079 45.8446Z" fill="white"/>
<path d="M9.48896 24.3778L11.6112 26.5V47.9556L9.48896 45.8333V24.3778ZM9.21118 23.7V45.9445L11.889 48.6222V26.3778L9.21118 23.7Z" fill="#231F20"/>
<path d="M13.5996 48.522L13.6441 26.722L20.7107 33.7887L20.6663 55.5887L13.5996 48.522Z" fill="white"/>
<path d="M13.7778 27.0556L20.5222 33.8V55.2556L13.7778 48.5111V27.0556ZM13.5 26.3778V48.6222L20.8 55.9222V33.6889L13.5 26.3778Z" fill="#231F20"/>
<path d="M13.3668 26.5222H12.0334V48.4889H13.3668V26.5222Z" fill="white"/>
<path d="M13.2222 26.6556V48.3444H12.1667V26.6556H13.2222ZM13.5 26.3778H11.8889V48.6222H13.5V26.3778Z" fill="#231F20"/>
<path d="M17.3997 25.3555C22.4885 23.1889 26.4441 22.8666 28.3552 22.8666C28.9552 22.8666 29.2885 22.9 29.2997 22.9L35.9552 29.6C33.7663 31.9111 27.3219 33.9222 26.533 34.1666L17.3997 25.3555Z" fill="white"/>
<path d="M28.3555 23.0111C28.7666 23.0111 29.0444 23.0222 29.1889 23.0333L35.7555 29.6C33.5666 31.7778 27.6111 33.6889 26.5666 34L17.6444 25.3889C22.6222 23.3222 26.4777 23.0111 28.3555 23.0111ZM28.3555 22.7333C26.5777 22.7333 22.4444 23.0333 17.1555 25.3111L26.5 34.3222C26.5 34.3222 33.8666 32.1444 36.1444 29.6L29.3111 22.7667C29.3111 22.7667 28.9777 22.7333 28.3555 22.7333Z" fill="#231F20"/>
<path d="M29.3108 22.7668V33.3668" stroke="#231F20" stroke-width="0.25" stroke-miterlimit="10"/>
<path d="M42.4329 27.6668L35.6663 20.8557C38.7663 17.8112 44.1885 16.6779 44.8663 16.5446L53.5885 25.2668C48.8996 27.5557 43.6774 27.6668 42.6663 27.6668H42.4329Z" fill="white"/>
<path d="M44.8333 16.7L53.3667 25.2334C48.7445 27.4222 43.6778 27.5334 42.6778 27.5334C42.6222 27.5334 42.5889 27.5334 42.5556 27.5334L35.8778 20.8556C38.8667 18 43.9222 16.8889 44.8333 16.7ZM44.9222 16.4C44.9222 16.4 38.8222 17.4667 35.4778 20.8556L42.4333 27.8111C42.4333 27.8111 42.5222 27.8111 42.6778 27.8111C43.8556 27.8111 49.1111 27.6667 53.8333 25.3111L44.9222 16.4Z" fill="#231F20"/>
<path d="M44.9224 16.4V27.7" stroke="#231F20" stroke-width="0.25" stroke-miterlimit="10"/>
<path d="M9.31079 82.9554L9.35524 52.6776L18.2886 62.0554L20.333 77.7998V93.9665L9.31079 82.9554Z" fill="white"/>
<path d="M9.48896 53.0222L18.1223 62.0778L20.2001 77.7778V93.6333L9.50007 82.9333V53.0222M9.21118 52.3333V83.0556L20.4667 94.3111V77.7778L18.389 61.9556L9.21118 52.3333Z" fill="#231F20"/>
<path d="M86.5667 55.2109L86.6111 24.9442L95.5333 34.322L97.5889 50.0554V66.2331L86.5667 55.2109Z" fill="white"/>
<path d="M86.7448 25.2889L95.3781 34.3445L97.4559 50.0333V65.8889L86.7559 55.1889V25.2889M86.467 24.6V55.3222L97.7226 66.5667V50.0445L95.6337 34.2222L86.467 24.6Z" fill="#231F20"/>
<path d="M9.46704 52.3891L86.4337 24.7558L95.3893 34.1669L18.4226 61.8002L9.46704 52.3891Z" fill="white"/>
<path d="M86.389 24.9222L95.1445 34.1111L18.4667 61.6333L9.71118 52.4445L86.389 24.9222ZM86.4667 24.6L9.21118 52.3333L18.3778 61.9556L95.6334 34.2222L86.4667 24.6Z" fill="#231F20"/>
<path d="M18.5334 62.0556L95.5223 34.4111L97.5779 49.9445L20.589 77.5889L18.5334 62.0556Z" fill="white"/>
<path d="M95.4111 34.6L97.4223 49.8556L20.7 77.4L18.6889 62.1445L95.4111 34.6ZM95.6334 34.2222L18.3889 61.9556L20.4778 77.7778L97.7223 50.0445L95.6334 34.2222Z" fill="#231F20"/>
<path d="M20.6116 77.8779L97.5894 50.2334V66.4668L20.6116 94.1112V77.8779Z" fill="white"/>
<path d="M97.4445 50.4334V66.3667L20.7556 93.9111V77.9667L97.4445 50.4334ZM97.7222 50.0445L20.4778 77.7778V94.3111L97.7222 66.5667V50.0445Z" fill="#231F20"/>
<path d="M69.5112 64.3667L92.3001 60.6334L100.267 72.7445L76.4334 77L69.5112 64.3667Z" fill="white"/>
<path d="M92.2334 60.7889L100.044 72.6445L76.5001 76.8445L69.7334 64.4667L92.2334 60.7889ZM92.3667 60.4889L69.3 64.2667L76.3556 77.1556L100.5 72.8445L92.3667 60.4889Z" fill="#231F20"/>
<path d="M76.4775 77.2667L100.322 73.0112L99.0775 79.6778L75.2219 83.9334L76.4775 77.2667Z" fill="white"/>
<path d="M100.155 73.1889L98.9553 79.5556L75.3998 83.7556L76.5997 77.3889L100.155 73.1889ZM100.5 72.8445L76.3553 77.1556L75.0442 84.1111L99.1886 79.8L100.5 72.8445Z" fill="#231F20"/>
<path d="M68.1108 71.1334L69.3664 64.6667L76.2331 77.2223L74.9886 83.7L68.1108 71.1334Z" fill="white"/>
<path d="M69.433 65.0778L76.0663 77.2L74.9219 83.2889L68.2885 71.1556L69.433 65.0778ZM69.2996 64.2556L67.9885 71.2L75.0441 84.1L76.3552 77.1445L69.2996 64.2556Z" fill="#231F20"/>
<path d="M72.033 66.0557C71.8997 66.0335 71.7886 65.9557 71.7219 65.8557C71.6442 65.7446 71.6219 65.6112 71.6442 65.489C71.6886 65.2557 71.8886 65.089 72.1219 65.089C72.4775 65.1446 72.6553 65.4112 72.5997 65.6668C72.5553 65.9001 72.3553 66.0668 72.1219 66.0668C72.0886 66.0668 72.0664 66.0668 72.033 66.0557Z" fill="white"/>
<path d="M72.1216 65.2223C72.1438 65.2223 72.166 65.2223 72.1882 65.2334C72.3771 65.2667 72.4994 65.4556 72.466 65.6445C72.4327 65.8112 72.2882 65.9334 72.1216 65.9334C72.0994 65.9334 72.0771 65.9334 72.0549 65.9223C71.966 65.9 71.8771 65.8556 71.8327 65.7778C71.7882 65.7 71.7549 65.6112 71.7771 65.5112C71.8105 65.3445 71.9549 65.2223 72.1216 65.2223ZM72.1216 64.9445C71.8216 64.9445 71.5549 65.1556 71.4994 65.4556C71.4327 65.8 71.6549 66.1223 71.9994 66.1889C72.0438 66.2 72.0771 66.2 72.1216 66.2C72.4216 66.2 72.6882 65.9889 72.7438 65.6889C72.8105 65.3445 72.5882 65.0223 72.2438 64.9556C72.1994 64.9445 72.1549 64.9445 72.1216 64.9445Z" fill="#231F20"/>
<path d="M75.6997 68.0334C75.5664 68.0111 75.4553 67.9334 75.3886 67.8334C75.3219 67.7334 75.2886 67.5889 75.3108 67.4667C75.3553 67.2334 75.5553 67.0667 75.7886 67.0667C76.1441 67.1223 76.3219 67.3889 76.2664 67.6445C76.2219 67.8778 76.0219 68.0445 75.7886 68.0445C75.7664 68.0445 75.733 68.0445 75.6997 68.0334Z" fill="white"/>
<path d="M75.7886 67.2C75.8108 67.2 75.833 67.2 75.8552 67.2111C75.9441 67.2334 76.033 67.2778 76.0775 67.3556C76.1219 67.4334 76.1552 67.5223 76.133 67.6223C76.0997 67.7889 75.9552 67.9111 75.7886 67.9111C75.7664 67.9111 75.7441 67.9111 75.7219 67.9C75.633 67.8778 75.5441 67.8334 75.4997 67.7556C75.4552 67.6778 75.4219 67.5889 75.4441 67.4889C75.4775 67.3223 75.6219 67.2 75.7886 67.2ZM75.7886 66.9223C75.4886 66.9223 75.2219 67.1334 75.1663 67.4334C75.0997 67.7778 75.3219 68.1 75.6664 68.1667C75.7108 68.1778 75.7441 68.1778 75.7886 68.1778C76.0886 68.1778 76.3552 67.9667 76.4108 67.6667C76.4775 67.3223 76.2552 67 75.9108 66.9334C75.8664 66.9223 75.833 66.9223 75.7886 66.9223Z" fill="#231F20"/>
<path d="M74.7667 70.9333C74.5001 70.8778 74.3223 70.6222 74.3779 70.3556C74.4223 70.1222 74.6223 69.9556 74.8556 69.9556C75.2112 70.0111 75.389 70.2667 75.3334 70.5333C75.289 70.7667 75.089 70.9333 74.8556 70.9333C74.8334 70.9333 74.8001 70.9333 74.7667 70.9333Z" fill="white"/>
<path d="M74.8552 70.1C74.8774 70.1 74.8997 70.1 74.9219 70.1112C75.0108 70.1334 75.0997 70.1778 75.1441 70.2556C75.1886 70.3334 75.2219 70.4223 75.1997 70.5223C75.1663 70.6889 75.0219 70.8112 74.8552 70.8112C74.833 70.8112 74.8108 70.8112 74.7886 70.8C74.6997 70.7778 74.6108 70.7334 74.5663 70.6556C74.5219 70.5778 74.4886 70.4889 74.5108 70.3889C74.5441 70.2112 74.6886 70.1 74.8552 70.1ZM74.8552 69.8223C74.5552 69.8223 74.2886 70.0334 74.233 70.3334C74.1663 70.6778 74.3886 71 74.733 71.0667C74.7774 71.0778 74.8108 71.0778 74.8552 71.0778C75.1552 71.0778 75.4219 70.8667 75.4774 70.5667C75.5441 70.2223 75.3219 69.9 74.9774 69.8334C74.933 69.8223 74.8997 69.8223 74.8552 69.8223Z" fill="#231F20"/>
<path d="M78.1779 72.5778C77.9112 72.5333 77.7334 72.2667 77.789 72C77.8334 71.7667 78.0334 71.6 78.2668 71.6C78.489 71.6333 78.6001 71.7 78.6779 71.8111C78.7557 71.9222 78.7779 72.0556 78.7557 72.1778C78.7112 72.4111 78.5112 72.5778 78.2779 72.5778C78.2445 72.5889 78.2112 72.5889 78.1779 72.5778Z" fill="white"/>
<path d="M78.2664 71.7445C78.2886 71.7445 78.3108 71.7445 78.333 71.7556C78.4219 71.7778 78.5108 71.8223 78.5552 71.9C78.5997 71.9778 78.633 72.0667 78.6108 72.1667C78.5775 72.3334 78.433 72.4556 78.2664 72.4556C78.2441 72.4556 78.2219 72.4556 78.1997 72.4445C78.0108 72.4111 77.8886 72.2223 77.9219 72.0334C77.9552 71.8667 78.0997 71.7445 78.2664 71.7445ZM78.2664 71.4667C77.9664 71.4667 77.6997 71.6778 77.6441 71.9778C77.5775 72.3223 77.7997 72.6445 78.1441 72.7112C78.1886 72.7223 78.2219 72.7223 78.2664 72.7223C78.5664 72.7223 78.833 72.5111 78.8886 72.2111C78.9552 71.8667 78.733 71.5445 78.3886 71.4778C78.3441 71.4667 78.3108 71.4667 78.2664 71.4667Z" fill="#231F20"/>
<path d="M77.4445 75.2446C77.4112 75.2446 77.3778 75.2446 77.3556 75.2335C77.0889 75.189 76.9112 74.9223 76.9667 74.6668C77.0112 74.4335 77.2112 74.2668 77.4445 74.2668C77.8001 74.3223 77.9778 74.5779 77.9334 74.8446C77.8889 75.0779 77.6889 75.2446 77.4445 75.2446Z" fill="white"/>
<path d="M77.4441 74.4C77.4663 74.4 77.4885 74.4 77.5108 74.4111C77.5996 74.4334 77.6885 74.4778 77.733 74.5556C77.7774 74.6334 77.8108 74.7223 77.7885 74.8223C77.7552 74.9889 77.6108 75.1111 77.4441 75.1111C77.4219 75.1111 77.3996 75.1111 77.3774 75.1C77.1885 75.0667 77.0663 74.8778 77.0996 74.6889C77.133 74.5223 77.2774 74.4 77.4441 74.4ZM77.4441 74.1223C77.1441 74.1223 76.8774 74.3334 76.8219 74.6334C76.7552 74.9778 76.9774 75.3 77.3219 75.3667C77.3663 75.3778 77.3996 75.3778 77.4441 75.3778C77.7441 75.3778 78.0108 75.1667 78.0663 74.8667C78.133 74.5223 77.9108 74.2 77.5663 74.1334C77.5219 74.1223 77.4885 74.1223 77.4441 74.1223Z" fill="#231F20"/>
<path d="M76.9441 65.2889C76.9108 65.2889 76.8774 65.2889 76.8552 65.2778C76.7219 65.2556 76.6108 65.1778 76.5441 65.0778C76.4774 64.9778 76.4441 64.8445 76.4663 64.7111C76.5108 64.4778 76.7108 64.3111 76.9441 64.3111C77.2997 64.3667 77.4774 64.6223 77.4219 64.8889C77.3886 65.1223 77.1774 65.2889 76.9441 65.2889Z" fill="white"/>
<path d="M76.9441 64.4445C76.9663 64.4445 76.9885 64.4445 77.0108 64.4556C77.0996 64.4778 77.1885 64.5223 77.233 64.6C77.2774 64.6778 77.3108 64.7667 77.2885 64.8667C77.2552 65.0334 77.1108 65.1556 76.9441 65.1556C76.9219 65.1556 76.8996 65.1556 76.8774 65.1445C76.7885 65.1223 76.6996 65.0778 76.6552 65C76.6108 64.9223 76.5774 64.8334 76.5996 64.7334C76.633 64.5667 76.7774 64.4445 76.9441 64.4445ZM76.9441 64.1667C76.6441 64.1667 76.3774 64.3778 76.3219 64.6778C76.2552 65.0223 76.4774 65.3445 76.8219 65.4111C76.8663 65.4223 76.8997 65.4223 76.9441 65.4223C77.2441 65.4223 77.5108 65.2111 77.5663 64.9111C77.633 64.5667 77.4108 64.2445 77.0663 64.1778C77.0219 64.1778 76.9885 64.1667 76.9441 64.1667Z" fill="#231F20"/>
<path d="M80.5112 67.1777C80.3779 67.1554 80.2668 67.0777 80.2001 66.9777C80.1334 66.8777 80.1001 66.7332 80.1223 66.611C80.1668 66.3777 80.3668 66.211 80.6001 66.211C80.9557 66.2666 81.1334 66.5332 81.0779 66.7888C81.0334 67.0221 80.8334 67.1888 80.6001 67.1888C80.5779 67.1888 80.5446 67.1777 80.5112 67.1777Z" fill="white"/>
<path d="M80.6001 66.3443C80.6223 66.3443 80.6445 66.3443 80.6668 66.3555C80.8557 66.3888 80.9779 66.5777 80.9445 66.7666C80.9112 66.9332 80.7668 67.0554 80.6001 67.0554C80.5779 67.0554 80.5557 67.0554 80.5334 67.0443C80.4445 67.0221 80.3557 66.9777 80.3112 66.8999C80.2668 66.8221 80.2334 66.7332 80.2557 66.6332C80.289 66.4666 80.4334 66.3443 80.6001 66.3443ZM80.6001 66.0666C80.3001 66.0666 80.0334 66.2777 79.9779 66.5777C79.9112 66.9221 80.1334 67.2443 80.4779 67.311C80.5223 67.3221 80.5556 67.3221 80.6001 67.3221C80.9001 67.3221 81.1668 67.111 81.2223 66.811C81.289 66.4666 81.0668 66.1443 80.7223 66.0777C80.6779 66.0666 80.6445 66.0666 80.6001 66.0666Z" fill="#231F20"/>
<path d="M79.577 69.9891C79.5437 69.9891 79.5103 69.9891 79.4881 69.978C79.3548 69.9557 79.2437 69.878 79.177 69.778C79.0992 69.6668 79.077 69.5446 79.0992 69.4113C79.1437 69.178 79.3437 69.0113 79.577 69.0113C79.9326 69.0668 80.1103 69.3224 80.0548 69.5891C80.0103 69.8113 79.8103 69.9891 79.577 69.9891Z" fill="white"/>
<path d="M79.5659 69.1446C79.5881 69.1446 79.6104 69.1446 79.6326 69.1557C79.7215 69.178 79.8104 69.2224 79.8548 69.3002C79.8992 69.378 79.9326 69.4669 79.9104 69.5669C79.877 69.7335 79.7326 69.8557 79.5659 69.8557C79.5437 69.8557 79.5215 69.8557 79.4992 69.8446C79.3104 69.8113 79.1881 69.6224 79.2215 69.4335C79.2548 69.2669 79.3993 69.1446 79.5659 69.1446ZM79.5659 68.8669C79.2659 68.8669 78.9992 69.078 78.9437 69.378C78.877 69.7224 79.0993 70.0446 79.4437 70.1113C79.4881 70.1224 79.5215 70.1224 79.5659 70.1224C79.8659 70.1224 80.1326 69.9113 80.1881 69.6113C80.2548 69.2669 80.0326 68.9446 79.6881 68.878C79.6437 68.8669 79.6104 68.8669 79.5659 68.8669Z" fill="#231F20"/>
<path d="M81.6778 64.5112C81.5445 64.489 81.4334 64.4112 81.3667 64.3112C81.2889 64.2001 81.2667 64.0668 81.2889 63.9446C81.3334 63.7112 81.5334 63.5446 81.7667 63.5446C82.1223 63.6001 82.3 63.8668 82.2445 64.1223C82.2 64.3557 82 64.5223 81.7667 64.5223C81.7445 64.5223 81.7111 64.5112 81.6778 64.5112Z" fill="white"/>
<path d="M81.7664 63.6778C81.7886 63.6778 81.8108 63.6778 81.833 63.6889C82.0219 63.7223 82.1441 63.9111 82.1108 64.1C82.0775 64.2667 81.933 64.3889 81.7664 64.3889C81.7441 64.3889 81.7219 64.3889 81.6997 64.3778C81.6108 64.3556 81.5219 64.3112 81.4775 64.2334C81.433 64.1556 81.3997 64.0667 81.4219 63.9667C81.4552 63.8 81.5997 63.6778 81.7664 63.6778ZM81.7664 63.4C81.4664 63.4 81.1997 63.6111 81.1441 63.9111C81.0775 64.2556 81.2997 64.5778 81.6441 64.6445C81.6886 64.6556 81.7219 64.6556 81.7664 64.6556C82.0664 64.6556 82.333 64.4445 82.3886 64.1445C82.4552 63.8 82.233 63.4778 81.8886 63.4111C81.8441 63.4 81.8108 63.4 81.7664 63.4Z" fill="#231F20"/>
<path d="M83.0224 71.6445C82.7557 71.6 82.5779 71.3333 82.6335 71.0667C82.6779 70.8333 82.8779 70.6667 83.1112 70.6667C83.4668 70.7222 83.6446 70.9889 83.589 71.2445C83.5446 71.4778 83.3446 71.6445 83.1112 71.6445C83.0779 71.6556 83.0446 71.6556 83.0224 71.6445Z" fill="white"/>
<path d="M83.1108 70.8111C83.1331 70.8111 83.1553 70.8112 83.1775 70.8223C83.2664 70.8445 83.3553 70.8889 83.3997 70.9667C83.4442 71.0445 83.4775 71.1334 83.4553 71.2334C83.422 71.4 83.2775 71.5223 83.1108 71.5223C83.0886 71.5223 83.0664 71.5223 83.0442 71.5111C82.8553 71.4778 82.7331 71.2889 82.7664 71.1C82.7886 70.9334 82.9331 70.8111 83.1108 70.8111ZM83.1108 70.5334C82.8108 70.5334 82.5442 70.7445 82.4886 71.0445C82.4219 71.3889 82.6442 71.7111 82.9886 71.7778C83.0331 71.7889 83.0664 71.7889 83.1108 71.7889C83.4108 71.7889 83.6775 71.5778 83.7331 71.2778C83.7997 70.9334 83.5775 70.6112 83.2331 70.5445C83.1886 70.5334 83.1442 70.5334 83.1108 70.5334Z" fill="#231F20"/>
<path d="M82.3329 74.2558C82.2995 74.2558 82.2662 74.2558 82.244 74.2447C82.1106 74.2224 81.9995 74.1447 81.9329 74.0447C81.8551 73.9335 81.8329 73.8113 81.8551 73.678C81.8995 73.4447 82.0995 73.278 82.3329 73.278C82.6884 73.3335 82.8662 73.5891 82.8106 73.8558C82.7773 74.078 82.5662 74.2558 82.3329 74.2558Z" fill="white"/>
<path d="M82.3325 73.4112C82.3547 73.4112 82.377 73.4112 82.3992 73.4223C82.5881 73.4557 82.7103 73.6446 82.677 73.8335C82.6436 74.0001 82.4992 74.1223 82.3325 74.1223C82.3103 74.1223 82.2881 74.1223 82.2658 74.1112C82.177 74.089 82.0881 74.0446 82.0436 73.9668C81.9992 73.889 81.9658 73.8001 81.9881 73.7001C82.0214 73.5335 82.1659 73.4112 82.3325 73.4112ZM82.3325 73.1335C82.0325 73.1335 81.7658 73.3446 81.7103 73.6446C81.6436 73.989 81.8659 74.3112 82.2103 74.3779C82.2547 74.389 82.2881 74.389 82.3325 74.389C82.6325 74.389 82.8992 74.1779 82.9547 73.8779C83.0214 73.5335 82.7992 73.2112 82.4547 73.1446C82.4103 73.1335 82.377 73.1335 82.3325 73.1335Z" fill="#231F20"/>
<path d="M85.3218 66.3223C85.1884 66.3001 85.0773 66.2223 85.0107 66.1223C84.944 66.0223 84.9107 65.8778 84.9329 65.7556C84.9773 65.5223 85.1773 65.3556 85.4107 65.3556C85.7662 65.4112 85.944 65.6667 85.8884 65.9334C85.844 66.1667 85.644 66.3334 85.4107 66.3334C85.3884 66.3334 85.3551 66.3223 85.3218 66.3223Z" fill="white"/>
<path d="M85.4214 65.4889C85.4436 65.4889 85.4658 65.4889 85.488 65.5C85.5769 65.5222 85.6658 65.5666 85.7103 65.6444C85.7547 65.7222 85.788 65.8111 85.7658 65.9111C85.7325 66.0778 85.588 66.2 85.4214 66.2C85.3992 66.2 85.3769 66.2 85.3547 66.1889C85.1658 66.1555 85.0436 65.9666 85.0769 65.7778C85.0992 65.6111 85.2436 65.4889 85.4214 65.4889ZM85.4214 65.2111C85.1214 65.2111 84.8547 65.4222 84.7992 65.7222C84.7325 66.0666 84.9547 66.3889 85.2992 66.4555C85.3436 66.4666 85.3769 66.4666 85.4214 66.4666C85.7214 66.4666 85.988 66.2555 86.0436 65.9555C86.1103 65.6111 85.888 65.2889 85.5436 65.2222C85.4992 65.2111 85.4547 65.2111 85.4214 65.2111Z" fill="#231F20"/>
<path d="M84.289 69.0335C84.2556 69.0335 84.2223 69.0335 84.2001 69.0223C83.9334 68.9779 83.7556 68.7112 83.8112 68.4557C83.8556 68.2223 84.0556 68.0557 84.289 68.0557C84.6445 68.1112 84.8223 68.3668 84.7779 68.6335C84.7223 68.8668 84.5223 69.0335 84.289 69.0335Z" fill="white"/>
<path d="M84.2886 68.1889C84.3108 68.1889 84.333 68.1889 84.3552 68.2C84.4441 68.2223 84.533 68.2667 84.5775 68.3445C84.6219 68.4223 84.6552 68.5111 84.633 68.6111C84.5997 68.7667 84.4552 68.8889 84.2886 68.8889C84.2664 68.8889 84.2441 68.8889 84.2219 68.8778C84.133 68.8556 84.0441 68.8111 83.9997 68.7334C83.9552 68.6556 83.9219 68.5667 83.9441 68.4667C83.9663 68.3111 84.1108 68.1889 84.2886 68.1889ZM84.2886 67.9111C83.9886 67.9111 83.7219 68.1223 83.6663 68.4223C83.5997 68.7667 83.8219 69.0889 84.1664 69.1556C84.2108 69.1667 84.2441 69.1667 84.2886 69.1667C84.5886 69.1667 84.8552 68.9556 84.9108 68.6556C84.9775 68.3112 84.7552 67.9889 84.4108 67.9223C84.3663 67.9112 84.3219 67.9111 84.2886 67.9111Z" fill="#231F20"/>
<path d="M86.5994 63.7446C86.566 63.7446 86.5327 63.7446 86.5105 63.7335C86.3772 63.7112 86.266 63.6334 86.1994 63.5334C86.1327 63.4334 86.0994 63.3001 86.1216 63.1668C86.166 62.9334 86.366 62.7668 86.5994 62.7668C86.8216 62.8001 86.9327 62.8668 87.0105 62.9779C87.0883 63.089 87.1105 63.2112 87.0883 63.3446C87.0327 63.5779 86.8327 63.7446 86.5994 63.7446Z" fill="white"/>
<path d="M86.5886 62.9C86.6108 62.9 86.6331 62.9 86.6553 62.9111C86.7442 62.9334 86.8331 62.9778 86.8775 63.0556C86.922 63.1334 86.9553 63.2223 86.9331 63.3223C86.8997 63.4889 86.7553 63.6111 86.5886 63.6111C86.5664 63.6111 86.5442 63.6111 86.522 63.6C86.4331 63.5778 86.3442 63.5334 86.2997 63.4556C86.2553 63.3778 86.222 63.2889 86.2442 63.1889C86.2775 63.0223 86.422 62.9 86.5886 62.9ZM86.5886 62.6223C86.2886 62.6223 86.022 62.8334 85.9664 63.1334C85.8997 63.4778 86.122 63.8 86.4664 63.8667C86.5108 63.8778 86.5442 63.8778 86.5886 63.8778C86.8886 63.8778 87.1553 63.6667 87.2108 63.3667C87.2775 63.0223 87.0553 62.7 86.7108 62.6334C86.6664 62.6334 86.6331 62.6223 86.5886 62.6223Z" fill="#231F20"/>
<path d="M87.8556 70.7111C87.589 70.6667 87.4112 70.4 87.4667 70.1333C87.5112 69.9 87.7112 69.7333 87.9445 69.7333C88.3001 69.7889 88.4778 70.0556 88.4223 70.3111C88.3778 70.5444 88.1778 70.7111 87.9445 70.7111C87.9112 70.7222 87.889 70.7111 87.8556 70.7111Z" fill="white"/>
<path d="M87.9441 69.8778C87.9663 69.8778 87.9885 69.8778 88.0108 69.8889C88.0996 69.9112 88.1885 69.9556 88.233 70.0334C88.2774 70.1111 88.3108 70.2 88.2885 70.3C88.2552 70.4667 88.1108 70.5889 87.9441 70.5889C87.9219 70.5889 87.8996 70.5889 87.8774 70.5778C87.7885 70.5556 87.6996 70.5111 87.6552 70.4334C87.6108 70.3556 87.5774 70.2667 87.5996 70.1667C87.633 70 87.7774 69.8778 87.9441 69.8778ZM87.9441 69.6C87.6441 69.6 87.3774 69.8111 87.3219 70.1111C87.2552 70.4556 87.4774 70.7778 87.8219 70.8445C87.8663 70.8556 87.8996 70.8556 87.9441 70.8556C88.2441 70.8556 88.5108 70.6445 88.5663 70.3445C88.633 70 88.4108 69.6778 88.0663 69.6112C88.0219 69.6 87.9774 69.6 87.9441 69.6Z" fill="#231F20"/>
<path d="M87.1337 73.2558C86.867 73.2113 86.6892 72.9447 86.7448 72.678C86.7892 72.4447 86.9892 72.278 87.2226 72.278C87.5781 72.3335 87.7559 72.5891 87.7004 72.8558C87.6559 73.0891 87.4559 73.2558 87.2226 73.2558C87.1892 73.2558 87.167 73.2558 87.1337 73.2558Z" fill="white"/>
<path d="M87.2222 72.4225C87.2444 72.4225 87.2666 72.4225 87.2888 72.4336C87.4777 72.4669 87.5999 72.6558 87.5666 72.8447C87.5333 73.0113 87.3888 73.1336 87.2222 73.1336C87.1999 73.1336 87.1777 73.1336 87.1555 73.1225C86.9666 73.0891 86.8444 72.9002 86.8777 72.7114C86.9111 72.5336 87.0555 72.4225 87.2222 72.4225ZM87.2222 72.1447C86.9222 72.1447 86.6555 72.3558 86.5999 72.6558C86.5333 73.0002 86.7555 73.3225 87.0999 73.3891C87.1444 73.4002 87.1777 73.4002 87.2222 73.4002C87.5222 73.4002 87.7888 73.1891 87.8444 72.8891C87.9111 72.5447 87.6888 72.2225 87.3444 72.1558C87.2999 72.1447 87.2555 72.1447 87.2222 72.1447Z" fill="#231F20"/>
<path d="M90.1444 65.4667C89.8778 65.4222 89.7 65.1556 89.7555 64.8889C89.8 64.6556 90 64.4889 90.2333 64.4889C90.5889 64.5444 90.7667 64.8 90.7111 65.0667C90.6667 65.3 90.4667 65.4667 90.2333 65.4667C90.2 65.4667 90.1666 65.4667 90.1444 65.4667Z" fill="white"/>
<path d="M90.2329 64.6334C90.2551 64.6334 90.2774 64.6334 90.2996 64.6445C90.3885 64.6667 90.4774 64.7111 90.5218 64.7889C90.5662 64.8667 90.5996 64.9556 90.5774 65.0556C90.544 65.2223 90.3996 65.3445 90.2329 65.3445C90.2107 65.3445 90.1885 65.3445 90.1662 65.3334C90.0774 65.3111 89.9885 65.2667 89.944 65.1889C89.8996 65.1111 89.8662 65.0223 89.8885 64.9223C89.9218 64.7445 90.0662 64.6334 90.2329 64.6334ZM90.2329 64.3556C89.9329 64.3556 89.6662 64.5667 89.6107 64.8667C89.544 65.2111 89.7662 65.5334 90.1107 65.6C90.1551 65.6111 90.1885 65.6111 90.2329 65.6111C90.5329 65.6111 90.7996 65.4 90.8551 65.1C90.9218 64.7556 90.6996 64.4334 90.3551 64.3667C90.3107 64.3556 90.2662 64.3556 90.2329 64.3556Z" fill="#231F20"/>
<path d="M88.9112 68.0668C88.7779 68.0446 88.6668 67.9668 88.6001 67.8668C88.5223 67.7557 88.5001 67.6224 88.5223 67.5001C88.5668 67.2668 88.7668 67.1001 89.0001 67.1001C89.3557 67.1557 89.5334 67.4224 89.4779 67.6779C89.4334 67.9112 89.2334 68.0779 89.0001 68.0779C88.9668 68.0779 88.9445 68.0779 88.9112 68.0668Z" fill="white"/>
<path d="M88.9998 67.2334C89.022 67.2334 89.0442 67.2334 89.0664 67.2445C89.1553 67.2667 89.2442 67.3112 89.2886 67.3889C89.3331 67.4667 89.3664 67.5556 89.3442 67.6556C89.3109 67.8223 89.1664 67.9445 88.9998 67.9445C88.9775 67.9445 88.9553 67.9445 88.9331 67.9334C88.8442 67.9112 88.7553 67.8667 88.7109 67.7889C88.6664 67.7112 88.6331 67.6223 88.6553 67.5223C88.6886 67.3556 88.8331 67.2334 88.9998 67.2334ZM88.9998 66.9556C88.6998 66.9556 88.4331 67.1667 88.3775 67.4667C88.3109 67.8112 88.5331 68.1334 88.8775 68.2C88.922 68.2112 88.9553 68.2112 88.9998 68.2112C89.2998 68.2112 89.5664 68 89.622 67.7C89.6886 67.3556 89.4664 67.0334 89.122 66.9667C89.0775 66.9556 89.0331 66.9556 88.9998 66.9556Z" fill="#231F20"/>
<path d="M92.6893 69.7779C92.556 69.7556 92.4448 69.6779 92.3782 69.5779C92.3004 69.4667 92.2782 69.3334 92.3004 69.2112C92.3448 68.9779 92.5448 68.8112 92.7782 68.8112C93.1337 68.8667 93.3115 69.1334 93.256 69.389C93.2115 69.6223 93.0115 69.789 92.7782 69.789C92.756 69.7779 92.7226 69.7779 92.6893 69.7779Z" fill="white"/>
<path d="M92.7778 68.9444C92.8001 68.9444 92.8223 68.9444 92.8445 68.9555C92.9334 68.9778 93.0223 69.0222 93.0667 69.1C93.1112 69.1778 93.1445 69.2667 93.1223 69.3667C93.0889 69.5333 92.9445 69.6555 92.7778 69.6555C92.7556 69.6555 92.7334 69.6555 92.7112 69.6444C92.5223 69.6111 92.4001 69.4222 92.4334 69.2333C92.4667 69.0555 92.6112 68.9444 92.7778 68.9444ZM92.7778 68.6667C92.4778 68.6667 92.2112 68.8778 92.1556 69.1778C92.0889 69.5222 92.3112 69.8444 92.6556 69.9111C92.7001 69.9222 92.7334 69.9222 92.7778 69.9222C93.0778 69.9222 93.3445 69.7111 93.4001 69.4111C93.4667 69.0667 93.2445 68.7444 92.9001 68.6778C92.8556 68.6667 92.8223 68.6667 92.7778 68.6667Z" fill="#231F20"/>
<path d="M92.0224 72.2668C91.7557 72.2223 91.5779 71.9557 91.6335 71.689C91.6779 71.4557 91.8779 71.289 92.1112 71.289C92.4668 71.3446 92.6446 71.6001 92.589 71.8668C92.5446 72.1001 92.3446 72.2668 92.1112 72.2668C92.0779 72.2668 92.0446 72.2668 92.0224 72.2668Z" fill="white"/>
<path d="M92.1108 71.4223C92.1331 71.4223 92.1553 71.4223 92.1775 71.4334C92.3664 71.4667 92.4886 71.6556 92.4553 71.8445C92.422 72.0112 92.2775 72.1334 92.1108 72.1334C92.0886 72.1334 92.0664 72.1334 92.0442 72.1223C91.8553 72.0889 91.7331 71.9 91.7664 71.7112C91.7886 71.5445 91.9442 71.4223 92.1108 71.4223ZM92.1108 71.1445C91.8108 71.1445 91.5442 71.3556 91.4886 71.6556C91.4219 72 91.6442 72.3223 91.9886 72.3889C92.0331 72.4 92.0664 72.4 92.1108 72.4C92.4108 72.4 92.6775 72.1889 92.7331 71.8889C92.7997 71.5445 92.5775 71.2223 92.2331 71.1556C92.1886 71.1556 92.1442 71.1445 92.1108 71.1445Z" fill="#231F20"/>
<path d="M91.3328 62.9668C91.1995 62.9446 91.0884 62.8668 91.0217 62.7668C90.944 62.6557 90.9217 62.5224 90.944 62.4002C90.9884 62.1668 91.1884 62.0002 91.4217 62.0002C91.7773 62.0557 91.9551 62.3224 91.8995 62.5779C91.8551 62.8113 91.6551 62.9779 91.4217 62.9779C91.3884 62.9779 91.3551 62.9668 91.3328 62.9668Z" fill="white"/>
<path d="M91.4214 62.1334C91.4436 62.1334 91.4658 62.1334 91.4881 62.1445C91.5769 62.1667 91.6658 62.2112 91.7103 62.289C91.7547 62.3667 91.7881 62.4556 91.7658 62.5556C91.7325 62.7223 91.5881 62.8445 91.4214 62.8445C91.3992 62.8445 91.3769 62.8445 91.3547 62.8334C91.2658 62.8112 91.1769 62.7667 91.1325 62.689C91.0881 62.6112 91.0547 62.5223 91.0769 62.4223C91.0992 62.2556 91.2436 62.1334 91.4214 62.1334ZM91.4214 61.8556C91.1214 61.8556 90.8547 62.0667 90.7992 62.3667C90.7325 62.7112 90.9547 63.0334 91.2992 63.1001C91.3436 63.1112 91.3769 63.1112 91.4214 63.1112C91.7214 63.1112 91.9881 62.9001 92.0436 62.6001C92.1103 62.2556 91.8881 61.9334 91.5436 61.8667C91.4992 61.8556 91.4547 61.8556 91.4214 61.8556Z" fill="#231F20"/>
<path d="M93.622 67.1112C93.3553 67.0668 93.1775 66.8001 93.2331 66.5335C93.2775 66.3001 93.4775 66.1335 93.7109 66.1335C94.0664 66.189 94.2442 66.4557 94.1886 66.7112C94.1442 66.9446 93.9442 67.1112 93.7109 67.1112C93.6886 67.1223 93.6553 67.1223 93.622 67.1112Z" fill="white"/>
<path d="M93.7104 66.2779C93.7327 66.2779 93.7549 66.2779 93.7771 66.289C93.966 66.3224 94.0882 66.5113 94.0549 66.7001C94.0216 66.8668 93.8771 66.989 93.7104 66.989C93.6882 66.989 93.666 66.989 93.6438 66.9779C93.5549 66.9557 93.466 66.9113 93.4216 66.8335C93.3771 66.7557 93.3438 66.6668 93.366 66.5668C93.3993 66.4002 93.5438 66.2779 93.7104 66.2779ZM93.7104 66.0002C93.4104 66.0002 93.1438 66.2113 93.0882 66.5113C93.0216 66.8557 93.2438 67.1779 93.5882 67.2446C93.6327 67.2557 93.666 67.2557 93.7104 67.2557C94.0104 67.2557 94.2771 67.0446 94.3327 66.7446C94.3993 66.4002 94.1771 66.0779 93.8327 66.0113C93.7882 66.0002 93.7549 66.0002 93.7104 66.0002Z" fill="#231F20"/>
<path d="M96.9001 71.2668C96.7668 71.2446 96.6557 71.1668 96.589 71.0668C96.5224 70.9668 96.489 70.8223 96.5113 70.7001C96.5557 70.4668 96.7557 70.3001 96.989 70.3001C97.3446 70.3557 97.5224 70.6223 97.4668 70.8779C97.4224 71.1112 97.2224 71.2779 96.989 71.2779C96.9668 71.2779 96.9335 71.2779 96.9001 71.2668Z" fill="white"/>
<path d="M96.9998 70.4334C97.022 70.4334 97.0442 70.4334 97.0664 70.4445C97.2553 70.4778 97.3775 70.6667 97.3442 70.8556C97.3109 71.0223 97.1664 71.1445 96.9998 71.1445C96.9775 71.1445 96.9553 71.1445 96.9331 71.1334C96.8442 71.1111 96.7553 71.0667 96.7109 70.9889C96.6664 70.9111 96.6331 70.8223 96.6553 70.7223C96.6775 70.5556 96.822 70.4334 96.9998 70.4334ZM96.9998 70.1556C96.6998 70.1556 96.4331 70.3667 96.3775 70.6667C96.3109 71.0111 96.5331 71.3334 96.8775 71.4C96.922 71.4112 96.9553 71.4111 96.9998 71.4111C97.2998 71.4111 97.5664 71.2 97.622 70.9C97.6886 70.5556 97.4664 70.2334 97.122 70.1667C97.0775 70.1667 97.0331 70.1556 96.9998 70.1556Z" fill="#231F20"/>
<path d="M43.5217 85.8555L46.9217 84.4L49.7884 84.6667L56.644 81.2666L56.3995 79.0778L58.9328 77.8778L66.9217 84.8778L63.8328 86.3666L61.5551 85.6444L53.544 89.5555V92.0222L50.9662 93.3L43.5217 85.8555Z" fill="white"/>
<path d="M58.8994 78.0444L66.6661 84.8444L63.855 86.2L61.5883 85.5222L61.4883 85.4889L61.3883 85.5333L53.5439 89.3889L53.3883 89.4666V89.6444V91.9444L50.9772 93.1333L43.755 85.9111L46.8994 84.5666L49.7661 84.8111L49.8439 84.8222L49.9106 84.7889L56.5994 81.4444L56.7772 81.3555L56.755 81.1666L56.5328 79.1778L58.8994 78.0444ZM58.955 77.7111L56.255 79L56.4994 81.1889L49.8106 84.5333L46.8661 84.2778L43.2883 85.8111L50.9439 93.4666L53.6883 92.1111V89.6444L61.5328 85.7889L63.9106 86.5L67.1883 84.9222L58.955 77.7111Z" fill="#231F20"/>
<path d="M43.5217 80.3555L47.2662 78.5444L49.5328 79.2777L56.644 75.7777L56.3995 73.5888L58.9328 72.3888L66.9217 79.3888L63.8328 80.8777L61.5551 80.1555L53.544 84.0555V86.5333L50.9662 87.7999L43.5217 80.3555Z" fill="white"/>
<path d="M58.8998 72.5445L66.6665 79.3445L63.8554 80.7001L61.5998 80.0223L61.4998 79.989L61.3998 80.0334L53.5554 83.889L53.3998 83.9668V84.1445V86.4445L50.9887 87.6334L43.7443 80.389L47.2109 78.7112L49.4776 79.4112L49.5887 79.4445L49.6887 79.4001L56.6109 75.9445L56.7887 75.8557L56.7665 75.6668L56.5443 73.6779L58.8998 72.5445ZM58.9554 72.2223L56.2554 73.5112L56.4998 75.689L49.5776 79.1445L47.1998 78.4223L43.2776 80.3223L50.9331 87.9779L53.6776 86.6223V84.1557L61.522 80.3001L63.8998 81.0112L67.1776 79.4334L58.9554 72.2223Z" fill="#231F20"/>
<path d="M51.0774 88.0554L53.5441 86.8332V92.0221L51.0774 93.2443V88.0554Z" fill="white"/>
<path d="M53.3995 87.0665V91.9443L51.2106 93.0332V88.1554L53.3995 87.0665ZM53.6773 86.611L50.9329 87.9665V93.4665L53.6773 92.111V86.611Z" fill="#231F20"/>
<path d="M53.8225 84.2337L61.3781 80.5114V85.7003L53.8225 89.4114V84.2337Z" fill="white"/>
<path d="M61.2446 80.7337V85.6114L53.9558 89.1892V84.3114L61.2446 80.7337ZM61.5224 80.2892L53.678 84.1448V89.6337L61.5224 85.7781V80.2892Z" fill="#231F20"/>
<path d="M61.6555 85.6782V80.4782L63.7555 81.1004V86.3115L61.6555 85.6782Z" fill="white"/>
<path d="M61.7995 80.667L63.6217 81.2114V86.1225L61.7995 85.5781V80.667ZM61.5217 80.2892V85.7781L63.8995 86.4892V81.0003L61.5217 80.2892Z" fill="#231F20"/>
<path d="M64.0337 81.0888L67.0337 79.6333V84.8221L64.0337 86.2666V81.0888Z" fill="white"/>
<path d="M66.8999 79.8557V84.7334L64.1777 86.0445V81.1668L66.8999 79.8557ZM67.1777 79.4223L63.8999 81.0001V86.489L67.1777 84.9112V79.4223Z" fill="#231F20"/>
<path d="M43.3772 85.7112L43.4216 80.6445L50.8439 88.0779L50.7994 93.1334L43.3772 85.7112Z" fill="white"/>
<path d="M43.5661 80.989L50.6661 88.089V92.8001L43.5661 85.689V80.989ZM43.2883 80.3112V85.8001L50.9439 93.4667V87.9778L43.2883 80.3112Z" fill="#231F20"/>
<path d="M10.8 90.9556V85.9111L12.7112 87.8222C14.2 92.4333 17.4889 92.9445 18.8334 92.9445C19.0112 92.9445 19.1334 92.9333 19.2112 92.9333L20.7445 94.4667L20.7112 99.7L10.8 90.9556Z" fill="white"/>
<path d="M10.9333 86.2445L12.5666 87.8778C14.1666 92.7111 17.7666 93.0889 18.8333 93.0889C18.9666 93.0889 19.0777 93.0889 19.1555 93.0778L20.5666 94.4889V99.3889L10.9333 90.8889V86.2445ZM10.6555 85.5667V91.0111L20.8444 100V94.3667L19.2555 92.7778C19.2555 92.7778 19.1 92.8 18.8333 92.8C17.6555 92.8 14.3222 92.3667 12.8111 87.7222L10.6555 85.5667Z" fill="#231F20"/>
<path d="M33.0227 84.1109V78.1776L34.9449 80.0887C36.4338 84.6998 39.7227 85.2109 41.0671 85.2109C41.2449 85.2109 41.3671 85.1998 41.4449 85.1998L42.9783 86.7331L42.9449 91.9776L33.0227 84.1109Z" fill="white"/>
<path d="M33.1667 78.5111L34.8 80.1444C36.4 84.9778 40 85.3556 41.0667 85.3556C41.2 85.3556 41.3111 85.3556 41.3889 85.3444L42.8 86.7556V91.7L33.1667 84.0556V78.5111ZM32.8889 77.8333V84.1778L43.0778 92.2667V86.6333L41.4889 85.0445C41.4889 85.0445 41.3334 85.0667 41.0667 85.0667C39.8889 85.0667 36.5556 84.6333 35.0445 79.9889L32.8889 77.8333Z" fill="#231F20"/>
<path d="M20.9893 94.4668L42.9337 86.8223V92.1668L20.9893 99.8001V94.4668Z" fill="white"/>
<path d="M42.7999 87.0222V92.0667L21.1332 99.6111V94.5667L42.7999 87.0222ZM43.0777 86.6333L20.8555 94.3667V100L43.0777 92.2667V86.6333Z" fill="#231F20"/>
<path d="M19.5107 92.8443L41.4552 85.211L42.8219 86.5776L20.8774 94.211L19.5107 92.8443Z" fill="white"/>
<path d="M41.411 85.3667L42.5555 86.5111L20.911 94.0445L19.7666 92.9L41.411 85.3667ZM41.4888 85.0445L19.2666 92.7778L20.8555 94.3667L43.0777 86.6334L41.4888 85.0445Z" fill="#231F20"/>
<path d="M10.9104 85.6332L32.8437 77.9998L34.7771 79.9332L12.8437 87.5665L10.9104 85.6332Z" fill="white"/>
<path d="M32.8107 78.1556L34.5218 79.8667L12.8774 87.4L11.1663 85.6889L32.8107 78.1556ZM32.8885 77.8333L10.6663 85.5667L12.8218 87.7222L35.044 79.9889L32.8885 77.8333Z" fill="#231F20"/>
<path d="M18.2445 92.7668C16.8667 92.7668 14.3667 92.1224 12.9778 87.8113L34.9333 80.1668C35.1445 81.0113 36.3667 85.0113 40.6222 85.2002L19.2111 92.6557C19.2111 92.6557 18.8333 92.7668 18.2445 92.7668Z" fill="white"/>
<path d="M34.8441 80.3558C35.133 81.4002 36.3441 84.778 39.9775 85.2891L19.1886 92.5224C19.1886 92.5224 18.8108 92.6336 18.2552 92.6336C16.933 92.6336 14.533 92.0113 13.1663 87.9002L34.8441 80.3558ZM35.033 79.9891L12.8108 87.7224C14.2108 92.2335 16.8108 92.9002 18.2441 92.9002C18.8552 92.9002 19.2552 92.778 19.2552 92.778L41.4775 85.0447C41.2886 85.0558 41.0997 85.0669 40.9219 85.0669C35.9775 85.0669 35.033 79.9891 35.033 79.9891Z" fill="#231F20"/>
<path d="M0.77832 9.27786C0.77832 4.32231 4.81165 0.277863 9.76721 0.277863H71.4672L24.1783 20.7001L0.77832 56.789V9.27786Z" fill="white"/>
<path d="M70.7893 0.422309L24.1227 20.5668L24.0449 20.6001L24.0005 20.6668L0.911567 56.3112V9.27787C0.911567 4.40009 4.88935 0.422309 9.76712 0.422309H70.7893ZM72.1338 0.144531H9.76712C4.73379 0.144531 0.633789 4.24453 0.633789 9.27787V57.2556L24.2338 20.8223L72.1338 0.144531Z" fill="#231F20"/>
<path d="M71.4778 0.277778L24.1778 20.6889L24.1 20.7222L24.0556 20.7889L0.777778 56.7889V9.27778C0.777778 4.31111 4.81111 0.277778 9.77778 0.277778H71.4778ZM72.8222 0H9.77778C4.65556 0 0.5 4.15556 0.5 9.27778V57.7333L24.2889 20.9556L72.8222 0Z" fill="#231F20" stroke="#231F20" stroke-width="0.25" stroke-miterlimit="10"/>
<path d="M13.3448 4.88867V13.6442H12.3226L7.54484 6.76645H7.46706V13.6442H6.40039V4.88867H7.42261L12.2115 11.7776H12.3004V4.88867H13.3448Z" fill="#231F20"/>
<path d="M15.4668 13.6442V4.88867H20.7557V5.83312H16.5335V8.78867H20.489V9.73312H16.5335V12.7109H20.8224V13.6553H15.4668V13.6442Z" fill="#231F20"/>
<path d="M24.2555 13.6442L21.8555 4.88867H22.9332L24.7666 12.022H24.8555L26.7221 4.88867H27.9221L29.7888 12.022H29.8777L31.711 4.88867H32.7888L30.3999 13.6442H29.2777L27.3555 6.66645H27.2777L25.3444 13.6442H24.2555Z" fill="#231F20"/>
</g>
<defs>
<clipPath id="clip0_212_1217">
<rect width="100" height="100" fill="white" transform="translate(0.5)"/>
</clipPath>
</defs>
</svg>
