<svg width="91" height="90" viewBox="0 0 91 90" fill="none" xmlns="http://www.w3.org/2000/svg">
<g clip-path="url(#clip0_212_1515)">
<path d="M64.9303 44.5709C62.8903 43.8909 57.9303 40.6609 56.9903 36.2309C55.8603 30.9309 59.5303 22.4209 69.3603 20.2309C71.3603 19.7809 73.2703 19.5609 75.0503 19.5609C80.5203 19.5609 84.8903 21.6409 88.4003 25.9109C90.6503 28.6509 90.9003 34.5709 89.4003 36.5009C87.2903 35.7209 84.8703 35.3109 82.3703 35.3109C75.8103 35.3009 67.8903 38.1709 64.9303 44.5709Z" fill="white"/>
<path d="M75.0502 19.6905C80.4802 19.6905 84.8202 21.7505 88.3002 25.9905C90.4902 28.6605 90.7701 34.3905 89.3502 36.3505C87.2502 35.5905 84.8402 35.1805 82.3702 35.1805C75.8002 35.1805 67.8802 38.0405 64.8602 44.4205C62.7802 43.6805 58.0302 40.5205 57.1102 36.2105C55.9902 30.9605 59.6402 22.5405 69.3902 20.3605C71.3802 19.9205 73.2802 19.6905 75.0502 19.6905ZM75.0502 19.4405C73.3302 19.4405 71.4302 19.6505 69.3402 20.1105C59.6602 22.2705 55.6802 30.6505 56.8702 36.2605C57.8602 40.8805 63.0202 44.1205 65.0002 44.7305C67.6902 38.7805 75.2002 35.4305 82.3702 35.4305C84.8302 35.4305 87.2602 35.8205 89.4402 36.6405C91.0802 34.7005 90.7902 28.6205 88.5002 25.8205C86.0102 22.8005 81.9902 19.4405 75.0502 19.4405Z" fill="#231F20"/>
<path d="M64.9301 27.3902C62.8901 26.7102 57.9301 23.4802 56.9901 19.0502C55.7401 13.1702 60.2501 8.63023 69.3601 6.59023C71.3601 6.14023 73.2701 5.92023 75.0501 5.92023C80.5201 5.92023 84.8901 8.00023 88.4001 12.2702C90.6201 14.9702 90.9601 17.4002 89.4001 19.3102C87.2901 18.5302 84.8701 18.1202 82.3701 18.1202C75.8101 18.1202 67.8901 20.9802 64.9301 27.3902Z" fill="white"/>
<path d="M75.0502 5.79022V6.04022C80.4802 6.04022 84.8202 8.10022 88.3002 12.3402C90.4502 14.9502 90.8102 17.3102 89.3502 19.1602C87.2502 18.4002 84.8402 17.9902 82.3602 17.9902C75.7902 17.9902 67.8702 20.8502 64.8502 27.2302C62.7702 26.4902 58.0202 23.3302 57.1002 19.0202C55.8602 13.2202 60.3402 8.73022 69.3802 6.71022C71.3702 6.27022 73.2702 6.04022 75.0402 6.04022L75.0502 5.79022ZM75.0502 5.79022C73.3302 5.79022 71.4302 6.00022 69.3402 6.46022C59.6602 8.62022 55.6802 13.4602 56.8702 19.0602C57.8602 23.6802 63.0202 26.9202 65.0002 27.5302C67.6902 21.5802 75.2002 18.2302 82.3702 18.2302C84.8302 18.2302 87.2602 18.6202 89.4402 19.4402C91.0802 17.5002 90.7902 14.9602 88.5002 12.1702C86.0102 9.16022 81.9902 5.79022 75.0502 5.79022Z" fill="#231F20"/>
<path d="M65.5207 21.6903C64.0707 21.2503 61.3207 19.2603 61.1007 16.3503C60.8307 12.9103 63.6407 10.5603 69.9507 8.96026C71.6107 8.54026 73.2207 8.33026 74.7407 8.33026C79.4607 8.33026 82.4207 10.3103 84.0707 11.9803C85.5707 13.4903 86.0907 14.6703 85.6607 15.5803C84.5707 15.2403 83.2407 15.0603 81.7007 15.0603C75.7007 15.0603 67.6207 17.7703 65.5207 21.6903Z" fill="white"/>
<path d="M74.7401 8.45984C79.4201 8.45984 82.3501 10.4198 83.9901 12.0698C85.3901 13.4798 85.9201 14.5798 85.6001 15.4298C84.5201 15.0998 83.2101 14.9398 81.7101 14.9398C75.7101 14.9398 67.6601 17.6398 65.4701 21.5498C64.0301 21.0698 61.4501 19.1398 61.2301 16.3498C60.9701 12.9798 63.7501 10.6798 69.9901 9.08984C71.6301 8.66984 73.2301 8.45984 74.7401 8.45984ZM74.7401 8.20984C73.2701 8.20984 71.6701 8.39984 69.9201 8.84984C63.5201 10.4698 60.7101 12.9098 60.9801 16.3698C61.2301 19.5298 64.2801 21.4998 65.5901 21.8398C67.5701 17.9598 75.6601 15.1798 81.7101 15.1798C83.2201 15.1798 84.6001 15.3498 85.7301 15.7298C86.1801 14.9198 86.0201 13.7698 84.1601 11.8898C82.1901 9.90984 79.0701 8.20984 74.7401 8.20984Z" fill="#231F20"/>
<path d="M65.1206 27.5402C65.1506 27.5102 70.0406 18.5202 81.9206 18.5202C84.2606 18.5202 86.7406 18.8702 89.3106 19.5502V36.4602C88.7006 36.2502 86.4906 35.5902 83.4106 35.5902C78.7106 35.5902 71.7406 37.1302 65.1206 44.3902V27.5402Z" fill="white"/>
<path d="M81.9207 18.6402C84.2207 18.6402 86.6607 18.9802 89.1907 19.6502V36.2902C88.4007 36.0402 86.3107 35.4702 83.4207 35.4702C78.7407 35.4702 71.8407 36.9802 65.2507 44.0802V27.6002C65.6707 26.8702 70.5907 18.6402 81.9207 18.6402ZM81.9207 18.3902C69.8107 18.3902 64.9907 27.5402 64.9907 27.5402V44.7302C71.6107 37.3202 78.6107 35.7302 83.4107 35.7302C87.0507 35.7302 89.4307 36.6502 89.4307 36.6502V19.4602C86.6707 18.7102 84.1707 18.3902 81.9207 18.3902Z" fill="#231F20"/>
<path d="M61.0999 42.2803C60.1999 41.4703 58.1699 39.0403 58.1499 39.0203L58.1799 22.2603C58.7799 22.9703 60.4299 24.9003 61.0999 25.4303V42.2803Z" fill="white"/>
<path d="M58.2998 22.5902C58.9998 23.4102 60.3398 24.9502 60.9698 25.4802V41.9902C60.1098 41.1502 58.6098 39.3802 58.2998 39.0002V22.5902ZM58.0498 21.9102V39.1002C58.0498 39.1002 60.4598 41.9802 61.2198 42.5502V25.3602C60.4598 24.8002 58.0498 21.9102 58.0498 21.9102Z" fill="#231F20"/>
<path d="M57.9207 38.7002C57.4107 37.8302 56.9907 36.2502 56.9907 36.2302V20.0602C57.3407 21.0502 57.9107 21.9302 57.9407 21.9802L57.9207 38.7002Z" fill="white"/>
<path d="M57.1201 20.7005C57.3901 21.3105 57.6901 21.8105 57.8001 21.9805V38.1805C57.4401 37.4005 57.1701 36.4105 57.1201 36.2205V20.7005ZM56.8701 19.0705V36.2605C56.8701 36.2605 57.4101 38.3505 58.0501 39.1005V21.9105C58.0501 21.9105 57.0501 20.3705 56.8701 19.0705Z" fill="#231F20"/>
<path d="M89.5601 19.5299C89.8901 19.3099 90.1601 18.4299 90.3501 17.5799V32.9699C90.5001 34.1699 89.9101 35.5099 89.5601 36.1699V19.5299Z" fill="white"/>
<path d="M90.2202 18.5999V32.9999C90.3402 33.9099 90.0002 34.9199 89.6802 35.6299V19.6399C89.8302 19.5299 90.0202 19.2599 90.2202 18.5999ZM90.4702 16.2299C90.4702 16.2299 89.9602 19.4599 89.4602 19.4599C89.4502 19.4599 89.4402 19.4599 89.4302 19.4599V36.6499C89.4302 36.6499 90.6902 34.6799 90.4702 32.9699V16.2299Z" fill="#231F20"/>
<path d="M65.5903 21.8402V10.3102" stroke="#231F20" stroke-width="0.25" stroke-miterlimit="10"/>
<path d="M62.23 19.4405V12.6105" stroke="#231F20" stroke-width="0.25" stroke-miterlimit="10"/>
<path d="M69.5601 18.2402V8.94022" stroke="#231F20" stroke-width="0.25" stroke-miterlimit="10"/>
<path d="M74.6006 16.2298V8.20984" stroke="#231F20" stroke-width="0.25" stroke-miterlimit="10"/>
<path d="M79.0503 15.3404V8.83035" stroke="#231F20" stroke-width="0.25" stroke-miterlimit="10"/>
<path d="M82.21 15.1902V10.3102" stroke="#231F20" stroke-width="0.25" stroke-miterlimit="10"/>
<path d="M84.9399 12.7502V15.5102" stroke="#231F20" stroke-width="0.25" stroke-miterlimit="10"/>
<path d="M18.8596 31.62L18.8996 30.32L12.2896 23.66L10.7596 23.62L8.57959 21.39L43.1296 11.01L45.2196 13.1L45.1796 15.36L51.5496 21.78L53.1996 21.82L55.3796 24.05L21.7896 34.55L18.8596 31.62Z" fill="white"/>
<path d="M43.0898 11.1503L45.0498 13.1103V15.3603V15.4603L45.1198 15.5303L51.4498 21.8603L51.5198 21.9303H51.6198H53.0798L55.1298 23.9803L21.8298 34.4003L19.0298 31.6003V30.3203V30.2203L18.9598 30.1503L12.3898 23.5803L12.3198 23.5103H12.2198H10.8798L8.83984 21.4703L43.0898 11.1503ZM43.1598 10.8703L8.33984 21.3303L10.7498 23.7403H12.1998L18.7698 30.3103V31.7003L21.7498 34.6803L55.5998 24.1003L53.1898 21.6903H51.6198L45.2898 15.3603V13.0103L43.1598 10.8703Z" fill="#231F20"/>
<path d="M18.8596 51.6298L18.8996 50.3298L12.2896 43.6698L10.7596 43.6398L8.57959 41.4098L43.1296 31.0298L45.2196 33.1198L45.1796 35.3798L51.5496 41.7998L53.1996 41.8398L55.3796 44.0598L21.7896 54.5598L18.8596 51.6298Z" fill="white"/>
<path d="M43.0898 31.17L45.0498 33.13V35.38V35.48L45.1198 35.55L51.4498 41.88L51.5198 41.95H51.6198H53.0798L55.1298 44L21.8298 54.42L19.0298 51.62V50.34V50.24L18.9598 50.17L12.3898 43.6L12.3198 43.53H12.2198H10.8798L8.83984 41.49L43.0898 31.17ZM43.1598 30.89L8.33984 41.35L10.7498 43.76H12.1998L18.7698 50.33V51.72L21.7498 54.7L55.5998 44.12L53.1898 41.71H51.6198L45.2898 35.38V33.03L43.1598 30.89Z" fill="#231F20"/>
<path d="M18.8594 51.6301L18.8994 32.0001L21.6694 34.7801L21.6394 54.4001L18.8594 51.6301Z" fill="white"/>
<path d="M19.0293 32.3104L21.5093 34.7904V54.1004L19.0293 51.6204V32.3104ZM18.7793 31.7004V51.7204L21.7593 54.7004V34.6904L18.7793 31.7004Z" fill="#231F20"/>
<path d="M21.8804 34.7799L55.4904 24.2799V44.0299L21.8804 54.5399V34.7799Z" fill="white"/>
<path d="M55.3598 24.4503V43.9403L22.0098 54.3603V34.8703L55.3598 24.4503ZM55.6098 24.1103L21.7598 34.6903V54.7103L55.6098 44.1303V24.1103Z" fill="#231F20"/>
<path d="M8.42969 41.26L8.46969 21.63L10.6697 23.83L10.6297 43.46L8.42969 41.26Z" fill="white"/>
<path d="M8.58984 21.9403L10.4998 23.8503V43.1603L8.58984 41.2503V21.9403ZM8.33984 21.3303V41.3503L10.7498 43.7603V23.7403L8.33984 21.3303Z" fill="#231F20"/>
<path d="M12.2896 43.6705L12.3296 24.0505L18.6896 30.4105L18.6496 50.0305L12.2896 43.6705Z" fill="white"/>
<path d="M12.4497 24.3503L18.5197 30.4203V49.7303L12.4497 43.6603V24.3503ZM12.1997 23.7403V43.7603L18.7697 50.3303V30.3203L12.1997 23.7403Z" fill="#231F20"/>
<path d="M12.0799 23.8703H10.8799V43.6403H12.0799V23.8703Z" fill="white"/>
<path d="M11.95 23.9903V43.5103H11V23.9903H11.95ZM12.2 23.7403H10.75V43.7603H12.2V23.7403Z" fill="#231F20"/>
<path d="M15.7095 22.8205C20.2895 20.8705 23.8495 20.5805 25.5695 20.5805C26.1095 20.5805 26.4095 20.6105 26.4195 20.6105L32.4095 26.6405C30.4395 28.7205 24.6395 30.5305 23.9295 30.7505L15.7095 22.8205Z" fill="white"/>
<path d="M25.5697 20.7101C25.9397 20.7101 26.1897 20.7201 26.3197 20.7301L32.2297 26.6401C30.2597 28.6001 24.8997 30.3201 23.9597 30.6001L15.9297 22.8501C20.4097 20.9901 23.8797 20.7101 25.5697 20.7101ZM25.5697 20.4601C23.9697 20.4601 20.2497 20.7301 15.4897 22.7801L23.8997 30.8901C23.8997 30.8901 30.5297 28.9301 32.5797 26.6401L26.4297 20.4901C26.4297 20.4901 26.1297 20.4601 25.5697 20.4601Z" fill="#231F20"/>
<path d="M26.4297 20.4899V30.0299" stroke="#231F20" stroke-width="0.25" stroke-miterlimit="10"/>
<path d="M38.2394 24.9004L32.1494 18.7704C34.9394 16.0304 39.8194 15.0104 40.4294 14.8904L48.2794 22.7404C44.0594 24.8004 39.3594 24.9004 38.4494 24.9004H38.2394Z" fill="white"/>
<path d="M40.4 15.0303L48.08 22.7103C43.92 24.6803 39.36 24.7803 38.46 24.7803C38.41 24.7803 38.38 24.7803 38.35 24.7803L32.34 18.7703C35.03 16.2003 39.58 15.2003 40.4 15.0303ZM40.48 14.7603C40.48 14.7603 34.99 15.7203 31.98 18.7703L38.24 25.0303C38.24 25.0303 38.32 25.0303 38.46 25.0303C39.52 25.0303 44.25 24.9003 48.5 22.7803L40.48 14.7603Z" fill="#231F20"/>
<path d="M40.48 14.7603V24.9303" stroke="#231F20" stroke-width="0.25" stroke-miterlimit="10"/>
<path d="M8.42969 74.6605L8.46969 47.4105L16.5097 55.8505L18.3497 70.0205V84.5705L8.42969 74.6605Z" fill="white"/>
<path d="M8.58984 47.7203L16.3598 55.8703L18.2298 70.0003V84.2703L8.59984 74.6403V47.7203M8.33984 47.1003V74.7503L18.4698 84.8803V70.0003L16.5998 55.7603L8.33984 47.1003Z" fill="#231F20"/>
<path d="M77.96 49.6905L78 22.4505L86.03 30.8905L87.88 45.0505V59.6105L77.96 49.6905Z" fill="white"/>
<path d="M78.1201 22.7603L85.8901 30.9103L87.7601 45.0303V59.3003L78.1301 49.6703V22.7603M77.8701 22.1403V49.7903L88.0001 59.9103V45.0403L86.1201 30.8003L77.8701 22.1403Z" fill="#231F20"/>
<path d="M8.57031 47.15L77.8403 22.28L85.9003 30.75L16.6303 55.62L8.57031 47.15Z" fill="white"/>
<path d="M77.7999 22.4303L85.6798 30.7003L16.6698 55.4703L8.78984 47.2003L77.7999 22.4303ZM77.8698 22.1403L8.33984 47.1003L16.5898 55.7603L86.1198 30.8003L77.8698 22.1403Z" fill="#231F20"/>
<path d="M16.7295 55.8499L86.0195 30.9699L87.8695 44.9499L18.5795 69.8299L16.7295 55.8499Z" fill="white"/>
<path d="M85.9196 31.1403L87.7296 44.8703L18.6796 69.6603L16.8696 55.9303L85.9196 31.1403ZM86.1196 30.8003L16.5996 55.7603L18.4796 70.0003L87.9996 45.0403L86.1196 30.8003Z" fill="#231F20"/>
<path d="M18.6006 70.0899L87.8806 45.2099V59.8199L18.6006 84.6999V70.0899Z" fill="white"/>
<path d="M87.75 45.3903V59.7303L18.73 84.5203V70.1703L87.75 45.3903ZM88 45.0403L18.48 70.0003V84.8803L88 59.9103V45.0403Z" fill="#231F20"/>
<path d="M62.6094 57.9303L83.1194 54.5703L90.2894 65.4703L68.8394 69.3003L62.6094 57.9303Z" fill="white"/>
<path d="M83.0594 54.7103L90.0894 65.3803L68.8994 69.1603L62.8094 58.0203L83.0594 54.7103ZM83.1794 54.4403L62.4194 57.8403L68.7694 69.4403L90.4994 65.5603L83.1794 54.4403Z" fill="#231F20"/>
<path d="M68.8795 69.5406L90.3395 65.7106L89.2195 71.7106L67.7495 75.5406L68.8795 69.5406Z" fill="white"/>
<path d="M90.1894 65.8703L89.1094 71.6003L67.9094 75.3803L68.9894 69.6503L90.1894 65.8703ZM90.4994 65.5603L68.7694 69.4403L67.5894 75.7003L89.3194 71.8203L90.4994 65.5603Z" fill="#231F20"/>
<path d="M61.3491 64.0203L62.4791 58.2003L68.6591 69.5003L67.5391 75.3303L61.3491 64.0203Z" fill="white"/>
<path d="M62.5393 58.5703L68.5093 69.4803L67.4793 74.9603L61.5093 64.0403L62.5393 58.5703ZM62.4193 57.8303L61.2393 64.0803L67.5893 75.6903L68.7693 69.4303L62.4193 57.8303Z" fill="#231F20"/>
<path d="M64.8793 59.45C64.7593 59.43 64.6593 59.36 64.5993 59.27C64.5293 59.17 64.5093 59.05 64.5293 58.94C64.5693 58.73 64.7493 58.58 64.9593 58.58C65.2793 58.63 65.4393 58.87 65.3893 59.1C65.3493 59.31 65.1693 59.46 64.9593 59.46C64.9293 59.46 64.9093 59.46 64.8793 59.45Z" fill="white"/>
<path d="M64.9588 58.6999C64.9788 58.6999 64.9988 58.6999 65.0188 58.7099C65.1888 58.7399 65.2988 58.9099 65.2688 59.0799C65.2388 59.2299 65.1088 59.3399 64.9588 59.3399C64.9388 59.3399 64.9188 59.3399 64.8988 59.3299C64.8188 59.3099 64.7388 59.2699 64.6988 59.1999C64.6588 59.1299 64.6288 59.0499 64.6488 58.9599C64.6788 58.8099 64.8088 58.6999 64.9588 58.6999ZM64.9588 58.4499C64.6888 58.4499 64.4488 58.6399 64.3988 58.9099C64.3388 59.2199 64.5388 59.5099 64.8488 59.5699C64.8888 59.5799 64.9188 59.5799 64.9588 59.5799C65.2288 59.5799 65.4688 59.3899 65.5188 59.1199C65.5788 58.8099 65.3788 58.5199 65.0688 58.4599C65.0288 58.4499 64.9888 58.4499 64.9588 58.4499Z" fill="#231F20"/>
<path d="M68.1789 61.2306C68.0589 61.2106 67.9589 61.1406 67.8989 61.0506C67.8389 60.9606 67.8089 60.8306 67.8289 60.7206C67.8689 60.5106 68.0489 60.3606 68.2589 60.3606C68.5789 60.4106 68.7389 60.6506 68.6889 60.8806C68.6489 61.0906 68.4689 61.2406 68.2589 61.2406C68.2389 61.2406 68.2089 61.2406 68.1789 61.2306Z" fill="white"/>
<path d="M68.2591 60.4806C68.2791 60.4806 68.2991 60.4806 68.3191 60.4906C68.3991 60.5106 68.4791 60.5506 68.5191 60.6206C68.5591 60.6906 68.5891 60.7706 68.5691 60.8606C68.5391 61.0106 68.4091 61.1206 68.2591 61.1206C68.2391 61.1206 68.2191 61.1206 68.1991 61.1106C68.1191 61.0906 68.0391 61.0506 67.9991 60.9806C67.9591 60.9106 67.9291 60.8306 67.9491 60.7406C67.9791 60.5906 68.1091 60.4806 68.2591 60.4806ZM68.2591 60.2306C67.9891 60.2306 67.7491 60.4206 67.6991 60.6906C67.6391 61.0006 67.8391 61.2906 68.1491 61.3506C68.1891 61.3606 68.2191 61.3606 68.2591 61.3606C68.5291 61.3606 68.7691 61.1706 68.8191 60.9006C68.8791 60.5906 68.6791 60.3006 68.3691 60.2406C68.3291 60.2306 68.2991 60.2306 68.2591 60.2306Z" fill="#231F20"/>
<path d="M67.3396 63.8404C67.0996 63.7904 66.9396 63.5604 66.9896 63.3204C67.0296 63.1104 67.2096 62.9604 67.4196 62.9604C67.7396 63.0104 67.8996 63.2404 67.8496 63.4804C67.8096 63.6904 67.6296 63.8404 67.4196 63.8404C67.3996 63.8404 67.3696 63.8404 67.3396 63.8404Z" fill="white"/>
<path d="M67.4193 63.09C67.4393 63.09 67.4593 63.09 67.4793 63.1C67.5593 63.12 67.6393 63.16 67.6793 63.23C67.7193 63.3 67.7493 63.38 67.7293 63.47C67.6993 63.62 67.5693 63.73 67.4193 63.73C67.3993 63.73 67.3793 63.73 67.3593 63.72C67.2793 63.7 67.1993 63.66 67.1593 63.59C67.1193 63.52 67.0893 63.44 67.1093 63.35C67.1393 63.19 67.2693 63.09 67.4193 63.09ZM67.4193 62.84C67.1493 62.84 66.9093 63.03 66.8593 63.3C66.7993 63.61 66.9993 63.9 67.3093 63.96C67.3493 63.97 67.3793 63.97 67.4193 63.97C67.6893 63.97 67.9293 63.78 67.9793 63.51C68.0393 63.2 67.8393 62.91 67.5293 62.85C67.4893 62.84 67.4593 62.84 67.4193 62.84Z" fill="#231F20"/>
<path d="M70.4095 65.3207C70.1695 65.2807 70.0095 65.0407 70.0595 64.8007C70.0995 64.5907 70.2795 64.4407 70.4895 64.4407C70.6895 64.4707 70.7895 64.5307 70.8595 64.6307C70.9295 64.7307 70.9495 64.8507 70.9295 64.9607C70.8895 65.1707 70.7095 65.3207 70.4995 65.3207C70.4695 65.3307 70.4395 65.3307 70.4095 65.3207Z" fill="white"/>
<path d="M70.4891 64.5703C70.5091 64.5703 70.5291 64.5703 70.5491 64.5803C70.6291 64.6003 70.7091 64.6403 70.7491 64.7103C70.7891 64.7803 70.8191 64.8603 70.7991 64.9503C70.7691 65.1003 70.6391 65.2103 70.4891 65.2103C70.4691 65.2103 70.4491 65.2103 70.4291 65.2003C70.2591 65.1703 70.1491 65.0003 70.1791 64.8303C70.2091 64.6803 70.3391 64.5703 70.4891 64.5703ZM70.4891 64.3203C70.2191 64.3203 69.9791 64.5103 69.9291 64.7803C69.8691 65.0903 70.0691 65.3803 70.3791 65.4403C70.4191 65.4503 70.4491 65.4503 70.4891 65.4503C70.7591 65.4503 70.9991 65.2603 71.0491 64.9903C71.1091 64.6803 70.9091 64.3903 70.5991 64.3303C70.5591 64.3203 70.5291 64.3203 70.4891 64.3203Z" fill="#231F20"/>
<path d="M69.7492 67.7208C69.7192 67.7208 69.6892 67.7208 69.6692 67.7108C69.4292 67.6708 69.2692 67.4308 69.3192 67.2008C69.3592 66.9908 69.5392 66.8408 69.7492 66.8408C70.0692 66.8908 70.2292 67.1208 70.1892 67.3608C70.1492 67.5708 69.9692 67.7208 69.7492 67.7208Z" fill="white"/>
<path d="M69.7488 66.9607C69.7688 66.9607 69.7888 66.9607 69.8088 66.9707C69.8888 66.9907 69.9688 67.0307 70.0088 67.1007C70.0488 67.1707 70.0788 67.2507 70.0588 67.3407C70.0288 67.4907 69.8988 67.6007 69.7488 67.6007C69.7288 67.6007 69.7089 67.6007 69.6889 67.5907C69.5189 67.5607 69.4089 67.3907 69.4389 67.2207C69.4689 67.0707 69.5988 66.9607 69.7488 66.9607ZM69.7488 66.7107C69.4788 66.7107 69.2389 66.9007 69.1889 67.1707C69.1289 67.4807 69.3288 67.7707 69.6388 67.8307C69.6788 67.8407 69.7088 67.8407 69.7488 67.8407C70.0188 67.8407 70.2588 67.6507 70.3088 67.3807C70.3688 67.0707 70.1688 66.7807 69.8588 66.7207C69.8188 66.7107 69.7888 66.7107 69.7488 66.7107Z" fill="#231F20"/>
<path d="M69.299 58.7603C69.269 58.7603 69.239 58.7603 69.219 58.7503C69.099 58.7303 68.999 58.6603 68.939 58.5703C68.879 58.4803 68.849 58.3603 68.869 58.2403C68.909 58.0303 69.089 57.8803 69.299 57.8803C69.619 57.9303 69.779 58.1603 69.729 58.4003C69.699 58.6103 69.509 58.7603 69.299 58.7603Z" fill="white"/>
<path d="M69.2991 58.0003C69.3191 58.0003 69.3391 58.0003 69.3591 58.0103C69.4391 58.0303 69.5191 58.0703 69.5591 58.1403C69.5991 58.2103 69.6291 58.2903 69.6091 58.3803C69.5791 58.5303 69.4491 58.6403 69.2991 58.6403C69.2791 58.6403 69.2591 58.6403 69.2391 58.6303C69.1591 58.6103 69.0791 58.5703 69.0391 58.5003C68.9991 58.4303 68.9691 58.3503 68.9891 58.2603C69.0191 58.1103 69.1491 58.0003 69.2991 58.0003ZM69.2991 57.7503C69.0291 57.7503 68.7891 57.9403 68.7391 58.2103C68.6791 58.5203 68.8791 58.8103 69.1891 58.8703C69.2291 58.8803 69.2591 58.8803 69.2991 58.8803C69.5691 58.8803 69.8091 58.6903 69.8591 58.4203C69.9191 58.1103 69.7191 57.8203 69.4091 57.7603C69.3691 57.7603 69.3391 57.7503 69.2991 57.7503Z" fill="#231F20"/>
<path d="M72.5095 60.4606C72.3895 60.4406 72.2895 60.3706 72.2295 60.2806C72.1695 60.1906 72.1395 60.0606 72.1595 59.9506C72.1995 59.7406 72.3795 59.5906 72.5895 59.5906C72.9095 59.6406 73.0695 59.8806 73.0195 60.1106C72.9795 60.3206 72.7995 60.4706 72.5895 60.4706C72.5695 60.4706 72.5395 60.4606 72.5095 60.4606Z" fill="white"/>
<path d="M72.5897 59.7106C72.6097 59.7106 72.6297 59.7106 72.6497 59.7206C72.8197 59.7506 72.9297 59.9206 72.8997 60.0906C72.8697 60.2406 72.7397 60.3506 72.5897 60.3506C72.5697 60.3506 72.5497 60.3506 72.5297 60.3406C72.4497 60.3206 72.3697 60.2806 72.3297 60.2106C72.2897 60.1406 72.2597 60.0606 72.2797 59.9706C72.3097 59.8206 72.4397 59.7106 72.5897 59.7106ZM72.5897 59.4606C72.3197 59.4606 72.0797 59.6506 72.0297 59.9206C71.9697 60.2306 72.1697 60.5206 72.4797 60.5806C72.5197 60.5906 72.5497 60.5906 72.5897 60.5906C72.8597 60.5906 73.0997 60.4006 73.1497 60.1306C73.2097 59.8206 73.0097 59.5306 72.6997 59.4706C72.6597 59.4606 72.6297 59.4606 72.5897 59.4606Z" fill="#231F20"/>
<path d="M71.6688 62.9905C71.6388 62.9905 71.6088 62.9905 71.5888 62.9805C71.4688 62.9605 71.3688 62.8905 71.3088 62.8005C71.2388 62.7005 71.2188 62.5905 71.2388 62.4705C71.2788 62.2605 71.4588 62.1105 71.6688 62.1105C71.9888 62.1605 72.1488 62.3905 72.0988 62.6305C72.0588 62.8305 71.8788 62.9905 71.6688 62.9905Z" fill="white"/>
<path d="M71.659 62.2305C71.679 62.2305 71.699 62.2305 71.719 62.2405C71.799 62.2605 71.879 62.3005 71.919 62.3705C71.959 62.4405 71.989 62.5205 71.969 62.6105C71.939 62.7605 71.809 62.8705 71.659 62.8705C71.639 62.8705 71.619 62.8705 71.599 62.8605C71.429 62.8305 71.319 62.6605 71.349 62.4905C71.379 62.3405 71.509 62.2305 71.659 62.2305ZM71.659 61.9805C71.389 61.9805 71.149 62.1705 71.099 62.4405C71.039 62.7505 71.239 63.0405 71.549 63.1005C71.589 63.1105 71.619 63.1105 71.659 63.1105C71.929 63.1105 72.169 62.9205 72.219 62.6505C72.279 62.3405 72.079 62.0505 71.769 61.9905C71.729 61.9805 71.699 61.9805 71.659 61.9805Z" fill="#231F20"/>
<path d="M73.56 58.0604C73.44 58.0404 73.34 57.9704 73.28 57.8804C73.21 57.7804 73.19 57.6604 73.21 57.5504C73.25 57.3404 73.43 57.1904 73.64 57.1904C73.96 57.2404 74.12 57.4804 74.07 57.7104C74.03 57.9204 73.85 58.0704 73.64 58.0704C73.62 58.0704 73.59 58.0604 73.56 58.0604Z" fill="white"/>
<path d="M73.6395 57.3103C73.6595 57.3103 73.6795 57.3103 73.6995 57.3203C73.8695 57.3503 73.9795 57.5203 73.9495 57.6903C73.9195 57.8403 73.7895 57.9503 73.6395 57.9503C73.6195 57.9503 73.5995 57.9503 73.5795 57.9403C73.4995 57.9203 73.4195 57.8803 73.3795 57.8103C73.3395 57.7403 73.3095 57.6603 73.3295 57.5703C73.3595 57.4203 73.4895 57.3103 73.6395 57.3103ZM73.6395 57.0603C73.3695 57.0603 73.1295 57.2503 73.0795 57.5203C73.0195 57.8303 73.2195 58.1203 73.5295 58.1803C73.5695 58.1903 73.5995 58.1903 73.6395 58.1903C73.9095 58.1903 74.1495 58.0003 74.1995 57.7303C74.2595 57.4203 74.0595 57.1303 73.7495 57.0703C73.7095 57.0603 73.6795 57.0603 73.6395 57.0603Z" fill="#231F20"/>
<path d="M74.7698 64.4812C74.5298 64.4412 74.3698 64.2012 74.4198 63.9612C74.4598 63.7512 74.6398 63.6012 74.8498 63.6012C75.1698 63.6512 75.3298 63.8912 75.2798 64.1212C75.2398 64.3312 75.0598 64.4812 74.8498 64.4812C74.8198 64.4912 74.7898 64.4912 74.7698 64.4812Z" fill="white"/>
<path d="M74.8494 63.7308C74.8694 63.7308 74.8894 63.7308 74.9094 63.7408C74.9894 63.7608 75.0694 63.8008 75.1094 63.8708C75.1494 63.9408 75.1794 64.0208 75.1594 64.1108C75.1294 64.2608 74.9994 64.3708 74.8494 64.3708C74.8294 64.3708 74.8094 64.3708 74.7894 64.3608C74.6194 64.3308 74.5094 64.1608 74.5394 63.9908C74.5594 63.8408 74.6894 63.7308 74.8494 63.7308ZM74.8494 63.4808C74.5794 63.4808 74.3394 63.6708 74.2894 63.9408C74.2294 64.2508 74.4294 64.5408 74.7394 64.6008C74.7794 64.6108 74.8094 64.6108 74.8494 64.6108C75.1194 64.6108 75.3594 64.4208 75.4094 64.1508C75.4694 63.8408 75.2694 63.5508 74.9594 63.4908C74.9194 63.4808 74.8794 63.4808 74.8494 63.4808Z" fill="#231F20"/>
<path d="M74.1493 66.8305C74.1193 66.8305 74.0893 66.8305 74.0693 66.8205C73.9493 66.8005 73.8493 66.7305 73.7893 66.6405C73.7193 66.5405 73.6993 66.4305 73.7193 66.3105C73.7593 66.1005 73.9393 65.9505 74.1493 65.9505C74.4693 66.0005 74.6293 66.2305 74.5793 66.4705C74.5493 66.6705 74.3593 66.8305 74.1493 66.8305Z" fill="white"/>
<path d="M74.1488 66.0704C74.1688 66.0704 74.1888 66.0704 74.2088 66.0804C74.3788 66.1104 74.4888 66.2804 74.4588 66.4504C74.4288 66.6004 74.2988 66.7104 74.1488 66.7104C74.1288 66.7104 74.1088 66.7104 74.0888 66.7004C74.0088 66.6804 73.9288 66.6404 73.8888 66.5704C73.8488 66.5004 73.8188 66.4204 73.8388 66.3304C73.8688 66.1804 73.9988 66.0704 74.1488 66.0704ZM74.1488 65.8204C73.8788 65.8204 73.6388 66.0104 73.5888 66.2804C73.5288 66.5904 73.7288 66.8804 74.0388 66.9404C74.0788 66.9504 74.1088 66.9504 74.1488 66.9504C74.4188 66.9504 74.6588 66.7604 74.7088 66.4904C74.7688 66.1804 74.5688 65.8904 74.2588 65.8304C74.2188 65.8204 74.1888 65.8204 74.1488 65.8204Z" fill="#231F20"/>
<path d="M76.8396 59.6908C76.7196 59.6708 76.6196 59.6008 76.5596 59.5108C76.4996 59.4208 76.4696 59.2908 76.4896 59.1808C76.5296 58.9708 76.7096 58.8208 76.9196 58.8208C77.2396 58.8708 77.3996 59.1008 77.3496 59.3408C77.3096 59.5508 77.1296 59.7008 76.9196 59.7008C76.8996 59.7008 76.8696 59.6908 76.8396 59.6908Z" fill="white"/>
<path d="M76.929 58.9407C76.949 58.9407 76.969 58.9407 76.989 58.9507C77.069 58.9707 77.149 59.0107 77.189 59.0807C77.229 59.1507 77.259 59.2307 77.239 59.3207C77.209 59.4707 77.079 59.5807 76.929 59.5807C76.909 59.5807 76.889 59.5807 76.869 59.5707C76.699 59.5407 76.589 59.3707 76.619 59.2007C76.639 59.0507 76.769 58.9407 76.929 58.9407ZM76.929 58.6907C76.659 58.6907 76.419 58.8807 76.369 59.1507C76.309 59.4607 76.509 59.7507 76.819 59.8107C76.859 59.8207 76.889 59.8207 76.929 59.8207C77.199 59.8207 77.439 59.6307 77.489 59.3607C77.549 59.0507 77.349 58.7607 77.039 58.7007C76.999 58.6907 76.959 58.6907 76.929 58.6907Z" fill="#231F20"/>
<path d="M75.9099 62.1301C75.8799 62.1301 75.8499 62.1301 75.8299 62.1201C75.5899 62.0801 75.4299 61.8401 75.4799 61.6101C75.5199 61.4001 75.6999 61.2501 75.9099 61.2501C76.2299 61.3001 76.3899 61.5301 76.3499 61.7701C76.2999 61.9801 76.1199 62.1301 75.9099 62.1301Z" fill="white"/>
<path d="M75.9095 61.37C75.9295 61.37 75.9495 61.37 75.9695 61.38C76.0495 61.4 76.1295 61.44 76.1695 61.51C76.2095 61.58 76.2395 61.66 76.2195 61.75C76.1895 61.89 76.0595 62 75.9095 62C75.8895 62 75.8695 62 75.8495 61.99C75.7695 61.97 75.6895 61.93 75.6495 61.86C75.6095 61.79 75.5795 61.71 75.5995 61.62C75.6195 61.48 75.7495 61.37 75.9095 61.37ZM75.9095 61.12C75.6395 61.12 75.3995 61.31 75.3495 61.58C75.2895 61.89 75.4895 62.18 75.7995 62.24C75.8395 62.25 75.8695 62.25 75.9095 62.25C76.1795 62.25 76.4195 62.06 76.4695 61.79C76.5295 61.48 76.3295 61.19 76.0195 61.13C75.9795 61.12 75.9395 61.12 75.9095 61.12Z" fill="#231F20"/>
<path d="M77.9889 57.3708C77.9589 57.3708 77.9289 57.3708 77.9089 57.3608C77.7889 57.3408 77.6889 57.2708 77.6289 57.1808C77.5689 57.0908 77.5389 56.9708 77.5589 56.8508C77.5989 56.6408 77.7789 56.4908 77.9889 56.4908C78.1889 56.5208 78.2889 56.5808 78.3589 56.6808C78.4289 56.7808 78.4489 56.8908 78.4289 57.0108C78.3789 57.2208 78.1989 57.3708 77.9889 57.3708Z" fill="white"/>
<path d="M77.9793 56.6107C77.9993 56.6107 78.0193 56.6107 78.0393 56.6207C78.1193 56.6407 78.1993 56.6807 78.2393 56.7507C78.2793 56.8207 78.3093 56.9007 78.2893 56.9907C78.2593 57.1407 78.1293 57.2507 77.9793 57.2507C77.9593 57.2507 77.9393 57.2507 77.9193 57.2407C77.8393 57.2207 77.7593 57.1807 77.7193 57.1107C77.6793 57.0407 77.6493 56.9607 77.6693 56.8707C77.6993 56.7207 77.8293 56.6107 77.9793 56.6107ZM77.9793 56.3607C77.7093 56.3607 77.4693 56.5507 77.4193 56.8207C77.3593 57.1307 77.5593 57.4207 77.8693 57.4807C77.9093 57.4907 77.9393 57.4907 77.9793 57.4907C78.2493 57.4907 78.4893 57.3007 78.5393 57.0307C78.5993 56.7207 78.3993 56.4307 78.0893 56.3707C78.0493 56.3707 78.0193 56.3607 77.9793 56.3607Z" fill="#231F20"/>
<path d="M79.1194 63.6407C78.8794 63.6007 78.7194 63.3607 78.7694 63.1207C78.8094 62.9107 78.9894 62.7607 79.1994 62.7607C79.5194 62.8107 79.6794 63.0507 79.6294 63.2807C79.5894 63.4907 79.4094 63.6407 79.1994 63.6407C79.1694 63.6507 79.1494 63.6407 79.1194 63.6407Z" fill="white"/>
<path d="M79.199 62.8903C79.219 62.8903 79.239 62.8903 79.259 62.9003C79.339 62.9203 79.419 62.9603 79.459 63.0303C79.499 63.1003 79.529 63.1803 79.509 63.2703C79.479 63.4203 79.349 63.5303 79.199 63.5303C79.179 63.5303 79.159 63.5303 79.139 63.5203C79.059 63.5003 78.979 63.4603 78.939 63.3903C78.899 63.3203 78.869 63.2403 78.889 63.1503C78.919 63.0003 79.049 62.8903 79.199 62.8903ZM79.199 62.6403C78.929 62.6403 78.689 62.8303 78.639 63.1003C78.579 63.4103 78.779 63.7003 79.089 63.7603C79.129 63.7703 79.159 63.7703 79.199 63.7703C79.469 63.7703 79.709 63.5803 79.759 63.3103C79.819 63.0003 79.619 62.7103 79.309 62.6503C79.269 62.6403 79.229 62.6403 79.199 62.6403Z" fill="#231F20"/>
<path d="M78.47 65.9305C78.23 65.8905 78.07 65.6505 78.12 65.4105C78.16 65.2005 78.34 65.0505 78.55 65.0505C78.87 65.1005 79.03 65.3305 78.98 65.5705C78.94 65.7805 78.76 65.9305 78.55 65.9305C78.52 65.9305 78.5 65.9305 78.47 65.9305Z" fill="white"/>
<path d="M78.5496 65.1801C78.5696 65.1801 78.5896 65.1801 78.6096 65.1901C78.7796 65.2201 78.8896 65.3901 78.8596 65.5601C78.8296 65.7101 78.6996 65.8201 78.5496 65.8201C78.5296 65.8201 78.5096 65.8201 78.4896 65.8101C78.3196 65.7801 78.2096 65.6101 78.2396 65.4401C78.2696 65.2801 78.3996 65.1801 78.5496 65.1801ZM78.5496 64.9301C78.2796 64.9301 78.0396 65.1201 77.9896 65.3901C77.9296 65.7001 78.1296 65.9901 78.4396 66.0501C78.4796 66.0601 78.5096 66.0601 78.5496 66.0601C78.8196 66.0601 79.0596 65.8701 79.1096 65.6001C79.1696 65.2901 78.9696 65.0001 78.6596 64.9401C78.6196 64.9301 78.5796 64.9301 78.5496 64.9301Z" fill="#231F20"/>
<path d="M81.1795 58.9203C80.9395 58.8803 80.7795 58.6403 80.8295 58.4003C80.8695 58.1903 81.0495 58.0403 81.2595 58.0403C81.5795 58.0903 81.7395 58.3203 81.6895 58.5603C81.6495 58.7703 81.4695 58.9203 81.2595 58.9203C81.2295 58.9203 81.1995 58.9203 81.1795 58.9203Z" fill="white"/>
<path d="M81.2591 58.1699C81.2791 58.1699 81.2991 58.1699 81.3191 58.1799C81.3991 58.1999 81.4791 58.2399 81.5191 58.3099C81.5591 58.3799 81.5891 58.4599 81.5691 58.5499C81.5391 58.6999 81.4091 58.8099 81.2591 58.8099C81.2391 58.8099 81.2191 58.8099 81.1991 58.7999C81.1191 58.7799 81.0391 58.7399 80.9991 58.6699C80.9591 58.5999 80.9291 58.5199 80.9491 58.4299C80.9791 58.2699 81.1091 58.1699 81.2591 58.1699ZM81.2591 57.9199C80.9891 57.9199 80.7491 58.1099 80.6991 58.3799C80.6391 58.6899 80.8391 58.9799 81.1491 59.0399C81.1891 59.0499 81.2191 59.0499 81.2591 59.0499C81.5291 59.0499 81.7691 58.8599 81.8191 58.5899C81.8791 58.2799 81.6791 57.9899 81.3691 57.9299C81.3291 57.9199 81.2891 57.9199 81.2591 57.9199Z" fill="#231F20"/>
<path d="M80.0698 61.2604C79.9498 61.2404 79.8498 61.1704 79.7898 61.0804C79.7198 60.9804 79.6998 60.8604 79.7198 60.7504C79.7598 60.5404 79.9398 60.3904 80.1498 60.3904C80.4698 60.4404 80.6298 60.6804 80.5798 60.9104C80.5398 61.1204 80.3598 61.2704 80.1498 61.2704C80.1198 61.2704 80.0998 61.2704 80.0698 61.2604Z" fill="white"/>
<path d="M80.1492 60.5103C80.1692 60.5103 80.1892 60.5103 80.2092 60.5203C80.2892 60.5403 80.3692 60.5803 80.4092 60.6503C80.4492 60.7203 80.4792 60.8003 80.4592 60.8903C80.4292 61.0403 80.2992 61.1503 80.1492 61.1503C80.1292 61.1503 80.1092 61.1503 80.0892 61.1403C80.0092 61.1203 79.9292 61.0803 79.8892 61.0103C79.8492 60.9403 79.8192 60.8603 79.8392 60.7703C79.8692 60.6203 79.9992 60.5103 80.1492 60.5103ZM80.1492 60.2603C79.8792 60.2603 79.6392 60.4503 79.5892 60.7203C79.5292 61.0303 79.7292 61.3203 80.0392 61.3803C80.0792 61.3903 80.1092 61.3903 80.1492 61.3903C80.4192 61.3903 80.6592 61.2003 80.7092 60.9303C80.7692 60.6203 80.5692 60.3303 80.2592 60.2703C80.2192 60.2603 80.1792 60.2603 80.1492 60.2603Z" fill="#231F20"/>
<path d="M83.4701 62.8004C83.3501 62.7804 83.2501 62.7104 83.1901 62.6204C83.1201 62.5204 83.1001 62.4004 83.1201 62.2904C83.1601 62.0804 83.3401 61.9304 83.5501 61.9304C83.8701 61.9804 84.0301 62.2204 83.9801 62.4504C83.9401 62.6604 83.7601 62.8104 83.5501 62.8104C83.5301 62.8004 83.5001 62.8004 83.4701 62.8004Z" fill="white"/>
<path d="M83.5496 62.0503C83.5696 62.0503 83.5896 62.0503 83.6096 62.0603C83.6896 62.0803 83.7696 62.1203 83.8096 62.1903C83.8496 62.2603 83.8796 62.3403 83.8596 62.4303C83.8296 62.5803 83.6996 62.6903 83.5496 62.6903C83.5296 62.6903 83.5096 62.6903 83.4896 62.6803C83.3196 62.6503 83.2096 62.4803 83.2396 62.3103C83.2696 62.1503 83.3996 62.0503 83.5496 62.0503ZM83.5496 61.8003C83.2796 61.8003 83.0396 61.9903 82.9896 62.2603C82.9296 62.5703 83.1296 62.8603 83.4396 62.9203C83.4796 62.9303 83.5096 62.9303 83.5496 62.9303C83.8196 62.9303 84.0596 62.7403 84.1096 62.4703C84.1696 62.1603 83.9696 61.8703 83.6596 61.8103C83.6196 61.8003 83.5896 61.8003 83.5496 61.8003Z" fill="#231F20"/>
<path d="M82.8699 65.0402C82.6299 65.0002 82.4699 64.7601 82.5199 64.5201C82.5599 64.3101 82.7399 64.1602 82.9499 64.1602C83.2699 64.2102 83.4299 64.4402 83.3799 64.6802C83.3399 64.8902 83.1599 65.0402 82.9499 65.0402C82.9199 65.0402 82.8899 65.0402 82.8699 65.0402Z" fill="white"/>
<path d="M82.9495 64.2801C82.9695 64.2801 82.9895 64.2801 83.0095 64.2901C83.1795 64.3201 83.2895 64.4901 83.2595 64.6601C83.2295 64.8101 83.0995 64.9201 82.9495 64.9201C82.9295 64.9201 82.9095 64.9201 82.8895 64.9101C82.7195 64.8801 82.6095 64.7101 82.6395 64.5401C82.6595 64.3901 82.7995 64.2801 82.9495 64.2801ZM82.9495 64.0301C82.6795 64.0301 82.4395 64.2201 82.3895 64.4901C82.3295 64.8001 82.5295 65.0901 82.8395 65.1501C82.8795 65.1601 82.9095 65.1601 82.9495 65.1601C83.2195 65.1601 83.4595 64.9701 83.5095 64.7001C83.5695 64.3901 83.3695 64.1001 83.0595 64.0401C83.0195 64.0401 82.9795 64.0301 82.9495 64.0301Z" fill="#231F20"/>
<path d="M82.2494 56.67C82.1294 56.65 82.0294 56.58 81.9694 56.49C81.8994 56.39 81.8794 56.27 81.8994 56.16C81.9394 55.95 82.1194 55.8 82.3294 55.8C82.6494 55.85 82.8094 56.09 82.7594 56.32C82.7194 56.53 82.5394 56.68 82.3294 56.68C82.2994 56.68 82.2694 56.67 82.2494 56.67Z" fill="white"/>
<path d="M82.3289 55.9199C82.3489 55.9199 82.3689 55.9199 82.3889 55.9299C82.4689 55.9499 82.5489 55.9899 82.5889 56.0599C82.6289 56.1299 82.6589 56.2099 82.6389 56.2999C82.6089 56.4499 82.4789 56.5599 82.3289 56.5599C82.3089 56.5599 82.2889 56.5599 82.2689 56.5499C82.1889 56.5299 82.1089 56.4899 82.0689 56.4199C82.0289 56.3499 81.9989 56.2699 82.0189 56.1799C82.0389 56.0299 82.1689 55.9199 82.3289 55.9199ZM82.3289 55.6699C82.0589 55.6699 81.8189 55.8599 81.7689 56.1299C81.7089 56.4399 81.9089 56.7299 82.2189 56.7899C82.2589 56.7999 82.2889 56.7999 82.3289 56.7999C82.5989 56.7999 82.8389 56.6099 82.8889 56.3399C82.9489 56.0299 82.7489 55.7399 82.4389 55.6799C82.3989 55.6699 82.3589 55.6699 82.3289 55.6699Z" fill="#231F20"/>
<path d="M84.3094 60.4004C84.0694 60.3604 83.9094 60.1204 83.9594 59.8804C83.9994 59.6704 84.1794 59.5204 84.3894 59.5204C84.7094 59.5704 84.8694 59.8104 84.8194 60.0404C84.7794 60.2504 84.5994 60.4004 84.3894 60.4004C84.3694 60.4104 84.3394 60.4104 84.3094 60.4004Z" fill="white"/>
<path d="M84.389 59.65C84.409 59.65 84.429 59.65 84.449 59.66C84.619 59.69 84.729 59.86 84.699 60.03C84.669 60.18 84.539 60.29 84.389 60.29C84.369 60.29 84.349 60.29 84.329 60.28C84.249 60.26 84.169 60.22 84.129 60.15C84.089 60.08 84.059 60 84.079 59.91C84.109 59.76 84.239 59.65 84.389 59.65ZM84.389 59.4C84.119 59.4 83.879 59.59 83.829 59.86C83.769 60.17 83.969 60.46 84.279 60.52C84.319 60.53 84.349 60.53 84.389 60.53C84.659 60.53 84.899 60.34 84.949 60.07C85.009 59.76 84.809 59.47 84.499 59.41C84.459 59.4 84.429 59.4 84.389 59.4Z" fill="#231F20"/>
<path d="M87.2595 64.1407C87.1395 64.1207 87.0395 64.0507 86.9795 63.9607C86.9195 63.8707 86.8895 63.7407 86.9095 63.6307C86.9495 63.4207 87.1295 63.2707 87.3395 63.2707C87.6595 63.3207 87.8195 63.5607 87.7695 63.7907C87.7295 64.0007 87.5495 64.1507 87.3395 64.1507C87.3195 64.1507 87.2895 64.1507 87.2595 64.1407Z" fill="white"/>
<path d="M87.3489 63.3906C87.3689 63.3906 87.389 63.3906 87.409 63.4006C87.579 63.4306 87.689 63.6006 87.659 63.7706C87.629 63.9206 87.4989 64.0306 87.3489 64.0306C87.3289 64.0306 87.3089 64.0306 87.2889 64.0206C87.2089 64.0006 87.1289 63.9606 87.0889 63.8906C87.0489 63.8206 87.0189 63.7406 87.0389 63.6506C87.0589 63.5006 87.1889 63.3906 87.3489 63.3906ZM87.3489 63.1406C87.0789 63.1406 86.8389 63.3306 86.7889 63.6006C86.7289 63.9106 86.9289 64.2006 87.2389 64.2606C87.2789 64.2706 87.3089 64.2706 87.3489 64.2706C87.6189 64.2706 87.859 64.0806 87.909 63.8106C87.969 63.5006 87.7689 63.2106 87.4589 63.1506C87.4189 63.1506 87.3789 63.1406 87.3489 63.1406Z" fill="#231F20"/>
<path d="M39.2192 77.271L42.2792 75.961L44.8592 76.201L51.0292 73.141L50.8092 71.171L53.0892 70.091L60.2792 76.391L57.4992 77.731L55.4492 77.081L48.2392 80.601V82.821L45.9192 83.971L39.2192 77.271Z" fill="white"/>
<path d="M53.0593 70.2407L60.0493 76.3607L57.5193 77.5807L55.4793 76.9707L55.3893 76.9407L55.2993 76.9807L48.2393 80.4507L48.0993 80.5207V80.6807V82.7507L45.9293 83.8207L39.4293 77.3207L42.2593 76.1107L44.8393 76.3307L44.9093 76.3407L44.9693 76.3107L50.9893 73.3007L51.1493 73.2207L51.1293 73.0507L50.9293 71.2607L53.0593 70.2407ZM53.1093 69.9407L50.6793 71.1007L50.8993 73.0707L44.8793 76.0807L42.2293 75.8507L39.0093 77.2307L45.8993 84.1207L48.3693 82.9007V80.6807L55.4293 77.2107L57.5693 77.8507L60.5193 76.4307L53.1093 69.9407Z" fill="#231F20"/>
<path d="M39.2192 72.3207L42.5892 70.6907L44.6292 71.3507L51.0292 68.2007L50.8092 66.2307L53.0892 65.1507L60.2792 71.4507L57.4992 72.7907L55.4492 72.1407L48.2392 75.6507V77.8807L45.9192 79.0207L39.2192 72.3207Z" fill="white"/>
<path d="M53.0595 65.2904L60.0495 71.4104L57.5195 72.6304L55.4895 72.0204L55.3995 71.9904L55.3095 72.0304L48.2495 75.5004L48.1095 75.5704V75.7304V77.8004L45.9395 78.8704L39.4195 72.3504L42.5395 70.8404L44.5795 71.4704L44.6795 71.5004L44.7695 71.4604L50.9995 68.3504L51.1595 68.2704L51.1395 68.1004L50.9395 66.3104L53.0595 65.2904ZM53.1095 65.0004L50.6795 66.1604L50.8995 68.1204L44.6695 71.2304L42.5295 70.5804L38.9995 72.2904L45.8895 79.1804L48.3595 77.9604V75.7404L55.4195 72.2704L57.5595 72.9104L60.5095 71.4904L53.1095 65.0004Z" fill="#231F20"/>
<path d="M46.019 79.2506L48.239 78.1506V82.8206L46.019 83.9206V79.2506Z" fill="white"/>
<path d="M48.1092 78.3602V82.7502L46.1392 83.7302V79.3402L48.1092 78.3602ZM48.3592 77.9502L45.8892 79.1702V84.1202L48.3592 82.9002V77.9502Z" fill="#231F20"/>
<path d="M48.4897 75.8105L55.2897 72.4605V77.1305L48.4897 80.4705V75.8105Z" fill="white"/>
<path d="M55.1699 72.6601V77.0501L48.6099 80.2701V75.8801L55.1699 72.6601ZM55.4199 72.2601L48.3599 75.7301V80.6702L55.4199 77.2001V72.2601Z" fill="#231F20"/>
<path d="M55.54 77.1098V72.4298L57.43 72.9898V77.6798L55.54 77.1098Z" fill="white"/>
<path d="M55.6694 72.6002L57.3094 73.0901V77.5101L55.6694 77.0201V72.6002ZM55.4194 72.2601V77.2001L57.5594 77.8401V72.9001L55.4194 72.2601Z" fill="#231F20"/>
<path d="M57.6802 72.9802L60.3802 71.6702V76.3402L57.6802 77.6402V72.9802Z" fill="white"/>
<path d="M60.2596 71.8704V76.2604L57.8096 77.4404V73.0504L60.2596 71.8704ZM60.5096 71.4804L57.5596 72.9004V77.8404L60.5096 76.4204V71.4804Z" fill="#231F20"/>
<path d="M39.0894 77.1401L39.1294 72.5801L45.8094 79.2701L45.7694 83.8201L39.0894 77.1401Z" fill="white"/>
<path d="M39.2593 72.8904L45.6493 79.2804V83.5204L39.2593 77.1204V72.8904ZM39.0093 72.2804V77.2204L45.8993 84.1204V79.1804L39.0093 72.2804Z" fill="#231F20"/>
<path d="M9.76953 81.8608V77.3208L11.4895 79.0408C12.8295 83.1908 15.7895 83.6508 16.9995 83.6508C17.1595 83.6508 17.2695 83.6408 17.3395 83.6408L18.7195 85.0208L18.6895 89.7308L9.76953 81.8608Z" fill="white"/>
<path d="M9.88965 77.6206L11.3596 79.0906C12.7996 83.4406 16.0396 83.7806 16.9996 83.7806C17.1196 83.7806 17.2196 83.7806 17.2896 83.7706L18.5596 85.0406V89.4506L9.88965 81.8006V77.6206ZM9.63965 77.0106V81.9106L18.8096 90.0006V84.9306L17.3796 83.5006C17.3796 83.5006 17.2396 83.5206 16.9996 83.5206C15.9396 83.5206 12.9396 83.1306 11.5796 78.9506L9.63965 77.0106Z" fill="#231F20"/>
<path d="M29.77 75.7008V70.3608L31.5 72.0808C32.84 76.2308 35.8 76.6908 37.01 76.6908C37.17 76.6908 37.28 76.6808 37.35 76.6808L38.73 78.0608L38.7 82.7808L29.77 75.7008Z" fill="white"/>
<path d="M29.8994 70.6606L31.3694 72.1306C32.8094 76.4806 36.0494 76.8206 37.0094 76.8206C37.1294 76.8206 37.2294 76.8206 37.2994 76.8106L38.5694 78.0806V82.5306L29.8994 75.6506V70.6606ZM29.6494 70.0506V75.7606L38.8194 83.0406V77.9706L37.3894 76.5406C37.3894 76.5406 37.2494 76.5606 37.0094 76.5606C35.9494 76.5606 32.9494 76.1706 31.5894 71.9906L29.6494 70.0506Z" fill="#231F20"/>
<path d="M18.9404 85.0202L38.6904 78.1402V82.9502L18.9404 89.8202V85.0202Z" fill="white"/>
<path d="M38.5698 78.3206V82.8606L19.0698 89.6506V85.1106L38.5698 78.3206ZM38.8198 77.9706L18.8198 84.9306V90.0006L38.8198 83.0406V77.9706Z" fill="#231F20"/>
<path d="M17.6094 83.5609L37.3594 76.6909L38.5894 77.9209L18.8394 84.7909L17.6094 83.5609Z" fill="white"/>
<path d="M37.3196 76.8306L38.3496 77.8606L18.8696 84.6406L17.8396 83.6106L37.3196 76.8306ZM37.3896 76.5406L17.3896 83.5006L18.8196 84.9306L38.8196 77.9706L37.3896 76.5406Z" fill="#231F20"/>
<path d="M9.86914 77.0709L29.6091 70.2009L31.3491 71.9409L11.6091 78.8109L9.86914 77.0709Z" fill="white"/>
<path d="M29.5794 70.3406L31.1194 71.8806L11.6394 78.6606L10.0994 77.1206L29.5794 70.3406ZM29.6494 70.0506L9.64941 77.0106L11.5894 78.9506L31.5894 71.9906L29.6494 70.0506Z" fill="#231F20"/>
<path d="M16.47 83.4903C15.23 83.4903 12.98 82.9103 11.73 79.0303L31.49 72.1503C31.68 72.9103 32.78 76.5103 36.61 76.6803L17.34 83.3903C17.34 83.3903 17 83.4903 16.47 83.4903Z" fill="white"/>
<path d="M31.4096 72.3203C31.6696 73.2603 32.7596 76.3003 36.0296 76.7603L17.3196 83.2703C17.3196 83.2703 16.9796 83.3703 16.4796 83.3703C15.2896 83.3703 13.1296 82.8103 11.8996 79.1103L31.4096 72.3203ZM31.5796 71.9903L11.5796 78.9503C12.8396 83.0103 15.1796 83.6103 16.4696 83.6103C17.0196 83.6103 17.3796 83.5003 17.3796 83.5003L37.3796 76.5403C37.2096 76.5503 37.0396 76.5603 36.8796 76.5603C32.4296 76.5603 31.5796 71.9903 31.5796 71.9903Z" fill="#231F20"/>
<path d="M0.750488 8.35049C0.750488 3.89049 4.38049 0.250488 8.84049 0.250488H64.3705L21.8105 18.6305L0.750488 51.1105V8.35049Z" fill="white"/>
<path d="M63.7606 0.380066L21.7606 18.5101L21.6906 18.5401L21.6506 18.6001L0.870605 50.6801V8.35007C0.870605 3.96007 4.45061 0.380066 8.84061 0.380066H63.7606ZM64.9706 0.130066H8.84061C4.31061 0.130066 0.620605 3.82007 0.620605 8.35007V51.5301L21.8606 18.7401L64.9706 0.130066Z" fill="#231F20"/>
<path d="M64.38 0.25L21.81 18.62L21.74 18.65L21.7 18.71L0.75 51.11V8.35C0.75 3.88 4.38 0.25 8.85 0.25H64.38ZM65.59 0H8.85C4.24 0 0.5 3.74 0.5 8.35V51.96L21.91 18.86L65.59 0Z" fill="#231F20" stroke="#231F20" stroke-width="0.25" stroke-miterlimit="10"/>
<path d="M19.0042 4.47188L7.22254 16.2531C7.09973 16.3759 6.93315 16.4449 6.75946 16.4449C6.58577 16.4449 6.41919 16.3759 6.29637 16.2531C6.17356 16.1303 6.10456 15.9637 6.10456 15.79C6.10456 15.6163 6.17356 15.4498 6.29637 15.327L18.078 3.54575C18.2007 3.42294 18.3672 3.3539 18.5408 3.35382C18.7144 3.35375 18.881 3.42264 19.0038 3.54534C19.1266 3.66805 19.1956 3.83451 19.1957 4.00812C19.1958 4.18173 19.1269 4.34825 19.0042 4.47107V4.47188ZM6.31274 7.72808C5.76038 7.17564 5.45012 6.42641 5.4502 5.64522C5.45027 4.86402 5.76069 4.11486 6.31315 3.56252C6.86561 3.01019 7.61487 2.69994 8.39609 2.70001C9.17731 2.70009 9.92651 3.01049 10.4789 3.56293C11.0312 4.11537 11.3415 4.8646 11.3414 5.6458C11.3413 6.42699 11.0309 7.17616 10.4785 7.72849C9.92599 8.28082 9.17673 8.59108 8.39551 8.591C7.61429 8.59092 6.86509 8.28052 6.31274 7.72808ZM6.75946 5.64673C6.75967 5.91578 6.82622 6.18062 6.95322 6.4178C7.08022 6.65499 7.26375 6.8572 7.48755 7.00653C7.71135 7.15586 7.96853 7.24771 8.2363 7.27393C8.50407 7.30016 8.77418 7.25995 9.02271 7.15688C9.27123 7.0538 9.49051 6.89104 9.66111 6.683C9.83172 6.47496 9.94839 6.22806 10.0008 5.96417C10.0532 5.70028 10.0397 5.42754 9.96157 5.1701C9.88341 4.91266 9.74297 4.67846 9.55269 4.48825C9.32375 4.25938 9.03206 4.10356 8.71454 4.04051C8.39701 3.97745 8.06792 4.00999 7.76889 4.13401C7.46986 4.25803 7.21434 4.46796 7.03466 4.73723C6.85498 5.0065 6.7592 5.32302 6.75946 5.64673ZM19.8502 14.1554C19.85 14.8368 19.6136 15.4971 19.1812 16.0237C18.7488 16.5503 18.1471 16.9107 17.4788 17.0435C16.8104 17.1763 16.1167 17.0733 15.5158 16.7519C14.9149 16.4306 14.444 15.9109 14.1833 15.2813C13.9227 14.6517 13.8884 13.9512 14.0863 13.2992C14.2843 12.6472 14.7022 12.0839 15.2688 11.7055C15.8355 11.327 16.5158 11.1567 17.194 11.2236C17.8721 11.2905 18.5061 11.5905 18.9878 12.0724C19.2622 12.3453 19.4797 12.6699 19.6277 13.0275C19.7757 13.385 19.8513 13.7684 19.8502 14.1554ZM18.5411 14.1554C18.5412 13.7768 18.41 13.4099 18.1699 13.1173C17.9298 12.8246 17.5956 12.6242 17.2243 12.5503C16.853 12.4763 16.4676 12.5334 16.1337 12.7118C15.7998 12.8902 15.538 13.1789 15.3931 13.5286C15.2482 13.8783 15.229 14.2675 15.3388 14.6297C15.4486 14.992 15.6807 15.305 15.9954 15.5154C16.3102 15.7258 16.6881 15.8205 17.0649 15.7835C17.4417 15.7464 17.7939 15.5799 18.0617 15.3122C18.2141 15.1607 18.335 14.9804 18.4173 14.7818C18.4995 14.5833 18.5416 14.3703 18.5411 14.1554Z" fill="#231F20"/>
</g>
<defs>
<clipPath id="clip0_212_1515">
<rect width="90" height="90" fill="white" transform="translate(0.5)"/>
</clipPath>
</defs>
</svg>
