<svg width="24" height="24" viewBox="0 0 24 24" fill="none" xmlns="http://www.w3.org/2000/svg">
<g clip-path="url(#clip0_212_1984)">
<path d="M18.375 0H5.625C2.5184 0 0 2.5184 0 5.625V18.375C0 21.4816 2.5184 24 5.625 24H18.375C21.4816 24 24 21.4816 24 18.375V5.625C24 2.5184 21.4816 0 18.375 0Z" fill="#F37021"/>
<path d="M3.90338 19.034H6.88631V11.7897L2.625 8.59375V17.7557C2.625 18.463 3.19819 19.034 3.90338 19.034Z" fill="#231F20"/>
<path d="M17.1136 19.034H20.0967C20.804 19.034 21.3751 18.4609 21.3751 17.7557V8.59375L17.1136 11.7897" fill="#231F20"/>
<path d="M17.1136 6.24988V11.7897L21.3751 8.59372V6.88897C21.3751 5.30806 19.5704 4.40675 18.3069 5.35494" fill="#231F20"/>
<path d="M6.88635 11.7893V6.24961L11.9999 10.0848L17.1135 6.24951V11.7893L11.9999 15.6246" fill="#231F20"/>
<path d="M2.625 6.88906V8.59353L6.88631 11.7896V6.24987L5.69316 5.35494C4.42753 4.40675 2.625 5.30806 2.625 6.88906Z" fill="#231F20"/>
</g>
<defs>
<clipPath id="clip0_212_1984">
<rect width="24" height="24" rx="12" fill="white"/>
</clipPath>
</defs>
</svg>
