<svg width="101" height="100" viewBox="0 0 101 100" fill="none" xmlns="http://www.w3.org/2000/svg">
<g clip-path="url(#clip0_212_1431)">
<path d="M0.744141 27.3778L79.1552 0.155548L100.244 21.9778L19.8553 50.6889L0.744141 27.3778Z" fill="white"/>
<path d="M79.1107 0.322222L99.9885 21.9222L19.8996 50.5333L0.977409 27.4444L79.1107 0.322222ZM79.1885 0L0.510742 27.3111L19.8107 50.8556L100.489 22.0444L79.1885 0Z" fill="#231F20"/>
<path d="M19.9551 50.9556L100.355 22.2333V36.6L19.9551 65.3111V50.9556Z" fill="white"/>
<path d="M100.211 22.4333V36.5L20.0883 65.1222V51.0555L100.211 22.4333ZM100.488 22.0444L19.8105 50.8555V65.5111L100.488 36.7V22.0444Z" fill="#231F20"/>
<path d="M0.62207 41.8666L0.644293 27.7L19.711 50.9444L19.6776 65.1222L0.62207 41.8666Z" fill="white"/>
<path d="M0.78852 28.0889L19.533 50.9555V64.7333L0.78852 41.8555V28.0889ZM0.510742 27.3111V41.9555L19.8107 65.5111V50.8555L0.510742 27.3111Z" fill="#231F20"/>
<path d="M50.5 41.611L75.2556 31.911L99.7222 66.5554L76.1889 76.4665L50.5 41.611Z" fill="white" stroke="#231F20" stroke-width="0.25" stroke-miterlimit="10"/>
<path d="M51.5 33.2886L75.9889 23.6997L100.289 58.1108L77.0222 67.9108L51.5 33.2886Z" fill="white"/>
<path d="M75.9329 23.8665L100.066 58.0554L77.0551 67.7443L51.7218 33.3554L75.9329 23.8665ZM76.0329 23.5332L51.2773 33.2221L76.9662 68.0776L100.5 58.1777L76.0329 23.5332Z" fill="#231F20"/>
<path d="M50.6113 41.5332L51.3891 33.5999L76.8669 68.1665L76.0891 76.0999L50.6113 41.5332Z" fill="white"/>
<path d="M51.4889 33.9777L76.6889 68.1665L75.9889 75.7221L50.7889 41.5332L51.4889 33.9777ZM51.2778 33.2221L50.5 41.611L76.1889 76.4665L76.9667 68.0777L51.2778 33.2221Z" fill="#231F20"/>
<path d="M77.1003 68.1776L100.345 58.3887L99.5892 66.4665L76.3447 76.2554L77.1003 68.1776Z" fill="white"/>
<path d="M100.178 58.611L99.4558 66.3665L76.5113 76.0332L77.2335 68.2776L100.178 58.611ZM100.5 58.1776L76.978 68.0888L76.2002 76.4776L99.7224 66.5554L100.5 58.1776Z" fill="#231F20"/>
<path d="M77.1445 65.2666L54.7334 34.4332C54.4779 34.0888 54.5557 33.6443 54.8779 33.5443L55.689 33.2888C55.9112 33.2221 56.189 33.3332 56.3668 33.5777L78.7779 64.411C79.0334 64.7554 78.9557 65.1999 78.6334 65.2999L77.8223 65.5554C77.6001 65.6221 77.3223 65.511 77.1445 65.2666Z" fill="#231F20"/>
<path d="M96.1338 57.6L73.7227 26.7778C73.4671 26.4333 73.5449 25.9889 73.8671 25.8889L74.6782 25.6333C74.9005 25.5666 75.1783 25.6778 75.356 25.9222L97.7671 56.7555C98.0227 57.1 97.9449 57.5444 97.6227 57.6444L96.8116 57.9C96.5894 57.9555 96.3116 57.8444 96.1338 57.6Z" fill="#231F20"/>
<path d="M91.3887 59.5221L68.9776 28.6888C68.722 28.3443 68.7998 27.8999 69.122 27.7999L69.9331 27.5443C70.1554 27.4777 70.4331 27.5888 70.6109 27.8332L93.022 58.6665C93.2776 59.011 93.1998 59.4554 92.8776 59.5554L92.0665 59.811C91.8331 59.8777 91.5554 59.7554 91.3887 59.5221Z" fill="#231F20"/>
<path d="M86.6334 61.4332L64.2334 30.611C63.9779 30.2665 64.0557 29.8221 64.3779 29.7221L65.189 29.4665C65.4112 29.3999 65.689 29.511 65.8668 29.7554L88.2779 60.5776C88.5334 60.9221 88.4557 61.3665 88.1334 61.4665L87.3223 61.7221C87.089 61.7888 86.8112 61.6776 86.6334 61.4332Z" fill="#231F20"/>
<path d="M81.8893 63.3552L59.4893 32.5219C59.2337 32.1775 59.3115 31.733 59.6337 31.633L60.4448 31.3775C60.6671 31.3108 60.9449 31.4219 61.1226 31.6663L83.5337 62.4997C83.7893 62.8441 83.7115 63.2886 83.3893 63.3886L82.5782 63.6441C82.3449 63.7108 82.0671 63.5886 81.8893 63.3552Z" fill="#231F20"/>
<path d="M14.7451 64.5554L56.534 51.422L74.834 72.0887L31.1896 86.4998L14.7451 64.5554Z" fill="white"/>
<path d="M56.4895 51.5776L74.5895 72.0332L31.2451 86.3331L14.9673 64.622L56.4895 51.5776ZM56.5784 51.2554L14.5117 64.4776L31.1451 86.6665L75.0895 72.1665L56.5784 51.2554Z" fill="#231F20"/>
<path d="M31.279 86.7666L74.9345 72.3555L74.3678 85.3888L30.7012 99.7999L31.279 86.7666Z" fill="white"/>
<path d="M74.7785 72.5442L74.2229 85.2886L30.8563 99.6108L31.4118 86.8664L74.7785 72.5442ZM75.0785 72.1553L31.1452 86.6664L30.5674 99.9997L74.5007 85.4997L75.0785 72.1553Z" fill="#231F20"/>
<path d="M14.0449 77.7109L14.6338 64.8665L31.0338 86.7442L30.4338 99.6109L14.0449 77.7109Z" fill="white"/>
<path d="M14.7558 65.2665L30.8558 86.7554L30.3114 99.2109L14.2114 77.7109L14.7558 65.2665ZM14.5114 64.4776L13.9336 77.7998L30.5558 99.9998L31.1336 86.6665L14.5114 64.4776Z" fill="#231F20"/>
<path d="M20.1332 67.3665C20.7898 67.3665 21.3221 66.8343 21.3221 66.1777C21.3221 65.5211 20.7898 64.9888 20.1332 64.9888C19.4766 64.9888 18.9443 65.5211 18.9443 66.1777C18.9443 66.8343 19.4766 67.3665 20.1332 67.3665Z" fill="#231F20"/>
<path d="M27.5229 70.0775C28.1795 70.0775 28.7118 69.5452 28.7118 68.8886C28.7118 68.232 28.1795 67.6997 27.5229 67.6997C26.8663 67.6997 26.334 68.232 26.334 68.8886C26.334 69.5452 26.8663 70.0775 27.5229 70.0775Z" fill="#231F20"/>
<path d="M26.5444 75.7333C27.201 75.7333 27.7332 75.201 27.7332 74.5444C27.7332 73.8878 27.201 73.3555 26.5444 73.3555C25.8878 73.3555 25.3555 73.8878 25.3555 74.5444C25.3555 75.201 25.8878 75.7333 26.5444 75.7333Z" fill="#231F20"/>
<path d="M33.3666 77.8997C34.0232 77.8997 34.5555 77.3675 34.5555 76.7109C34.5555 76.0543 34.0232 75.522 33.3666 75.522C32.71 75.522 32.1777 76.0543 32.1777 76.7109C32.1777 77.3675 32.71 77.8997 33.3666 77.8997Z" fill="#231F20"/>
<path d="M32.5336 83.0776C33.1902 83.0776 33.7225 82.5453 33.7225 81.8887C33.7225 81.2321 33.1902 80.6998 32.5336 80.6998C31.877 80.6998 31.3447 81.2321 31.3447 81.8887C31.3447 82.5453 31.877 83.0776 32.5336 83.0776Z" fill="#231F20"/>
<path d="M28.934 64.6331C29.5906 64.6331 30.1229 64.1009 30.1229 63.4443C30.1229 62.7877 29.5906 62.2554 28.934 62.2554C28.2774 62.2554 27.7451 62.7877 27.7451 63.4443C27.7451 64.1009 28.2774 64.6331 28.934 64.6331Z" fill="#231F20"/>
<path d="M36.2778 67.1888C36.9344 67.1888 37.4666 66.6565 37.4666 65.9999C37.4666 65.3433 36.9344 64.811 36.2778 64.811C35.6212 64.811 35.0889 65.3433 35.0889 65.9999C35.0889 66.6565 35.6212 67.1888 36.2778 67.1888Z" fill="#231F20"/>
<path d="M35.1 72.6887C35.7566 72.6887 36.2889 72.1564 36.2889 71.4998C36.2889 70.8432 35.7566 70.3109 35.1 70.3109C34.4434 70.3109 33.9111 70.8432 33.9111 71.4998C33.9111 72.1564 34.4434 72.6887 35.1 72.6887Z" fill="#231F20"/>
<path d="M37.7446 61.8998C38.4012 61.8998 38.9334 61.3675 38.9334 60.7109C38.9334 60.0543 38.4012 59.522 37.7446 59.522C37.0879 59.522 36.5557 60.0543 36.5557 60.7109C36.5557 61.3675 37.0879 61.8998 37.7446 61.8998Z" fill="#231F20"/>
<path d="M42.1449 74.8665C42.8015 74.8665 43.3338 74.3342 43.3338 73.6776C43.3338 73.021 42.8015 72.4887 42.1449 72.4887C41.4883 72.4887 40.9561 73.021 40.9561 73.6776C40.9561 74.3342 41.4883 74.8665 42.1449 74.8665Z" fill="#231F20"/>
<path d="M41.3998 79.9222C42.0564 79.9222 42.5887 79.3899 42.5887 78.7333C42.5887 78.0767 42.0564 77.5444 41.3998 77.5444C40.7432 77.5444 40.2109 78.0767 40.2109 78.7333C40.2109 79.3899 40.7432 79.9222 41.3998 79.9222Z" fill="#231F20"/>
<path d="M45.0336 64.2998C45.6902 64.2998 46.2225 63.7675 46.2225 63.1109C46.2225 62.4543 45.6902 61.922 45.0336 61.922C44.377 61.922 43.8447 62.4543 43.8447 63.1109C43.8447 63.7675 44.377 64.2998 45.0336 64.2998Z" fill="#231F20"/>
<path d="M43.6449 69.6443C44.3016 69.6443 44.8338 69.112 44.8338 68.4554C44.8338 67.7988 44.3016 67.2665 43.6449 67.2665C42.9883 67.2665 42.4561 67.7988 42.4561 68.4554C42.4561 69.112 42.9883 69.6443 43.6449 69.6443Z" fill="#231F20"/>
<path d="M46.5444 59.1664C47.201 59.1664 47.7332 58.6341 47.7332 57.9775C47.7332 57.3209 47.201 56.7886 46.5444 56.7886C45.8878 56.7886 45.3555 57.3209 45.3555 57.9775C45.3555 58.6341 45.8878 59.1664 46.5444 59.1664Z" fill="#231F20"/>
<path d="M50.934 71.8221C51.5906 71.8221 52.1229 71.2898 52.1229 70.6332C52.1229 69.9766 51.5906 69.4443 50.934 69.4443C50.2774 69.4443 49.7451 69.9766 49.7451 70.6332C49.7451 71.2898 50.2774 71.8221 50.934 71.8221Z" fill="#231F20"/>
<path d="M50.2563 76.7664C50.9129 76.7664 51.4452 76.2342 51.4452 75.5776C51.4452 74.921 50.9129 74.3887 50.2563 74.3887C49.5997 74.3887 49.0674 74.921 49.0674 75.5776C49.0674 76.2342 49.5997 76.7664 50.2563 76.7664Z" fill="#231F20"/>
<path d="M53.8002 61.4109C54.4568 61.4109 54.9891 60.8786 54.9891 60.222C54.9891 59.5654 54.4568 59.0331 53.8002 59.0331C53.1436 59.0331 52.6113 59.5654 52.6113 60.222C52.6113 60.8786 53.1436 61.4109 53.8002 61.4109Z" fill="#231F20"/>
<path d="M52.2006 66.6107C52.8572 66.6107 53.3895 66.0784 53.3895 65.4218C53.3895 64.7652 52.8572 64.2329 52.2006 64.2329C51.544 64.2329 51.0117 64.7652 51.0117 65.4218C51.0117 66.0784 51.544 66.6107 52.2006 66.6107Z" fill="#231F20"/>
<path d="M59.7113 68.7776C60.368 68.7776 60.9002 68.2453 60.9002 67.5887C60.9002 66.9321 60.368 66.3998 59.7113 66.3998C59.0547 66.3998 58.5225 66.9321 58.5225 67.5887C58.5225 68.2453 59.0547 68.7776 59.7113 68.7776Z" fill="#231F20"/>
<path d="M59.1225 73.5998C59.7791 73.5998 60.3114 73.0675 60.3114 72.4109C60.3114 71.7543 59.7791 71.222 59.1225 71.222C58.4659 71.222 57.9336 71.7543 57.9336 72.4109C57.9336 73.0675 58.4659 73.5998 59.1225 73.5998Z" fill="#231F20"/>
<path d="M55.3451 56.433C56.0017 56.433 56.534 55.9007 56.534 55.2441C56.534 54.5875 56.0017 54.0552 55.3451 54.0552C54.6885 54.0552 54.1562 54.5875 54.1562 55.2441C54.1562 55.9007 54.6885 56.433 55.3451 56.433Z" fill="#231F20"/>
<path d="M60.7446 63.5665C61.4012 63.5665 61.9334 63.0342 61.9334 62.3776C61.9334 61.721 61.4012 61.1887 60.7446 61.1887C60.0879 61.1887 59.5557 61.721 59.5557 62.3776C59.5557 63.0342 60.0879 63.5665 60.7446 63.5665Z" fill="#231F20"/>
<path d="M67.9887 70.4442C68.6453 70.4442 69.1776 69.9119 69.1776 69.2553C69.1776 68.5987 68.6453 68.0664 67.9887 68.0664C67.3321 68.0664 66.7998 68.5987 66.7998 69.2553C66.7998 69.9119 67.3321 70.4442 67.9887 70.4442Z" fill="#231F20"/>
</g>
<defs>
<clipPath id="clip0_212_1431">
<rect width="100" height="100" fill="white" transform="translate(0.5)"/>
</clipPath>
</defs>
</svg>
