<svg width="101" height="100" viewBox="0 0 101 100" fill="none" xmlns="http://www.w3.org/2000/svg">
<g clip-path="url(#clip0_212_86)">
<path d="M72.0891 43.0889C69.8224 42.3333 64.3113 38.7444 63.2669 33.8222C62.0113 27.9333 66.0891 18.4778 77.0113 16.0444C79.2336 15.5444 81.3558 15.3 83.3336 15.3C89.4113 15.3 94.2669 17.6111 98.1669 22.3555C100.667 25.4 100.945 31.9778 99.278 34.1222C96.9336 33.2555 94.2447 32.8 91.4669 32.8C84.178 32.7889 75.378 35.9778 72.0891 43.0889Z" fill="white"/>
<path d="M83.3336 15.4333C89.3669 15.4333 94.1892 17.7222 98.0558 22.4333C100.489 25.4 100.8 31.7667 99.2225 33.9444C96.8892 33.1 94.2114 32.6444 91.4669 32.6444C84.167 32.6444 75.367 35.8222 72.0114 42.9111C69.7003 42.0889 64.4225 38.5778 63.4003 33.7889C62.1558 27.9555 66.2114 18.6 77.0447 16.1778C79.2558 15.6889 81.367 15.4333 83.3336 15.4333ZM83.3336 15.1555C81.4225 15.1555 79.3114 15.3889 76.9892 15.9C66.2336 18.3 61.8114 27.6111 63.1336 33.8444C64.2336 38.9778 69.9669 42.5778 72.1669 43.2555C75.1558 36.6444 83.5003 32.9222 91.4669 32.9222C94.2003 32.9222 96.9003 33.3555 99.3225 34.2667C101.145 32.1111 100.823 25.3555 98.2781 22.2444C95.5114 18.9 91.0447 15.1555 83.3336 15.1555Z" fill="#231F20"/>
<path d="M72.0892 23.9889C69.8226 23.2333 64.3115 19.6444 63.267 14.7222C61.867 8.18888 66.8892 3.14444 77.0115 0.888884C79.2337 0.388884 81.3559 0.14444 83.3337 0.14444C89.4115 0.14444 94.267 2.45555 98.167 7.2C100.634 10.2 101.011 12.9 99.2781 15.0222C96.9337 14.1556 94.2448 13.7 91.467 13.7C84.1781 13.6889 75.3781 16.8778 72.0892 23.9889Z" fill="white"/>
<path d="M83.3336 0V0.277778C89.3669 0.277778 94.1892 2.56667 98.0558 7.27778C100.445 10.1778 100.845 12.8 99.2225 14.8556C96.8892 14.0111 94.2114 13.5556 91.4558 13.5556C84.1558 13.5556 75.3558 16.7333 72.0003 23.8222C69.6892 23 64.4114 19.4889 63.3892 14.7C62.0114 8.25556 66.9892 3.26667 77.0336 1.02222C79.2447 0.533333 81.3558 0.277778 83.3225 0.277778L83.3336 0ZM83.3336 0C81.4225 0 79.3114 0.233333 76.9892 0.744444C66.2336 3.14444 61.8114 8.52222 63.1336 14.7444C64.2336 19.8778 69.9669 23.4778 72.1669 24.1556C75.1558 17.5444 83.5003 13.8222 91.4669 13.8222C94.2003 13.8222 96.9003 14.2556 99.3225 15.1667C101.145 13.0111 100.823 10.1889 98.2781 7.08889C95.5114 3.74444 91.0447 0 83.3336 0Z" fill="#231F20"/>
<path d="M72.7452 17.6667C71.1341 17.1779 68.0786 14.9667 67.8341 11.7334C67.5341 7.91119 70.6564 5.30007 77.6675 3.5223C79.5119 3.05563 81.3008 2.8223 82.9897 2.8223C88.2341 2.8223 91.523 5.0223 93.3564 6.87785C95.023 8.55563 95.6008 9.86674 95.123 10.8779C93.9119 10.5001 92.4341 10.3001 90.723 10.3001C84.0564 10.289 75.0786 13.3112 72.7452 17.6667Z" fill="white"/>
<path d="M82.9892 2.95554C88.1892 2.95554 91.4448 5.13332 93.267 6.96665C94.8226 8.53332 95.4115 9.75554 95.0559 10.7C93.8559 10.3333 92.4003 10.1555 90.7337 10.1555C84.067 10.1555 75.1226 13.1555 72.6892 17.5C71.0892 16.9667 68.2226 14.8222 67.9781 11.7222C67.6892 7.97777 70.7781 5.42221 77.7115 3.65554C79.5337 3.19999 81.3115 2.95554 82.9892 2.95554ZM82.9892 2.67776C81.3559 2.67776 79.5781 2.88888 77.6337 3.38888C70.5226 5.18888 67.4003 7.89999 67.7003 11.7444C67.9781 15.2555 71.367 17.4444 72.8226 17.8222C75.0226 13.5111 84.0115 10.4222 90.7337 10.4222C92.4115 10.4222 93.9448 10.6111 95.2003 11.0333C95.7003 10.1333 95.5226 8.85554 93.4559 6.76665C91.267 4.56665 87.8003 2.67776 82.9892 2.67776Z" fill="#231F20"/>
<path d="M72.3008 24.1667C72.3341 24.1333 77.7563 14.1444 90.9674 14.1444C93.5674 14.1444 96.323 14.5333 99.1786 15.2889V34.0778C98.5008 33.8444 96.0452 33.1111 92.623 33.1111C87.4008 33.1111 79.6563 34.8222 72.3008 42.8889V24.1667Z" fill="white"/>
<path d="M90.9674 14.2778C93.5229 14.2778 96.234 14.6556 99.0451 15.4V33.8889C98.1674 33.6111 95.8451 32.9778 92.634 32.9778C87.434 32.9778 79.7674 34.6556 72.4451 42.5444V24.2333C72.9118 23.4111 78.3785 14.2778 90.9674 14.2778ZM90.9674 14C77.5118 14 72.1562 24.1667 72.1562 24.1667V43.2667C79.5118 35.0333 87.2896 33.2667 92.6229 33.2667C96.6674 33.2667 99.3118 34.2889 99.3118 34.2889V15.1778C96.2451 14.3444 93.4674 14 90.9674 14Z" fill="#231F20"/>
<path d="M67.8332 40.5445C66.8332 39.6445 64.5776 36.9445 64.5554 36.9222L64.5888 18.3C65.2554 19.0889 67.0887 21.2334 67.8332 21.8222V40.5445Z" fill="white"/>
<path d="M64.7221 18.6667C65.4999 19.5778 66.9888 21.2889 67.6888 21.8778V40.2222C66.7332 39.2889 65.0666 37.3222 64.7221 36.9V18.6667ZM64.4443 17.9111V37C64.4443 37 67.1221 40.2 67.9666 40.8334V21.7445C67.1221 21.1222 64.4443 17.9111 64.4443 17.9111Z" fill="#231F20"/>
<path d="M64.3007 36.5668C63.734 35.6001 63.2673 33.8445 63.2673 33.8223V15.8557C63.6562 16.9557 64.2896 17.9334 64.3229 17.989L64.3007 36.5668Z" fill="white"/>
<path d="M63.4113 16.5667C63.7113 17.2444 64.0447 17.8 64.1669 17.9889V35.9889C63.7669 35.1222 63.4669 34.0222 63.4113 33.8111V16.5667ZM63.1335 14.7556V33.8556C63.1335 33.8556 63.7335 36.1778 64.4447 37.0111V17.9111C64.4447 17.9111 63.3335 16.1889 63.1335 14.7556Z" fill="#231F20"/>
<path d="M99.4558 15.2556C99.8225 15.0111 100.122 14.0333 100.334 13.0889V30.1889C100.5 31.5222 99.8447 33.0111 99.4558 33.7445V15.2556Z" fill="white"/>
<path d="M100.189 14.2222V30.2222C100.322 31.2333 99.9446 32.3556 99.5891 33.1445V15.3778C99.7557 15.2667 99.9668 14.9667 100.189 14.2222ZM100.467 11.5889C100.467 11.5889 99.9002 15.1778 99.3446 15.1778C99.3335 15.1778 99.3224 15.1778 99.3113 15.1778V34.2778C99.3113 34.2778 100.711 32.0889 100.467 30.1889V11.5889Z" fill="#231F20"/>
<path d="M72.8225 17.8222V5.01111" stroke="#231F20" stroke-width="0.25" stroke-miterlimit="10"/>
<path d="M69.0889 15.1554V7.57764" stroke="#231F20" stroke-width="0.25" stroke-miterlimit="10"/>
<path d="M77.2336 13.8333V3.5" stroke="#231F20" stroke-width="0.25" stroke-miterlimit="10"/>
<path d="M82.834 11.589V2.68896" stroke="#231F20" stroke-width="0.25" stroke-miterlimit="10"/>
<path d="M87.7783 10.6113V3.37793" stroke="#231F20" stroke-width="0.25" stroke-miterlimit="10"/>
<path d="M91.2891 10.4333V5.01111" stroke="#231F20" stroke-width="0.25" stroke-miterlimit="10"/>
<path d="M94.3225 7.72223V10.8" stroke="#231F20" stroke-width="0.25" stroke-miterlimit="10"/>
<path d="M12.1892 29.1669L12.2336 27.7224L4.88919 20.3224L3.17808 20.278L0.755859 17.8113L39.1447 6.27798L41.467 8.60021L41.4225 11.1113L48.5003 18.2447L50.3447 18.278L52.767 20.7558L15.4447 32.4224L12.1892 29.1669Z" fill="white"/>
<path d="M39.1111 6.43333L41.2889 8.61111V11.1111V11.2222L41.3667 11.3L48.4 18.3333L48.4778 18.4111H48.5889H50.2111L52.4889 20.6889L15.4778 32.2667L12.3667 29.1556V27.7333V27.6222L12.2889 27.5444L4.98889 20.2222L4.91111 20.1444H4.8H3.3L1.03333 17.8778L39.1111 6.43333ZM39.1889 6.12222L0.5 17.7444L3.17778 20.4222H4.78889L12.0889 27.7222V29.2667L15.4 32.5778L53.0111 20.8222L50.3333 18.1444H48.5889L41.5667 11.1111V8.5L39.1889 6.12222Z" fill="#231F20"/>
<path d="M12.1892 51.411L12.2336 49.9665L4.88919 42.5665L3.17808 42.5221L0.755859 40.0443L39.1447 28.5221L41.467 30.8332L41.4225 33.3554L48.5003 40.4887L50.3447 40.5221L52.767 42.9998L15.4447 54.6665L12.1892 51.411Z" fill="white"/>
<path d="M39.1111 28.6778L41.2889 30.8556V33.3556V33.4667L41.3667 33.5444L48.4 40.5778L48.4778 40.6556H48.5889H50.2111L52.4889 42.9333L15.4778 54.5111L12.3667 51.4V49.9778V49.8667L12.2889 49.7889L4.98889 42.4889L4.91111 42.4111H4.8H3.3L1.02222 40.1111L39.1111 28.6778ZM39.1889 28.3556L0.5 39.9778L3.17778 42.6556H4.78889L12.0889 49.9556V51.5L15.4 54.8111L53.0111 43.0556L50.3333 40.3778H48.5889L41.5556 33.3444V30.7333L39.1889 28.3556Z" fill="#231F20"/>
<path d="M12.1885 51.4113L12.2329 29.6002L15.3107 32.6779L15.2663 54.489L12.1885 51.4113Z" fill="white"/>
<path d="M12.3666 29.9333L15.1222 32.6889V54.1444L12.3666 51.3889V29.9333ZM12.0889 29.2667V51.5111L15.4 54.8222V32.5778L12.0889 29.2667Z" fill="#231F20"/>
<path d="M15.5449 32.6779L52.8783 21.0112V42.9668L15.5449 54.6334V32.6779Z" fill="white"/>
<path d="M52.7445 21.2V42.8556L15.6889 54.4445V32.7889L52.7445 21.2ZM53.0222 20.8222L15.4111 32.5778V54.8222L53.0222 43.0667V20.8222Z" fill="#231F20"/>
<path d="M0.599609 39.8891L0.632943 18.0779L3.07739 20.5224L3.04405 42.3335L0.599609 39.8891Z" fill="white"/>
<path d="M0.777778 18.4111L2.9 20.5333V41.9889L0.777778 39.8667V18.4111ZM0.5 17.7444V39.9889L3.17778 42.6667V20.4222L0.5 17.7444Z" fill="#231F20"/>
<path d="M4.88843 42.5668L4.92176 20.7557L11.9884 27.8224L11.9551 49.6335L4.88843 42.5668Z" fill="white"/>
<path d="M5.0666 21.0889L11.811 27.8333V49.2889L5.0666 42.5444V21.0889ZM4.78882 20.4222V42.6667L12.0888 49.9667V27.7222L4.78882 20.4222Z" fill="#231F20"/>
<path d="M4.6556 20.5555H3.32227V42.5222H4.6556V20.5555Z" fill="white"/>
<path d="M4.51107 20.7V42.3889H3.45551V20.7H4.51107ZM4.78885 20.4222H3.17773V42.6667H4.78885V20.4222Z" fill="#231F20"/>
<path d="M8.68848 19.4001C13.7774 17.2334 17.7329 16.9112 19.644 16.9112C20.244 16.9112 20.5774 16.9445 20.5885 16.9445L27.244 23.6445C25.0551 25.9556 18.6107 27.9667 17.8329 28.2112L8.68848 19.4001Z" fill="white"/>
<path d="M19.6443 17.0444C20.0554 17.0444 20.3332 17.0556 20.4777 17.0667L27.0443 23.6333C24.8554 25.8111 18.8999 27.7222 17.8554 28.0333L8.93322 19.4444C13.8999 17.3667 17.7554 17.0444 19.6443 17.0444ZM19.6443 16.7667C17.8666 16.7667 13.7332 17.0667 8.44434 19.3444L17.7888 28.3556C17.7888 28.3556 25.1554 26.1778 27.4332 23.6333L20.5999 16.8C20.5999 16.8 20.2666 16.7667 19.6443 16.7667Z" fill="#231F20"/>
<path d="M20.5996 16.8V27.4" stroke="#231F20" stroke-width="0.25" stroke-miterlimit="10"/>
<path d="M33.7217 21.7113L26.9551 14.9002C30.0551 11.8558 35.4773 10.7224 36.1551 10.6002L44.8773 19.3224C40.1884 21.6113 34.9662 21.7224 33.9551 21.7224L33.7217 21.7113Z" fill="white"/>
<path d="M36.111 10.7445L44.6444 19.2778C40.0222 21.4667 34.9555 21.5778 33.9555 21.5778C33.8999 21.5778 33.8666 21.5778 33.8333 21.5778L27.1555 14.9C30.1555 12.0445 35.211 10.9222 36.111 10.7445ZM36.211 10.4445C36.211 10.4445 30.111 11.5111 26.7666 14.9L33.7222 21.8556C33.7222 21.8556 33.811 21.8556 33.9666 21.8556C35.1444 21.8556 40.3999 21.7111 45.1222 19.3556L36.211 10.4445Z" fill="#231F20"/>
<path d="M36.2112 10.4445V21.7333" stroke="#231F20" stroke-width="0.25" stroke-miterlimit="10"/>
<path d="M0.599609 76.9887L0.632943 46.7109L9.56628 56.0887L11.6218 71.8331V88.0109L0.599609 76.9887Z" fill="white"/>
<path d="M0.777778 47.0667L9.41111 56.1222L11.4889 71.8111V87.6667L0.788889 76.9667V47.0667M0.5 46.3667V77.0889L11.7556 88.3444V71.8111L9.66667 56L0.5 46.3667Z" fill="#231F20"/>
<path d="M77.8447 49.2556L77.8892 18.9778L86.8225 28.3556L88.8669 44.1V60.2667L77.8447 49.2556Z" fill="white"/>
<path d="M78.0336 19.3222L86.667 28.3778L88.7447 44.0667V59.9222L78.0448 49.2222V19.3222M77.7559 18.6333V49.3555L89.0114 60.6111V44.0778L86.9225 28.2556L77.7559 18.6333Z" fill="#231F20"/>
<path d="M0.744141 46.4335L77.7108 18.7891L86.6775 28.2002L9.71081 55.8335L0.744141 46.4335Z" fill="white"/>
<path d="M77.6778 18.9556L86.4333 28.1444L9.74444 55.6778L0.988889 46.4889L77.6778 18.9556ZM77.7555 18.6333L0.5 46.3667L9.66667 55.9889L86.9222 28.2556L77.7555 18.6333Z" fill="#231F20"/>
<path d="M9.82227 56.0888L86.8 28.4444L88.8556 43.9888L11.8667 71.6221L9.82227 56.0888Z" fill="white"/>
<path d="M86.6892 28.6332L88.7003 43.8887L11.9892 71.4332L9.9781 56.1776L86.6892 28.6332ZM86.9225 28.2554L9.66699 55.9998L11.7559 71.8221L89.0114 44.0887L86.9225 28.2554Z" fill="#231F20"/>
<path d="M11.9004 71.911L88.8671 44.2777V60.511L11.9004 88.1443V71.911Z" fill="white"/>
<path d="M88.7336 44.4777V60.411L12.0336 87.9443V72.011L88.7336 44.4777ZM89.0114 44.0777L11.7559 71.811V88.3443L89.0114 60.611V44.0777Z" fill="#231F20"/>
<path d="M69.512 64.3667L92.3009 60.6334L100.268 72.7445L76.4342 77L69.512 64.3667Z" fill="white"/>
<path d="M92.2341 60.7889L100.045 72.6445L76.5008 76.8445L69.7341 64.4667L92.2341 60.7889ZM92.3674 60.4889L69.3008 64.2667L76.3563 77.1556L100.501 72.8445L92.3674 60.4889Z" fill="#231F20"/>
<path d="M76.4782 77.2667L100.323 73.0112L99.0782 79.6778L75.2227 83.9334L76.4782 77.2667Z" fill="white"/>
<path d="M100.156 73.1889L98.956 79.5556L75.4005 83.7556L76.6005 77.3889L100.156 73.1889ZM100.5 72.8445L76.356 77.1556L75.0449 84.1111L99.1894 79.8L100.5 72.8445Z" fill="#231F20"/>
<path d="M68.1116 71.1334L69.3671 64.6667L76.2338 77.2223L74.9894 83.7L68.1116 71.1334Z" fill="white"/>
<path d="M69.4337 65.0778L76.067 77.2L74.9226 83.2889L68.2893 71.1556L69.4337 65.0778ZM69.3004 64.2556L67.9893 71.2L75.0448 84.1L76.3559 77.1445L69.3004 64.2556Z" fill="#231F20"/>
<path d="M72.0338 66.0557C71.9004 66.0335 71.7893 65.9557 71.7227 65.8557C71.6449 65.7446 71.6227 65.6112 71.6449 65.489C71.6893 65.2557 71.8893 65.089 72.1227 65.089C72.4782 65.1446 72.656 65.4112 72.6004 65.6668C72.556 65.9001 72.356 66.0668 72.1227 66.0668C72.0893 66.0668 72.0671 66.0668 72.0338 66.0557Z" fill="white"/>
<path d="M72.1223 65.2223C72.1445 65.2223 72.1668 65.2223 72.189 65.2334C72.3779 65.2667 72.5001 65.4556 72.4668 65.6445C72.4334 65.8112 72.289 65.9334 72.1223 65.9334C72.1001 65.9334 72.0779 65.9334 72.0556 65.9223C71.9668 65.9 71.8779 65.8556 71.8334 65.7778C71.789 65.7 71.7556 65.6112 71.7779 65.5112C71.8112 65.3445 71.9556 65.2223 72.1223 65.2223ZM72.1223 64.9445C71.8223 64.9445 71.5556 65.1556 71.5001 65.4556C71.4334 65.8 71.6556 66.1223 72.0001 66.1889C72.0445 66.2 72.0779 66.2 72.1223 66.2C72.4223 66.2 72.689 65.9889 72.7445 65.6889C72.8112 65.3445 72.589 65.0223 72.2445 64.9556C72.2001 64.9445 72.1556 64.9445 72.1223 64.9445Z" fill="#231F20"/>
<path d="M75.7004 68.0334C75.5671 68.0111 75.456 67.9334 75.3893 67.8334C75.3227 67.7334 75.2893 67.5889 75.3115 67.4667C75.356 67.2334 75.556 67.0667 75.7893 67.0667C76.1449 67.1223 76.3227 67.3889 76.2671 67.6445C76.2227 67.8778 76.0227 68.0445 75.7893 68.0445C75.7671 68.0445 75.7338 68.0445 75.7004 68.0334Z" fill="white"/>
<path d="M75.7893 67.2C75.8115 67.2 75.8338 67.2 75.856 67.2111C75.9449 67.2334 76.0337 67.2778 76.0782 67.3556C76.1226 67.4334 76.156 67.5223 76.1338 67.6223C76.1004 67.7889 75.956 67.9111 75.7893 67.9111C75.7671 67.9111 75.7449 67.9111 75.7226 67.9C75.6337 67.8778 75.5449 67.8334 75.5004 67.7556C75.456 67.6778 75.4226 67.5889 75.4449 67.4889C75.4782 67.3223 75.6226 67.2 75.7893 67.2ZM75.7893 66.9223C75.4893 66.9223 75.2226 67.1334 75.1671 67.4334C75.1004 67.7778 75.3226 68.1 75.6671 68.1667C75.7115 68.1778 75.7449 68.1778 75.7893 68.1778C76.0893 68.1778 76.356 67.9667 76.4115 67.6667C76.4782 67.3223 76.256 67 75.9115 66.9334C75.8671 66.9223 75.8338 66.9223 75.7893 66.9223Z" fill="#231F20"/>
<path d="M74.7675 70.9333C74.5008 70.8778 74.323 70.6222 74.3786 70.3556C74.423 70.1222 74.623 69.9556 74.8564 69.9556C75.2119 70.0111 75.3897 70.2667 75.3341 70.5333C75.2897 70.7667 75.0897 70.9333 74.8564 70.9333C74.8341 70.9333 74.8008 70.9333 74.7675 70.9333Z" fill="white"/>
<path d="M74.856 70.1C74.8782 70.1 74.9004 70.1 74.9226 70.1112C75.0115 70.1334 75.1004 70.1778 75.1448 70.2556C75.1893 70.3334 75.2226 70.4223 75.2004 70.5223C75.1671 70.6889 75.0226 70.8112 74.856 70.8112C74.8337 70.8112 74.8115 70.8112 74.7893 70.8C74.7004 70.7778 74.6115 70.7334 74.5671 70.6556C74.5226 70.5778 74.4893 70.4889 74.5115 70.3889C74.5448 70.2112 74.6893 70.1 74.856 70.1ZM74.856 69.8223C74.556 69.8223 74.2893 70.0334 74.2337 70.3334C74.1671 70.6778 74.3893 71 74.7337 71.0667C74.7782 71.0778 74.8115 71.0778 74.856 71.0778C75.156 71.0778 75.4226 70.8667 75.4782 70.5667C75.5448 70.2223 75.3226 69.9 74.9782 69.8334C74.9337 69.8223 74.9004 69.8223 74.856 69.8223Z" fill="#231F20"/>
<path d="M78.1786 72.5778C77.9119 72.5333 77.7342 72.2667 77.7897 72C77.8342 71.7667 78.0342 71.6 78.2675 71.6C78.4897 71.6333 78.6008 71.7 78.6786 71.8111C78.7564 71.9222 78.7786 72.0556 78.7564 72.1778C78.7119 72.4111 78.5119 72.5778 78.2786 72.5778C78.2453 72.5889 78.2119 72.5889 78.1786 72.5778Z" fill="white"/>
<path d="M78.2671 71.7445C78.2893 71.7445 78.3115 71.7445 78.3338 71.7556C78.4226 71.7778 78.5115 71.8223 78.556 71.9C78.6004 71.9778 78.6338 72.0667 78.6115 72.1667C78.5782 72.3334 78.4338 72.4556 78.2671 72.4556C78.2449 72.4556 78.2226 72.4556 78.2004 72.4445C78.0115 72.4111 77.8893 72.2223 77.9226 72.0334C77.956 71.8667 78.1004 71.7445 78.2671 71.7445ZM78.2671 71.4667C77.9671 71.4667 77.7004 71.6778 77.6449 71.9778C77.5782 72.3223 77.8004 72.6445 78.1449 72.7112C78.1893 72.7223 78.2226 72.7223 78.2671 72.7223C78.5671 72.7223 78.8338 72.5111 78.8893 72.2111C78.956 71.8667 78.7338 71.5445 78.3893 71.4778C78.3449 71.4667 78.3115 71.4667 78.2671 71.4667Z" fill="#231F20"/>
<path d="M77.4452 75.2446C77.4119 75.2446 77.3786 75.2446 77.3563 75.2335C77.0897 75.189 76.9119 74.9223 76.9675 74.6668C77.0119 74.4335 77.2119 74.2668 77.4452 74.2668C77.8008 74.3223 77.9786 74.5779 77.9341 74.8446C77.8897 75.0779 77.6897 75.2446 77.4452 75.2446Z" fill="white"/>
<path d="M77.4448 74.4C77.467 74.4 77.4893 74.4 77.5115 74.4111C77.6004 74.4334 77.6893 74.4778 77.7337 74.5556C77.7782 74.6334 77.8115 74.7223 77.7893 74.8223C77.7559 74.9889 77.6115 75.1111 77.4448 75.1111C77.4226 75.1111 77.4004 75.1111 77.3782 75.1C77.1893 75.0667 77.067 74.8778 77.1004 74.6889C77.1337 74.5223 77.2782 74.4 77.4448 74.4ZM77.4448 74.1223C77.1448 74.1223 76.8782 74.3334 76.8226 74.6334C76.7559 74.9778 76.9782 75.3 77.3226 75.3667C77.367 75.3778 77.4004 75.3778 77.4448 75.3778C77.7448 75.3778 78.0115 75.1667 78.067 74.8667C78.1337 74.5223 77.9115 74.2 77.567 74.1334C77.5226 74.1223 77.4893 74.1223 77.4448 74.1223Z" fill="#231F20"/>
<path d="M76.9448 65.2889C76.9115 65.2889 76.8782 65.2889 76.8559 65.2778C76.7226 65.2556 76.6115 65.1778 76.5448 65.0778C76.4782 64.9778 76.4448 64.8445 76.4671 64.7111C76.5115 64.4778 76.7115 64.3111 76.9448 64.3111C77.3004 64.3667 77.4782 64.6223 77.4226 64.8889C77.3893 65.1223 77.1782 65.2889 76.9448 65.2889Z" fill="white"/>
<path d="M76.9448 64.4445C76.967 64.4445 76.9893 64.4445 77.0115 64.4556C77.1004 64.4778 77.1893 64.5223 77.2337 64.6C77.2782 64.6778 77.3115 64.7667 77.2893 64.8667C77.2559 65.0334 77.1115 65.1556 76.9448 65.1556C76.9226 65.1556 76.9004 65.1556 76.8782 65.1445C76.7893 65.1223 76.7004 65.0778 76.6559 65C76.6115 64.9223 76.5782 64.8334 76.6004 64.7334C76.6337 64.5667 76.7782 64.4445 76.9448 64.4445ZM76.9448 64.1667C76.6448 64.1667 76.3782 64.3778 76.3226 64.6778C76.2559 65.0223 76.4782 65.3445 76.8226 65.4111C76.867 65.4223 76.9004 65.4223 76.9448 65.4223C77.2448 65.4223 77.5115 65.2111 77.567 64.9111C77.6337 64.5667 77.4115 64.2445 77.067 64.1778C77.0226 64.1778 76.9893 64.1667 76.9448 64.1667Z" fill="#231F20"/>
<path d="M80.512 67.1777C80.3786 67.1554 80.2675 67.0777 80.2008 66.9777C80.1342 66.8777 80.1008 66.7332 80.1231 66.611C80.1675 66.3777 80.3675 66.211 80.6008 66.211C80.9564 66.2666 81.1342 66.5332 81.0786 66.7888C81.0342 67.0221 80.8342 67.1888 80.6008 67.1888C80.5786 67.1888 80.5453 67.1777 80.512 67.1777Z" fill="white"/>
<path d="M80.6008 66.3443C80.623 66.3443 80.6453 66.3443 80.6675 66.3555C80.8564 66.3888 80.9786 66.5777 80.9453 66.7666C80.9119 66.9332 80.7675 67.0554 80.6008 67.0554C80.5786 67.0554 80.5564 67.0554 80.5342 67.0443C80.4453 67.0221 80.3564 66.9777 80.3119 66.8999C80.2675 66.8221 80.2342 66.7332 80.2564 66.6332C80.2897 66.4666 80.4342 66.3443 80.6008 66.3443ZM80.6008 66.0666C80.3008 66.0666 80.0342 66.2777 79.9786 66.5777C79.9119 66.9221 80.1342 67.2443 80.4786 67.311C80.5231 67.3221 80.5564 67.3221 80.6008 67.3221C80.9008 67.3221 81.1675 67.111 81.2231 66.811C81.2897 66.4666 81.0675 66.1443 80.723 66.0777C80.6786 66.0666 80.6453 66.0666 80.6008 66.0666Z" fill="#231F20"/>
<path d="M79.5777 69.9891C79.5444 69.9891 79.5111 69.9891 79.4889 69.978C79.3555 69.9557 79.2444 69.878 79.1777 69.778C79.1 69.6668 79.0777 69.5446 79.1 69.4113C79.1444 69.178 79.3444 69.0113 79.5777 69.0113C79.9333 69.0668 80.1111 69.3224 80.0555 69.5891C80.0111 69.8113 79.8111 69.9891 79.5777 69.9891Z" fill="white"/>
<path d="M79.5667 69.1446C79.5889 69.1446 79.6111 69.1446 79.6333 69.1557C79.7222 69.178 79.8111 69.2224 79.8555 69.3002C79.9 69.378 79.9333 69.4669 79.9111 69.5669C79.8778 69.7335 79.7333 69.8557 79.5667 69.8557C79.5444 69.8557 79.5222 69.8557 79.5 69.8446C79.3111 69.8113 79.1889 69.6224 79.2222 69.4335C79.2555 69.2669 79.4 69.1446 79.5667 69.1446ZM79.5667 68.8669C79.2667 68.8669 79 69.078 78.9444 69.378C78.8778 69.7224 79.1 70.0446 79.4444 70.1113C79.4889 70.1224 79.5222 70.1224 79.5667 70.1224C79.8667 70.1224 80.1333 69.9113 80.1889 69.6113C80.2555 69.2669 80.0333 68.9446 79.6889 68.878C79.6444 68.8669 79.6111 68.8669 79.5667 68.8669Z" fill="#231F20"/>
<path d="M81.6785 64.5112C81.5452 64.489 81.4341 64.4112 81.3674 64.3112C81.2897 64.2001 81.2674 64.0668 81.2897 63.9446C81.3341 63.7112 81.5341 63.5446 81.7674 63.5446C82.123 63.6001 82.3008 63.8668 82.2452 64.1223C82.2008 64.3557 82.0008 64.5223 81.7674 64.5223C81.7452 64.5223 81.7119 64.5112 81.6785 64.5112Z" fill="white"/>
<path d="M81.7671 63.6778C81.7893 63.6778 81.8115 63.6778 81.8337 63.6889C82.0226 63.7223 82.1449 63.9111 82.1115 64.1C82.0782 64.2667 81.9338 64.3889 81.7671 64.3889C81.7449 64.3889 81.7226 64.3889 81.7004 64.3778C81.6115 64.3556 81.5226 64.3112 81.4782 64.2334C81.4337 64.1556 81.4004 64.0667 81.4226 63.9667C81.456 63.8 81.6004 63.6778 81.7671 63.6778ZM81.7671 63.4C81.4671 63.4 81.2004 63.6111 81.1449 63.9111C81.0782 64.2556 81.3004 64.5778 81.6449 64.6445C81.6893 64.6556 81.7226 64.6556 81.7671 64.6556C82.0671 64.6556 82.3337 64.4445 82.3893 64.1445C82.456 63.8 82.2338 63.4778 81.8893 63.4111C81.8449 63.4 81.8115 63.4 81.7671 63.4Z" fill="#231F20"/>
<path d="M83.0231 71.6445C82.7564 71.6 82.5786 71.3333 82.6342 71.0667C82.6786 70.8333 82.8786 70.6667 83.112 70.6667C83.4675 70.7222 83.6453 70.9889 83.5898 71.2445C83.5453 71.4778 83.3453 71.6445 83.112 71.6445C83.0786 71.6556 83.0453 71.6556 83.0231 71.6445Z" fill="white"/>
<path d="M83.1116 70.8111C83.1338 70.8111 83.156 70.8112 83.1782 70.8223C83.2671 70.8445 83.356 70.8889 83.4005 70.9667C83.4449 71.0445 83.4782 71.1334 83.456 71.2334C83.4227 71.4 83.2782 71.5223 83.1116 71.5223C83.0893 71.5223 83.0671 71.5223 83.0449 71.5112C82.856 71.4778 82.7338 71.2889 82.7671 71.1C82.7893 70.9334 82.9338 70.8111 83.1116 70.8111ZM83.1116 70.5334C82.8116 70.5334 82.5449 70.7445 82.4893 71.0445C82.4227 71.3889 82.6449 71.7111 82.9893 71.7778C83.0338 71.7889 83.0671 71.7889 83.1116 71.7889C83.4116 71.7889 83.6782 71.5778 83.7338 71.2778C83.8005 70.9334 83.5782 70.6112 83.2338 70.5445C83.1893 70.5334 83.1449 70.5334 83.1116 70.5334Z" fill="#231F20"/>
<path d="M82.3336 74.2558C82.3003 74.2558 82.2669 74.2558 82.2447 74.2447C82.1114 74.2224 82.0003 74.1447 81.9336 74.0447C81.8558 73.9335 81.8336 73.8113 81.8558 73.678C81.9003 73.4447 82.1003 73.278 82.3336 73.278C82.6892 73.3335 82.8669 73.5891 82.8114 73.8558C82.778 74.078 82.5669 74.2558 82.3336 74.2558Z" fill="white"/>
<path d="M82.3333 73.4112C82.3555 73.4112 82.3777 73.4112 82.3999 73.4223C82.5888 73.4557 82.711 73.6446 82.6777 73.8335C82.6444 74.0001 82.4999 74.1223 82.3333 74.1223C82.311 74.1223 82.2888 74.1223 82.2666 74.1112C82.1777 74.089 82.0888 74.0446 82.0444 73.9668C81.9999 73.889 81.9666 73.8001 81.9888 73.7001C82.0221 73.5335 82.1666 73.4112 82.3333 73.4112ZM82.3333 73.1335C82.0333 73.1335 81.7666 73.3446 81.711 73.6446C81.6444 73.989 81.8666 74.3112 82.211 74.3779C82.2555 74.389 82.2888 74.389 82.3333 74.389C82.6333 74.389 82.8999 74.1779 82.9555 73.8779C83.0221 73.5335 82.7999 73.2112 82.4555 73.1446C82.411 73.1335 82.3777 73.1335 82.3333 73.1335Z" fill="#231F20"/>
<path d="M85.3225 66.3223C85.1892 66.3001 85.0781 66.2223 85.0114 66.1223C84.9447 66.0223 84.9114 65.8778 84.9336 65.7556C84.9781 65.5223 85.1781 65.3556 85.4114 65.3556C85.7669 65.4112 85.9447 65.6667 85.8892 65.9334C85.8447 66.1667 85.6447 66.3334 85.4114 66.3334C85.3892 66.3334 85.3558 66.3223 85.3225 66.3223Z" fill="white"/>
<path d="M85.4221 65.4889C85.4443 65.4889 85.4666 65.4889 85.4888 65.5C85.5777 65.5222 85.6666 65.5666 85.711 65.6444C85.7554 65.7222 85.7888 65.8111 85.7666 65.9111C85.7332 66.0778 85.5888 66.2 85.4221 66.2C85.3999 66.2 85.3777 66.2 85.3554 66.1889C85.1666 66.1555 85.0443 65.9666 85.0777 65.7778C85.0999 65.6111 85.2443 65.4889 85.4221 65.4889ZM85.4221 65.2111C85.1221 65.2111 84.8554 65.4222 84.7999 65.7222C84.7332 66.0666 84.9554 66.3889 85.2999 66.4555C85.3443 66.4666 85.3777 66.4666 85.4221 66.4666C85.7221 66.4666 85.9888 66.2555 86.0443 65.9555C86.111 65.6111 85.8888 65.2889 85.5443 65.2222C85.4999 65.2111 85.4554 65.2111 85.4221 65.2111Z" fill="#231F20"/>
<path d="M84.2897 69.0335C84.2564 69.0335 84.223 69.0335 84.2008 69.0223C83.9342 68.9779 83.7564 68.7112 83.8119 68.4557C83.8564 68.2223 84.0564 68.0557 84.2897 68.0557C84.6453 68.1112 84.823 68.3668 84.7786 68.6335C84.723 68.8668 84.523 69.0335 84.2897 69.0335Z" fill="white"/>
<path d="M84.2893 68.1889C84.3115 68.1889 84.3338 68.1889 84.356 68.2C84.4449 68.2223 84.5337 68.2667 84.5782 68.3445C84.6226 68.4223 84.656 68.5111 84.6338 68.6111C84.6004 68.7667 84.456 68.8889 84.2893 68.8889C84.2671 68.8889 84.2449 68.8889 84.2226 68.8778C84.1337 68.8556 84.0449 68.8111 84.0004 68.7334C83.956 68.6556 83.9226 68.5667 83.9449 68.4667C83.9671 68.3111 84.1115 68.1889 84.2893 68.1889ZM84.2893 67.9111C83.9893 67.9111 83.7226 68.1223 83.6671 68.4223C83.6004 68.7667 83.8226 69.0889 84.1671 69.1556C84.2115 69.1667 84.2449 69.1667 84.2893 69.1667C84.5893 69.1667 84.856 68.9556 84.9115 68.6556C84.9782 68.3112 84.756 67.9889 84.4115 67.9223C84.3671 67.9112 84.3226 67.9111 84.2893 67.9111Z" fill="#231F20"/>
<path d="M86.6001 63.7446C86.5668 63.7446 86.5335 63.7446 86.5112 63.7335C86.3779 63.7112 86.2668 63.6334 86.2001 63.5334C86.1334 63.4334 86.1001 63.3001 86.1223 63.1668C86.1668 62.9334 86.3668 62.7668 86.6001 62.7668C86.8223 62.8001 86.9334 62.8668 87.0112 62.9779C87.089 63.089 87.1112 63.2112 87.089 63.3446C87.0334 63.5779 86.8334 63.7446 86.6001 63.7446Z" fill="white"/>
<path d="M86.5894 62.9C86.6116 62.9 86.6338 62.9 86.656 62.9111C86.7449 62.9334 86.8338 62.9778 86.8782 63.0556C86.9227 63.1334 86.956 63.2223 86.9338 63.3223C86.9005 63.4889 86.756 63.6111 86.5894 63.6111C86.5671 63.6111 86.5449 63.6111 86.5227 63.6C86.4338 63.5778 86.3449 63.5334 86.3005 63.4556C86.256 63.3778 86.2227 63.2889 86.2449 63.1889C86.2782 63.0223 86.4227 62.9 86.5894 62.9ZM86.5894 62.6223C86.2894 62.6223 86.0227 62.8334 85.9671 63.1334C85.9005 63.4778 86.1227 63.8 86.4671 63.8667C86.5116 63.8778 86.5449 63.8778 86.5894 63.8778C86.8894 63.8778 87.156 63.6667 87.2116 63.3667C87.2782 63.0223 87.056 62.7 86.7116 62.6334C86.6671 62.6334 86.6338 62.6223 86.5894 62.6223Z" fill="#231F20"/>
<path d="M87.8563 70.7111C87.5897 70.6667 87.4119 70.4 87.4675 70.1333C87.5119 69.9 87.7119 69.7333 87.9452 69.7333C88.3008 69.7889 88.4786 70.0556 88.423 70.3111C88.3786 70.5444 88.1786 70.7111 87.9452 70.7111C87.9119 70.7222 87.8897 70.7111 87.8563 70.7111Z" fill="white"/>
<path d="M87.9448 69.8778C87.967 69.8778 87.9893 69.8778 88.0115 69.8889C88.1004 69.9112 88.1893 69.9556 88.2337 70.0334C88.2782 70.1111 88.3115 70.2 88.2893 70.3C88.2559 70.4667 88.1115 70.5889 87.9448 70.5889C87.9226 70.5889 87.9004 70.5889 87.8782 70.5778C87.7893 70.5556 87.7004 70.5111 87.6559 70.4334C87.6115 70.3556 87.5782 70.2667 87.6004 70.1667C87.6337 70 87.7782 69.8778 87.9448 69.8778ZM87.9448 69.6C87.6448 69.6 87.3782 69.8111 87.3226 70.1111C87.2559 70.4556 87.4782 70.7778 87.8226 70.8445C87.867 70.8556 87.9004 70.8556 87.9448 70.8556C88.2448 70.8556 88.5115 70.6445 88.567 70.3445C88.6337 70 88.4115 69.6778 88.067 69.6112C88.0226 69.6 87.9782 69.6 87.9448 69.6Z" fill="#231F20"/>
<path d="M87.1344 73.2558C86.8678 73.2113 86.69 72.9447 86.7455 72.678C86.79 72.4447 86.99 72.278 87.2233 72.278C87.5789 72.3335 87.7566 72.5891 87.7011 72.8558C87.6566 73.0891 87.4566 73.2558 87.2233 73.2558C87.19 73.2558 87.1678 73.2558 87.1344 73.2558Z" fill="white"/>
<path d="M87.2229 72.4225C87.2451 72.4225 87.2673 72.4225 87.2896 72.4336C87.4785 72.4669 87.6007 72.6558 87.5673 72.8447C87.534 73.0113 87.3896 73.1336 87.2229 73.1336C87.2007 73.1336 87.1785 73.1336 87.1562 73.1225C86.9673 73.0891 86.8451 72.9002 86.8785 72.7114C86.9118 72.5336 87.0562 72.4225 87.2229 72.4225ZM87.2229 72.1447C86.9229 72.1447 86.6562 72.3558 86.6007 72.6558C86.534 73.0002 86.7562 73.3225 87.1007 73.3891C87.1451 73.4002 87.1785 73.4002 87.2229 73.4002C87.5229 73.4002 87.7896 73.1891 87.8451 72.8891C87.9118 72.5447 87.6896 72.2225 87.3451 72.1558C87.3007 72.1447 87.2562 72.1447 87.2229 72.1447Z" fill="#231F20"/>
<path d="M90.1452 65.4667C89.8785 65.4222 89.7007 65.1556 89.7563 64.8889C89.8007 64.6556 90.0007 64.4889 90.2341 64.4889C90.5896 64.5444 90.7674 64.8 90.7118 65.0667C90.6674 65.3 90.4674 65.4667 90.2341 65.4667C90.2007 65.4667 90.1674 65.4667 90.1452 65.4667Z" fill="white"/>
<path d="M90.2336 64.6334C90.2559 64.6334 90.2781 64.6334 90.3003 64.6445C90.3892 64.6667 90.4781 64.7111 90.5225 64.7889C90.567 64.8667 90.6003 64.9556 90.5781 65.0556C90.5448 65.2223 90.4003 65.3445 90.2336 65.3445C90.2114 65.3445 90.1892 65.3445 90.167 65.3334C90.0781 65.3111 89.9892 65.2667 89.9448 65.1889C89.9003 65.1111 89.867 65.0223 89.8892 64.9223C89.9225 64.7445 90.067 64.6334 90.2336 64.6334ZM90.2336 64.3556C89.9336 64.3556 89.667 64.5667 89.6114 64.8667C89.5448 65.2111 89.767 65.5334 90.1114 65.6C90.1559 65.6111 90.1892 65.6111 90.2336 65.6111C90.5336 65.6111 90.8003 65.4 90.8559 65.1C90.9225 64.7556 90.7003 64.4334 90.3559 64.3667C90.3114 64.3556 90.267 64.3556 90.2336 64.3556Z" fill="#231F20"/>
<path d="M88.9117 68.0668C88.7784 68.0446 88.6673 67.9668 88.6006 67.8668C88.5228 67.7557 88.5006 67.6224 88.5228 67.5001C88.5673 67.2668 88.7673 67.1001 89.0006 67.1001C89.3561 67.1557 89.5339 67.4224 89.4784 67.6779C89.4339 67.9112 89.2339 68.0779 89.0006 68.0779C88.9673 68.0779 88.945 68.0779 88.9117 68.0668Z" fill="white"/>
<path d="M89.0002 67.2334C89.0225 67.2334 89.0447 67.2334 89.0669 67.2445C89.1558 67.2667 89.2447 67.3112 89.2891 67.3889C89.3336 67.4667 89.3669 67.5556 89.3447 67.6556C89.3114 67.8223 89.1669 67.9445 89.0002 67.9445C88.978 67.9445 88.9558 67.9445 88.9336 67.9334C88.8447 67.9112 88.7558 67.8667 88.7114 67.7889C88.6669 67.7112 88.6336 67.6223 88.6558 67.5223C88.6891 67.3556 88.8336 67.2334 89.0002 67.2334ZM89.0002 66.9556C88.7002 66.9556 88.4336 67.1667 88.378 67.4667C88.3114 67.8112 88.5336 68.1334 88.878 68.2C88.9225 68.2112 88.9558 68.2112 89.0002 68.2112C89.3002 68.2112 89.5669 68 89.6225 67.7C89.6891 67.3556 89.4669 67.0334 89.1225 66.9667C89.078 66.9556 89.0336 66.9556 89.0002 66.9556Z" fill="#231F20"/>
<path d="M92.69 69.7779C92.5567 69.7556 92.4456 69.6779 92.3789 69.5779C92.3011 69.4667 92.2789 69.3334 92.3011 69.2112C92.3456 68.9779 92.5456 68.8112 92.7789 68.8112C93.1345 68.8667 93.3122 69.1334 93.2567 69.389C93.2122 69.6223 93.0122 69.789 92.7789 69.789C92.7567 69.7779 92.7234 69.7779 92.69 69.7779Z" fill="white"/>
<path d="M92.7786 68.9444C92.8008 68.9444 92.823 68.9444 92.8452 68.9555C92.9341 68.9778 93.023 69.0222 93.0674 69.1C93.1119 69.1778 93.1452 69.2667 93.123 69.3667C93.0897 69.5333 92.9452 69.6555 92.7786 69.6555C92.7563 69.6555 92.7341 69.6555 92.7119 69.6444C92.523 69.6111 92.4008 69.4222 92.4341 69.2333C92.4675 69.0555 92.6119 68.9444 92.7786 68.9444ZM92.7786 68.6667C92.4786 68.6667 92.2119 68.8778 92.1563 69.1778C92.0897 69.5222 92.3119 69.8444 92.6563 69.9111C92.7008 69.9222 92.7341 69.9222 92.7786 69.9222C93.0786 69.9222 93.3452 69.7111 93.4008 69.4111C93.4675 69.0667 93.2452 68.7444 92.9008 68.6778C92.8563 68.6667 92.823 68.6667 92.7786 68.6667Z" fill="#231F20"/>
<path d="M92.0231 72.2668C91.7564 72.2223 91.5786 71.9557 91.6342 71.689C91.6786 71.4557 91.8786 71.289 92.112 71.289C92.4675 71.3446 92.6453 71.6001 92.5898 71.8668C92.5453 72.1001 92.3453 72.2668 92.112 72.2668C92.0786 72.2668 92.0453 72.2668 92.0231 72.2668Z" fill="white"/>
<path d="M92.1116 71.4223C92.1338 71.4223 92.156 71.4223 92.1782 71.4334C92.3671 71.4667 92.4894 71.6556 92.456 71.8445C92.4227 72.0112 92.2782 72.1334 92.1116 72.1334C92.0893 72.1334 92.0671 72.1334 92.0449 72.1223C91.856 72.0889 91.7338 71.9 91.7671 71.7112C91.7893 71.5445 91.9449 71.4223 92.1116 71.4223ZM92.1116 71.1445C91.8116 71.1445 91.5449 71.3556 91.4893 71.6556C91.4227 72 91.6449 72.3223 91.9893 72.3889C92.0338 72.4 92.0671 72.4 92.1116 72.4C92.4116 72.4 92.6782 72.1889 92.7338 71.8889C92.8005 71.5445 92.5782 71.2223 92.2338 71.1556C92.1893 71.1556 92.1449 71.1445 92.1116 71.1445Z" fill="#231F20"/>
<path d="M91.3336 62.9668C91.2002 62.9446 91.0891 62.8668 91.0225 62.7668C90.9447 62.6557 90.9225 62.5224 90.9447 62.4002C90.9891 62.1668 91.1891 62.0002 91.4225 62.0002C91.778 62.0557 91.9558 62.3224 91.9002 62.5779C91.8558 62.8113 91.6558 62.9779 91.4225 62.9779C91.3891 62.9779 91.3558 62.9668 91.3336 62.9668Z" fill="white"/>
<path d="M91.4221 62.1334C91.4443 62.1334 91.4666 62.1334 91.4888 62.1445C91.5777 62.1667 91.6666 62.2112 91.711 62.289C91.7554 62.3667 91.7888 62.4556 91.7666 62.5556C91.7332 62.7223 91.5888 62.8445 91.4221 62.8445C91.3999 62.8445 91.3777 62.8445 91.3554 62.8334C91.2666 62.8112 91.1777 62.7667 91.1332 62.689C91.0888 62.6112 91.0554 62.5223 91.0777 62.4223C91.0999 62.2556 91.2443 62.1334 91.4221 62.1334ZM91.4221 61.8556C91.1221 61.8556 90.8554 62.0667 90.7999 62.3667C90.7332 62.7112 90.9555 63.0334 91.2999 63.1001C91.3443 63.1112 91.3777 63.1112 91.4221 63.1112C91.7221 63.1112 91.9888 62.9001 92.0443 62.6001C92.111 62.2556 91.8888 61.9334 91.5443 61.8667C91.4999 61.8556 91.4555 61.8556 91.4221 61.8556Z" fill="#231F20"/>
<path d="M93.6227 67.1112C93.356 67.0668 93.1783 66.8001 93.2338 66.5335C93.2783 66.3001 93.4783 66.1335 93.7116 66.1335C94.0671 66.189 94.2449 66.4557 94.1894 66.7112C94.1449 66.9446 93.9449 67.1112 93.7116 67.1112C93.6894 67.1223 93.656 67.1223 93.6227 67.1112Z" fill="white"/>
<path d="M93.7112 66.2779C93.7334 66.2779 93.7556 66.2779 93.7778 66.289C93.9667 66.3224 94.089 66.5113 94.0556 66.7001C94.0223 66.8668 93.8778 66.989 93.7112 66.989C93.689 66.989 93.6667 66.989 93.6445 66.9779C93.5556 66.9557 93.4667 66.9113 93.4223 66.8335C93.3778 66.7557 93.3445 66.6668 93.3667 66.5668C93.4001 66.4002 93.5445 66.2779 93.7112 66.2779ZM93.7112 66.0002C93.4112 66.0002 93.1445 66.2113 93.089 66.5113C93.0223 66.8557 93.2445 67.1779 93.589 67.2446C93.6334 67.2557 93.6667 67.2557 93.7112 67.2557C94.0112 67.2557 94.2778 67.0446 94.3334 66.7446C94.4001 66.4002 94.1778 66.0779 93.8334 66.0113C93.789 66.0002 93.7556 66.0002 93.7112 66.0002Z" fill="#231F20"/>
<path d="M96.9009 71.2668C96.7675 71.2446 96.6564 71.1668 96.5898 71.0668C96.5231 70.9668 96.4898 70.8223 96.512 70.7001C96.5564 70.4668 96.7564 70.3001 96.9898 70.3001C97.3453 70.3557 97.5231 70.6223 97.4675 70.8779C97.4231 71.1112 97.2231 71.2779 96.9898 71.2779C96.9675 71.2779 96.9342 71.2779 96.9009 71.2668Z" fill="white"/>
<path d="M97.0005 70.4334C97.0227 70.4334 97.0449 70.4334 97.0672 70.4445C97.256 70.4778 97.3783 70.6667 97.3449 70.8556C97.3116 71.0223 97.1671 71.1445 97.0005 71.1445C96.9783 71.1445 96.956 71.1445 96.9338 71.1334C96.8449 71.1111 96.756 71.0667 96.7116 70.9889C96.6671 70.9111 96.6338 70.8223 96.656 70.7223C96.6783 70.5556 96.8227 70.4334 97.0005 70.4334ZM97.0005 70.1556C96.7005 70.1556 96.4338 70.3667 96.3783 70.6667C96.3116 71.0111 96.5338 71.3334 96.8783 71.4C96.9227 71.4112 96.956 71.4111 97.0005 71.4111C97.3005 71.4111 97.5672 71.2 97.6227 70.9C97.6894 70.5556 97.4672 70.2334 97.1227 70.1667C97.0783 70.1667 97.0338 70.1556 97.0005 70.1556Z" fill="#231F20"/>
<path d="M39.0771 81.4112L42.4772 79.9556L45.3438 80.2223L52.1994 76.8223L51.9549 74.6334L54.4883 73.4334L62.4772 80.4334L59.3883 81.9223L57.1105 81.2001L49.0994 85.1112V87.5779L46.5216 88.8556L39.0771 81.4112Z" fill="white"/>
<path d="M54.4549 73.6001L62.2215 80.4001L59.4104 81.7556L57.1437 81.0779L57.0437 81.0445L56.9437 81.089L49.0993 84.9445L48.9437 85.0223V85.2001V87.5001L46.5326 88.689L39.3104 81.4668L42.4549 80.1223L45.3215 80.3668L45.3993 80.3779L45.466 80.3445L52.1549 77.0001L52.3326 76.9112L52.3104 76.7223L52.0882 74.7334L54.4549 73.6001ZM54.5104 73.2668L51.8104 74.5556L52.0549 76.7445L45.366 80.089L42.4215 79.8334L38.8438 81.3668L46.4993 89.0223L49.2437 87.6668V85.2001L57.0882 81.3445L59.466 82.0556L62.7437 80.4779L54.5104 73.2668Z" fill="#231F20"/>
<path d="M39.0771 75.9112L42.8216 74.1L45.0883 74.8334L52.1994 71.3334L51.9549 69.1445L54.4883 67.9445L62.4772 74.9445L59.3883 76.4334L57.1105 75.7112L49.0994 79.6112V82.0889L46.5216 83.3556L39.0771 75.9112Z" fill="white"/>
<path d="M54.4552 68.1002L62.2219 74.9002L59.4108 76.2558L57.1552 75.578L57.0552 75.5447L56.9552 75.5891L49.1108 79.4447L48.9552 79.5224V79.7002V82.0002L46.5441 83.1891L39.2997 75.9447L42.7663 74.2669L45.033 74.9669L45.1441 75.0002L45.2441 74.9558L52.1663 71.5002L52.3441 71.4113L52.3219 71.2224L52.0997 69.2335L54.4552 68.1002ZM54.5108 67.778L51.8108 69.0669L52.0552 71.2447L45.133 74.7002L42.7552 73.978L38.833 75.878L46.4886 83.5335L49.233 82.178V79.7113L57.0775 75.8558L59.4552 76.5669L62.733 74.9891L54.5108 67.778Z" fill="#231F20"/>
<path d="M46.6328 83.6111L49.0995 82.3889V87.5778L46.6328 88.8V83.6111Z" fill="white"/>
<path d="M48.9549 82.6222V87.5L46.7661 88.5889V83.7111L48.9549 82.6222ZM49.2327 82.1667L46.4883 83.5222V89.0222L49.2327 87.6667V82.1667Z" fill="#231F20"/>
<path d="M49.3779 79.7893L56.9335 76.0671V81.256L49.3779 84.9671V79.7893Z" fill="white"/>
<path d="M56.8001 76.2893V81.1671L49.5112 84.7449V79.8671L56.8001 76.2893ZM57.0778 75.8449L49.2334 79.7004V85.1893L57.0778 81.3338V75.8449Z" fill="#231F20"/>
<path d="M57.2109 81.2338V76.0338L59.3109 76.6561V81.8672L57.2109 81.2338Z" fill="white"/>
<path d="M57.3549 76.2227L59.1771 76.7671V81.6782L57.3549 81.1338V76.2227ZM57.0771 75.8449V81.3338L59.4549 82.0449V76.556L57.0771 75.8449Z" fill="#231F20"/>
<path d="M59.5891 76.6445L62.5891 75.1889V80.3778L59.5891 81.8223V76.6445Z" fill="white"/>
<path d="M62.4553 75.4113V80.2891L59.7331 81.6002V76.7224L62.4553 75.4113ZM62.7331 74.978L59.4553 76.5558V82.0447L62.7331 80.4669V74.978Z" fill="#231F20"/>
<path d="M38.9326 81.2668L38.9771 76.2002L46.3993 83.6335L46.3548 88.6891L38.9326 81.2668Z" fill="white"/>
<path d="M39.1215 76.5446L46.2215 83.6446V88.3557L39.1215 81.2446V76.5446ZM38.8438 75.8669V81.3557L46.4993 89.0224V83.5335L38.8438 75.8669Z" fill="#231F20"/>
<path d="M10.7998 90.9554V85.9109L12.7109 87.822C14.1998 92.4332 17.4887 92.9443 18.8331 92.9443C19.0109 92.9443 19.1331 92.9332 19.2109 92.9332L20.7442 94.4665L20.7109 99.6998L10.7998 90.9554Z" fill="white"/>
<path d="M10.9331 86.2443L12.5664 87.8776C14.1664 92.7109 17.7664 93.0887 18.833 93.0887C18.9664 93.0887 19.0775 93.0887 19.1553 93.0776L20.5664 94.4887V99.3887L10.9331 90.8887V86.2443ZM10.6553 85.5665V91.0109L20.8442 99.9998V94.3665L19.2553 92.7776C19.2553 92.7776 19.0997 92.7998 18.833 92.7998C17.6553 92.7998 14.3219 92.3665 12.8108 87.722L10.6553 85.5665Z" fill="#231F20"/>
<path d="M33.0225 84.1107V78.1774L34.9447 80.0885C36.4336 84.6996 39.7225 85.2107 41.0669 85.2107C41.2447 85.2107 41.3669 85.1996 41.4447 85.1996L42.978 86.733L42.9447 91.9774L33.0225 84.1107Z" fill="white"/>
<path d="M33.1664 78.5109L34.7998 80.1443C36.3998 84.9776 39.9998 85.3554 41.0664 85.3554C41.1998 85.3554 41.3109 85.3554 41.3887 85.3443L42.7998 86.7554V91.6998L33.1664 84.0554V78.5109ZM32.8887 77.8332V84.1776L43.0776 92.2665V86.6332L41.4887 85.0443C41.4887 85.0443 41.3331 85.0665 41.0664 85.0665C39.8887 85.0665 36.5553 84.6332 35.0442 79.9887L32.8887 77.8332Z" fill="#231F20"/>
<path d="M20.989 94.4666L42.9335 86.8221V92.1666L20.989 99.7999V94.4666Z" fill="white"/>
<path d="M42.7997 87.022V92.0665L21.133 99.6109V94.5665L42.7997 87.022ZM43.0774 86.6331L20.8552 94.3665V99.9998L43.0774 92.2665V86.6331Z" fill="#231F20"/>
<path d="M19.5105 92.8441L41.4549 85.2108L42.8216 86.5774L20.8772 94.2108L19.5105 92.8441Z" fill="white"/>
<path d="M41.4108 85.3665L42.5552 86.5109L20.9108 94.0443L19.7664 92.8998L41.4108 85.3665ZM41.4886 85.0443L19.2664 92.7776L20.8552 94.3665L43.0775 86.6332L41.4886 85.0443Z" fill="#231F20"/>
<path d="M10.9102 85.633L32.8435 77.9997L34.7768 79.933L12.8435 87.5663L10.9102 85.633Z" fill="white"/>
<path d="M32.8105 78.1554L34.5216 79.8665L12.8771 87.3998L11.166 85.6887L32.8105 78.1554ZM32.8882 77.8332L10.666 85.5665L12.8216 87.722L35.0438 79.9887L32.8882 77.8332Z" fill="#231F20"/>
<path d="M18.2442 92.7667C16.8664 92.7667 14.3664 92.1222 12.9775 87.8111L34.9331 80.1667C35.1442 81.0111 36.3664 85.0111 40.622 85.2L19.2109 92.6555C19.2109 92.6555 18.8331 92.7667 18.2442 92.7667Z" fill="white"/>
<path d="M34.8439 80.3556C35.1328 81.4 36.3439 84.7778 39.9772 85.2889L19.1883 92.5223C19.1883 92.5223 18.8105 92.6334 18.255 92.6334C16.9328 92.6334 14.5328 92.0111 13.1661 87.9L34.8439 80.3556ZM35.0328 79.9889L12.8105 87.7223C14.2105 92.2334 16.8105 92.9 18.2439 92.9C18.855 92.9 19.255 92.7778 19.255 92.7778L41.4772 85.0445C41.2883 85.0556 41.0994 85.0667 40.9217 85.0667C35.9772 85.0667 35.0328 79.9889 35.0328 79.9889Z" fill="#231F20"/>
<path d="M0.77832 9.27786C0.77832 4.32231 4.81165 0.277863 9.76721 0.277863H71.4672L24.1783 20.7001L0.77832 56.789V9.27786Z" fill="white"/>
<path d="M70.7893 0.422309L24.1227 20.5668L24.0449 20.6001L24.0005 20.6668L0.911567 56.3112V9.27787C0.911567 4.40009 4.88935 0.422309 9.76712 0.422309H70.7893ZM72.1338 0.144531H9.76712C4.73379 0.144531 0.633789 4.24453 0.633789 9.27787V57.2556L24.2338 20.8223L72.1338 0.144531Z" fill="#231F20"/>
<path d="M71.4778 0.277778L24.1778 20.6889L24.1 20.7222L24.0556 20.7889L0.777778 56.7889V9.27778C0.777778 4.31111 4.81111 0.277778 9.77778 0.277778H71.4778ZM72.8222 0H9.77778C4.65556 0 0.5 4.15556 0.5 9.27778V57.7333L24.2889 20.9556L72.8222 0Z" fill="#231F20" stroke="#231F20" stroke-width="0.25" stroke-miterlimit="10"/>
<path d="M10.0327 14H8.83239L12.304 4.54545H13.4858L16.9574 14H15.7571L12.9318 6.04119H12.858L10.0327 14ZM10.4759 10.3068H15.3139V11.3224H10.4759V10.3068ZM19.3718 4.54545V14H18.2823V4.54545H19.3718ZM22.4568 4.54545V14H21.3673V4.54545H22.4568Z" fill="#231F20"/>
</g>
<defs>
<clipPath id="clip0_212_86">
<rect width="100" height="100" fill="white" transform="translate(0.5)"/>
</clipPath>
</defs>
</svg>
